<svg width="204" height="58" viewBox="0 0 204 58" fill="none" xmlns="http://www.w3.org/2000/svg">
<path d="M74.55 27.6369V17.1133H71.6268V27.8039C71.6268 30.1981 70.7359 30.922 69.2604 30.922C68.5365 30.922 67.9797 30.8106 67.4508 30.6436L67.2002 32.9821C67.757 33.1213 68.3695 33.2049 69.0655 33.2049C73.6034 33.2049 74.55 30.4765 74.55 27.6369Z" fill="#006D46"/>
<path d="M99.6617 15.4151C100.497 15.4151 101.137 14.7191 101.137 13.9117C101.137 13.0765 100.497 12.4084 99.6617 12.4084C98.8265 12.4084 98.1861 13.1044 98.1861 13.9117C98.1861 14.7469 98.8265 15.4151 99.6617 15.4151Z" fill="#006D46"/>
<path d="M101.471 12.2692C102.251 12.2692 102.835 11.6567 102.835 10.8772C102.835 10.0976 102.223 9.48517 101.471 9.48517C100.72 9.48517 100.107 10.0976 100.107 10.8772C100.135 11.6567 100.72 12.2692 101.471 12.2692Z" fill="#006D46"/>
<path d="M101.861 13.9117C101.861 14.7469 102.501 15.4151 103.337 15.4151C104.172 15.4151 104.812 14.7191 104.812 13.9117C104.812 13.0765 104.172 12.4084 103.337 12.4084C102.501 12.4084 101.861 13.0765 101.861 13.9117Z" fill="#006D46"/>
<path d="M107.54 15.4151C108.376 15.4151 109.016 14.7191 109.016 13.9117C109.016 13.0765 108.376 12.4084 107.54 12.4084C106.705 12.4084 106.065 13.1044 106.065 13.9117C106.065 14.7469 106.733 15.4151 107.54 15.4151Z" fill="#006D46"/>
<path d="M111.243 15.4151C112.078 15.4151 112.719 14.7191 112.719 13.9117C112.719 13.0765 112.078 12.4084 111.243 12.4084C110.408 12.4084 109.768 13.1044 109.768 13.9117C109.768 14.7469 110.408 15.4151 111.243 15.4151Z" fill="#006D46"/>
<path d="M131.01 22.3751C131.01 20.1757 130.731 18.0042 130.286 16.2224L127.418 16.6122C127.808 18.3104 128.058 20.3428 128.058 22.57C128.058 23.266 128.003 24.3517 127.891 25.2426H127.112C125.163 25.2426 124.662 24.6301 124.662 22.7648V17.5309H121.85V22.8762C121.85 24.4631 121.488 25.4375 120.208 25.4375C118.899 25.4375 118.509 24.5188 118.509 22.8484V18.4496H115.642V22.4586C115.642 24.658 115.085 25.2426 113.637 25.2426H113.248H112.914H111.271V17.1133H108.348V25.2426H105.564H105.23H103.392V17.1133H100.469V25.2426H97.7129H97.3509H95.8197V22.0967C95.8197 18.8394 94.2607 16.8071 90.6972 16.8071C86.9666 16.8071 85.0178 19.3962 85.0178 22.57C85.0178 24.6023 84.4053 25.2426 83.3474 25.2426H83.2361H82.902H81.0089V11.8794H78.0857V27.5533H82.902H83.2361C84.5724 27.5533 85.6025 26.9965 86.1593 25.8551C86.8274 26.9408 88.1081 27.5533 90.725 27.5533H97.3231H97.685H105.202H105.536H112.886H113.22H113.582C115.224 27.5533 116.143 26.9687 116.533 25.9108C116.922 27.08 118.064 27.7482 119.679 27.7482C121.071 27.7482 122.379 27.1357 122.908 25.9108C123.409 27.1079 124.578 27.5533 126.499 27.5533H130.675C130.87 25.9664 131.01 23.9898 131.01 22.3751ZM92.9522 25.2426H91.0313C88.7484 25.2426 87.8853 24.2682 87.8853 22.3194C87.8853 20.4263 88.8319 19.1456 90.4745 19.1456C92.117 19.1456 92.9522 20.12 92.9522 22.4586V25.2426Z" fill="#006D46"/>
<path d="M143.927 11.8794H141.004V25.2426H134.128V27.5533H143.927V11.8794Z" fill="#006D46"/>
<path d="M139.389 23.5722L136.132 11.7402L133.237 12.13L136.411 23.5722H139.389Z" fill="#006D46"/>
<path d="M150.609 11.8794H147.686V27.5533H150.609V11.8794Z" fill="#006D46"/>
<path d="M169.596 27.5533V21.9296C169.596 18.8115 168.037 16.8071 164.585 16.8071C160.715 16.8071 158.794 19.3962 158.794 22.4029C158.794 25.5488 160.409 27.5255 164.752 27.5255H169.596V27.5533ZM161.717 22.1245C161.717 20.3984 162.691 19.1178 164.362 19.1178C165.837 19.1178 166.728 20.0643 166.728 22.2637V25.2147H165.03C162.719 25.2426 161.717 24.2125 161.717 22.1245Z" fill="#006D46"/>
<path d="M166.227 15.4151C167.062 15.4151 167.703 14.7191 167.703 13.9117C167.703 13.0765 167.062 12.4084 166.227 12.4084C165.392 12.4084 164.752 13.1044 164.752 13.9117C164.752 14.7469 165.392 15.4151 166.227 15.4151Z" fill="#006D46"/>
<path d="M162.524 15.4151C163.36 15.4151 164 14.7191 164 13.9117C164 13.0765 163.36 12.4084 162.524 12.4084C161.689 12.4084 161.049 13.1044 161.049 13.9117C161.077 14.7469 161.717 15.4151 162.524 15.4151Z" fill="#006D46"/>
<path d="M175.804 27.6368V17.1133H172.881V27.8038C172.881 30.1981 171.99 30.9219 170.515 30.9219C169.791 30.9219 169.234 30.8106 168.705 30.6435L168.454 32.9821C169.011 33.1213 169.624 33.2048 170.32 33.2048C174.83 33.2048 175.804 30.4765 175.804 27.6368Z" fill="#006D46"/>
<path d="M182.263 11.8794H179.34V27.5533H182.263V11.8794Z" fill="#006D46"/>
<path d="M181.456 32.9821C182.012 33.1213 182.625 33.2049 183.321 33.2049C187.859 33.2049 188.805 30.5044 188.805 27.6369V17.1133H185.882V27.8039C185.882 30.1981 184.991 30.922 183.516 30.922C182.792 30.922 182.235 30.8106 181.706 30.6436L181.456 32.9821Z" fill="#006D46"/>
<path d="M187.358 15.2481C188.193 15.2481 188.889 14.5521 188.889 13.7169C188.889 12.8817 188.193 12.1857 187.358 12.1857C186.522 12.1857 185.826 12.8817 185.826 13.7169C185.826 14.5799 186.495 15.2481 187.358 15.2481Z" fill="#006D46"/>
<path d="M197.185 16.8349C193.093 16.8349 191.283 19.5075 191.283 22.4029C191.283 25.5488 192.898 27.5533 197.241 27.5533H198.967V27.8874C198.967 29.9754 197.436 30.8384 195.125 30.8384C193.399 30.8384 191.645 30.4487 191.645 30.4487L191.478 32.8429C191.478 32.8429 193.176 33.1213 194.847 33.1213C199.83 33.1213 201.807 30.6435 201.807 27.5533V17.5866C201.835 17.5866 199.802 16.8349 197.185 16.8349ZM198.995 25.2426H197.575C195.236 25.2426 194.234 24.1568 194.234 22.1245C194.234 20.3984 195.209 19.1178 196.879 19.1178C198.16 19.1178 198.995 19.5075 198.995 19.5075V25.2426Z" fill="#006D46"/>
<path d="M75.0233 35.9888L73.4364 40.7216C73.2137 41.3898 73.0466 41.9188 72.9074 42.6148H72.8796C72.7682 41.9744 72.6012 41.3341 72.3785 40.6938L70.8473 35.9888H68.7871L67.3673 45.176H69.149L69.678 40.9444C69.7893 40.137 69.8729 39.4132 69.9285 38.6058H69.9564C70.0677 39.3296 70.2905 40.1648 70.541 40.9165L71.933 45.176H73.6869L75.1346 40.5546C75.3573 39.8308 75.5244 39.1904 75.6357 38.6058H75.6636C75.7193 39.2461 75.8028 39.9143 75.942 40.8052L76.5823 45.176H78.4476L77.0277 35.9888H75.0233Z" fill="#006D46"/>
<path d="M80.7305 35.4321C80.1181 35.4321 79.6448 35.9054 79.6448 36.4901C79.6448 37.0747 80.1181 37.548 80.7305 37.548C81.343 37.548 81.8163 37.0747 81.8163 36.4901C81.8163 35.8776 81.343 35.4321 80.7305 35.4321Z" fill="#006D46"/>
<path d="M81.6213 38.4109H79.8674V45.1761H81.6213V38.4109Z" fill="#006D46"/>
<path d="M87.3564 38.2439C86.2428 38.2439 85.4633 38.8007 85.0457 39.608C85.1014 39.2461 85.1292 38.7172 85.1292 38.4109H83.4866V45.176H85.2405V41.9188C85.2405 40.7495 85.9366 39.7194 86.8274 39.7194C87.4678 39.7194 87.6626 40.137 87.6626 40.8608V45.176H89.3887V40.4432C89.3609 39.2461 88.8598 38.2439 87.3564 38.2439Z" fill="#006D46"/>
<path d="M93.0079 38.4109H91.254V45.1761H93.0079V38.4109Z" fill="#006D46"/>
<path d="M92.117 35.4321C91.5324 35.4321 91.0313 35.9054 91.0313 36.49C91.0313 37.0746 91.5045 37.5479 92.117 37.5479C92.7017 37.5479 93.2028 37.0746 93.2028 36.49C93.2028 35.8775 92.7295 35.4321 92.117 35.4321Z" fill="#006D46"/>
<path d="M96.293 40.2762C96.293 39.8586 96.6271 39.5802 97.2953 39.5802C97.7129 39.5802 98.1583 39.6359 98.5481 39.7472L98.6037 38.3831C98.1861 38.3274 97.7685 38.2717 97.3788 38.2717C95.4857 38.2717 94.5113 39.2461 94.5113 40.4432C94.5113 42.754 97.2396 42.058 97.2396 43.2551C97.2396 43.7005 96.7941 43.9789 96.126 43.9789C95.597 43.9789 95.0959 43.8954 94.6783 43.784L94.6505 45.2039C95.0959 45.2596 95.5692 45.3152 96.0703 45.3152C97.9077 45.3152 99.077 44.4244 99.077 43.088C99.0492 40.8887 96.293 41.362 96.293 40.2762Z" fill="#006D46"/>
<path d="M102.585 35.8497L100.831 36.323V38.411H99.6617V39.7473H100.831V43.1716C100.831 44.7585 101.304 45.2874 102.78 45.2874C103.253 45.2874 103.754 45.2318 104.2 45.1204V43.7284C103.949 43.7841 103.643 43.8398 103.364 43.8398C102.78 43.8398 102.557 43.5892 102.557 42.7262V39.7751H104.2V38.4388H102.557V35.8497H102.585Z" fill="#006D46"/>
<path d="M107.178 39.7751C107.234 39.3018 107.262 38.745 107.262 38.4109H105.619V45.176H107.373V42.4199C107.373 40.5546 107.986 39.7194 109.239 39.9978L109.322 38.2717C108.153 38.1604 107.513 38.9121 107.178 39.7751Z" fill="#006D46"/>
<path d="M113.637 40.6938C113.415 41.3342 113.136 42.225 112.997 42.8375C112.858 42.225 112.663 41.5569 112.468 40.9722L111.549 38.3831H109.628L112.106 45.1482L111.883 45.7886C111.522 46.7908 111.16 47.0414 110.575 47.0414C110.241 47.0414 109.962 46.9857 109.656 46.9022L109.545 48.4055C109.823 48.4612 110.185 48.5169 110.491 48.5169C112.05 48.5169 112.746 47.8766 113.554 45.7607L116.338 38.3831H114.473L113.637 40.6938Z" fill="#006D46"/>
<path d="M123.214 38.2717C121.154 38.2717 119.762 39.8029 119.762 41.8909C119.762 44.2852 120.987 45.2874 122.908 45.2874C124.94 45.2874 126.36 43.7562 126.36 41.6404C126.36 39.3297 125.135 38.2717 123.214 38.2717ZM123.075 43.8119C122.073 43.8119 121.572 43.1159 121.572 41.7239C121.572 40.3319 122.323 39.7472 123.103 39.7472C124.133 39.7472 124.578 40.4432 124.578 41.7517C124.578 43.1159 123.91 43.8119 123.075 43.8119Z" fill="#006D46"/>
<path d="M128.114 37.8541V38.4109H126.945V39.7472H128.114V45.1482H129.84V39.7472H131.427V38.4109H129.84V37.8263C129.84 36.9354 130.174 36.5456 130.954 36.5456C131.204 36.5456 131.538 36.5735 131.789 36.657L131.9 35.2372C131.538 35.1536 131.177 35.1258 130.787 35.1258C128.977 35.1258 128.114 36.0167 128.114 37.8541Z" fill="#006D46"/>
<path d="M137.329 35.9888H135.547V45.176H137.329V35.9888Z" fill="#006D46"/>
<path d="M143.092 38.2438C141.979 38.2438 141.199 38.8006 140.781 39.608C140.837 39.2461 140.865 38.7171 140.865 38.4109H139.222V45.176H140.976V41.9187C140.976 40.7494 141.672 39.7194 142.563 39.7194C143.204 39.7194 143.398 40.1369 143.398 40.8608V45.176H145.124V40.4432C145.097 39.2461 144.595 38.2438 143.092 38.2438Z" fill="#006D46"/>
<path d="M149.941 41.5012C149.774 41.9745 149.634 42.4756 149.523 42.9489H149.495C149.384 42.4477 149.217 41.9188 149.05 41.4455L147.964 38.4109H146.071L148.577 45.1761H150.358L152.892 38.4109H151.054L149.941 41.5012Z" fill="#006D46"/>
<path d="M156.567 38.2439C154.534 38.2439 153.393 39.7751 153.393 41.8352C153.393 44.2016 154.59 45.2874 156.734 45.2874C157.569 45.2874 158.432 45.1482 159.156 44.842L158.989 43.5056C158.404 43.784 157.68 43.9232 157.012 43.9232C155.759 43.9232 155.147 43.3108 155.147 42.058H159.323C159.351 41.7796 159.378 41.5012 159.378 41.2784C159.406 39.608 158.515 38.2439 156.567 38.2439ZM155.175 40.8887C155.258 40.0813 155.787 39.5524 156.483 39.5524C157.207 39.5524 157.68 40.0535 157.652 40.8887H155.175Z" fill="#006D46"/>
<path d="M162.274 40.2762C162.274 39.8586 162.608 39.5802 163.276 39.5802C163.694 39.5802 164.139 39.6359 164.529 39.7472L164.585 38.3831C164.167 38.3274 163.749 38.2717 163.36 38.2717C161.466 38.2717 160.492 39.2461 160.492 40.4432C160.492 42.754 163.22 42.058 163.22 43.2551C163.22 43.7005 162.775 43.9789 162.107 43.9789C161.578 43.9789 161.077 43.8954 160.659 43.784L160.631 45.2039C161.077 45.2596 161.55 45.3152 162.051 45.3152C163.889 45.3152 165.058 44.4244 165.058 43.088C165.03 40.8887 162.274 41.362 162.274 40.2762Z" fill="#006D46"/>
<path d="M168.566 35.8497L166.812 36.323V38.411H165.642V39.7473H166.812V43.1716C166.812 44.7585 167.285 45.2874 168.761 45.2874C169.234 45.2874 169.735 45.2318 170.18 45.1204V43.7284C169.93 43.7841 169.624 43.8398 169.345 43.8398C168.761 43.8398 168.538 43.5892 168.538 42.7262V39.7751H170.18V38.4388H168.538V35.8497H168.566Z" fill="#006D46"/>
<path d="M179.507 38.2439C178.365 38.2439 177.614 38.9399 177.307 39.608C177.14 38.9677 176.639 38.2439 175.442 38.2439C174.44 38.2439 173.633 38.7728 173.215 39.608H173.187C173.243 39.2183 173.271 38.7172 173.271 38.4109H171.628V45.176H173.382V41.9466C173.382 40.6938 174.134 39.7194 174.941 39.7194C175.609 39.7194 175.748 40.2205 175.748 40.8887V45.176H177.474V41.9466C177.474 40.6381 178.254 39.7194 179.034 39.7194C179.674 39.7194 179.841 40.1649 179.841 40.8887V45.176H181.595V40.5268C181.511 38.9677 180.787 38.2439 179.507 38.2439Z" fill="#006D46"/>
<path d="M186.077 38.2439C184.045 38.2439 182.903 39.7751 182.903 41.8352C182.903 44.2016 184.1 45.2874 186.244 45.2874C187.079 45.2874 187.942 45.1482 188.666 44.842L188.499 43.5056C187.914 43.784 187.191 43.9232 186.522 43.9232C185.27 43.9232 184.657 43.3108 184.657 42.058H188.833C188.861 41.7796 188.889 41.5012 188.889 41.2784C188.917 39.608 188.054 38.2439 186.077 38.2439ZM184.713 40.8887C184.796 40.0813 185.325 39.5524 186.021 39.5524C186.745 39.5524 187.218 40.0535 187.191 40.8887H184.713Z" fill="#006D46"/>
<path d="M194.234 38.2439C193.121 38.2439 192.341 38.8007 191.923 39.608C191.979 39.2461 192.007 38.7172 192.007 38.4109H190.364V45.176H192.118V41.9188C192.118 40.7495 192.814 39.7194 193.705 39.7194C194.346 39.7194 194.54 40.137 194.54 40.8608V45.176H196.266V40.4432C196.266 39.2461 195.765 38.2439 194.234 38.2439Z" fill="#006D46"/>
<path d="M200.192 35.8497L198.438 36.323V38.411H197.269V39.7473H198.438V43.1717C198.438 44.7585 198.911 45.2875 200.387 45.2875C200.86 45.2875 201.361 45.2318 201.807 45.1205V43.7285C201.556 43.7841 201.25 43.8398 200.972 43.8398C200.387 43.8398 200.164 43.5893 200.164 42.7262V39.7752H201.807V38.4389H200.164V35.8497H200.192Z" fill="#006D46"/>
<path d="M22.8787 15.0799C18.3408 16.7503 19.0646 21.0377 19.0646 21.0377C19.2595 20.3973 20.6793 17.5855 23.3798 16.9174C20.3731 20.0076 21.2361 23.8495 21.2361 23.8495C21.3475 23.3484 22.1827 19.423 25.1894 18.5878C23.3241 21.0377 24.0758 24.1836 24.2707 24.8518C24.2707 23.6268 25.4957 21.511 26.2473 20.5644C26.999 22.1513 26.9155 25.158 26.9155 25.158H26.3587L26.9155 28.7494H26.4701L26.832 32.3407H26.4701L26.9433 36.9343L25.3286 37.7973V38.0201H29.8387V37.7973L28.224 36.9343L28.6973 32.3407H28.3353L28.7529 28.7494H28.3075L28.8643 25.158H28.3075C28.3075 25.158 28.1961 22.1234 28.9757 20.5644C29.7273 21.5388 30.9523 23.6546 30.9523 24.8518C31.1472 24.1836 31.8989 21.0098 30.0336 18.5878C33.0125 19.423 33.8755 23.3484 33.9869 23.8495C33.9869 23.8495 34.8499 20.0076 31.8153 16.9174C34.5158 17.5855 35.9078 20.3973 36.1305 21.0377C36.1305 21.0377 36.8544 16.7781 32.3165 15.0799C32.4 15.0799 32.5949 15.0242 32.9289 15.0242C33.9312 15.0242 35.4067 15.4418 36.4368 15.943C36.4368 15.943 35.4345 13.3817 31.5369 13.3817C31.3699 13.3817 31.2585 13.3817 31.2585 13.3817C31.2585 13.3817 31.3977 12.4073 33.1795 12.4073C33.7641 12.4073 34.2653 12.4908 34.2653 12.4908C34.2653 12.4908 33.2352 11.5442 31.704 11.5442C29.9222 11.5442 28.7808 12.9641 28.5859 13.159C27.8064 12.6022 28.7529 11.6834 29.1427 11.405C29.1427 11.405 29.0035 11.3215 28.7529 11.3215C28.4745 11.3215 28.1961 11.4885 28.1126 11.5999C28.1126 11.5999 28.0291 10.8482 28.6973 10.542C28.224 10.542 27.6115 10.9874 27.6115 11.1545C27.6115 11.0153 26.999 10.542 26.5257 10.542C27.1939 10.8482 27.1104 11.5999 27.1104 11.5999C27.0269 11.4885 26.7485 11.3215 26.4701 11.3215C26.2473 11.3215 26.0803 11.405 26.0803 11.405C26.4701 11.6556 27.4166 12.5743 26.6371 13.159C26.4422 12.9641 25.3008 11.5442 23.519 11.5442C21.9878 11.5442 20.9577 12.4908 20.9577 12.4908C20.9577 12.4908 21.431 12.4073 22.0435 12.4073C23.8253 12.4073 23.9645 13.3817 23.9645 13.3817C23.9645 13.3817 23.8253 13.3817 23.6861 13.3817C19.7885 13.3817 18.7862 15.943 18.7862 15.943C19.8163 15.4697 21.3197 15.0242 22.2941 15.0242C22.6003 15.0242 22.7952 15.0799 22.8787 15.0799ZM40.8355 35.069C35.6573 35.069 27.6115 40.3865 27.6115 40.3865H27.5837C27.5837 40.3865 19.5101 35.069 14.3597 35.069C11.5757 35.069 10.1558 36.0434 9.71039 36.4332C10.4064 36.0156 12.4109 36.0434 12.4109 36.0434C14.1926 36.0434 16.7261 36.6837 18.5913 37.5746C22.6838 39.5234 25.8854 41.4444 25.8854 41.4444L25.9133 41.4722L21.9321 44.0057C21.9321 44.0057 20.568 42.3909 19.3709 42.3909C18.5913 42.3909 18.4521 42.8364 18.4521 43.0591C18.4521 43.254 18.5635 43.6716 19.0925 43.6716C19.5936 43.6716 19.6214 43.3097 19.6214 43.1983C19.6771 43.2262 19.7328 43.2262 19.8163 43.3097C19.872 43.3932 20.6793 44.646 20.6793 44.646C20.6793 44.646 18.1459 46.038 17.9789 46.038C17.8397 46.038 17.5891 45.7317 17.3664 45.7317C17.1158 45.7317 17.1158 45.9545 17.1158 45.9823C17.1158 46.1215 17.7283 47.1794 18.6192 47.1794C18.7584 47.1794 19.2038 47.2073 19.4544 47.1237C20.4288 46.7618 21.5145 46.205 21.7373 46.0937C21.7373 46.0937 22.6003 47.1794 23.2128 47.1794C23.2128 47.1794 23.4355 47.1794 23.519 47.1794C23.8253 47.1794 24.1593 47.0959 24.1593 47.0959C24.1593 47.0959 24.6326 47.43 24.9667 47.43C25.3286 47.43 25.7184 47.2351 25.7184 46.8175C25.7184 46.3999 25.44 46.1493 25.0781 46.1493C24.7161 46.1493 24.5213 46.4556 24.5213 46.5948C24.4377 46.5948 24.3542 46.5948 24.3542 46.5948L23.1293 45.2863L27.6393 42.5023L32.1494 45.2863L30.9245 46.5948C30.9245 46.5948 30.8688 46.5948 30.7574 46.5948C30.7574 46.4556 30.5625 46.1493 30.2006 46.1493C29.8387 46.1493 29.5603 46.4277 29.5603 46.8175C29.5603 47.2073 29.9501 47.43 30.312 47.43C30.6739 47.43 31.1193 47.0959 31.1193 47.0959C31.1193 47.0959 31.4534 47.1794 31.7597 47.1794C31.8432 47.1794 32.0659 47.1794 32.0659 47.1794C32.6784 47.1794 33.5414 46.0937 33.5414 46.0937C33.792 46.2329 34.8777 46.7618 35.8243 47.1237C36.0749 47.2073 36.5203 47.1794 36.6595 47.1794C37.5504 47.1794 38.1629 46.1215 38.1629 45.9823C38.1629 45.9545 38.1629 45.7317 37.9123 45.7317C37.6617 45.7317 37.4112 46.038 37.2998 46.038C37.1328 46.038 34.5993 44.646 34.5993 44.646C34.5993 44.646 35.3789 43.3932 35.4624 43.3097C35.5181 43.2262 35.5737 43.2262 35.6573 43.1983C35.6573 43.3097 35.6851 43.6716 36.1862 43.6716C36.6873 43.6716 36.8265 43.254 36.8265 43.0591C36.8265 42.8642 36.6873 42.3909 35.9078 42.3909C34.7107 42.3909 33.3465 44.0057 33.3465 44.0057L29.3654 41.4722L29.3933 41.4444C29.3933 41.4444 32.5949 39.5234 36.6873 37.5746C38.5248 36.6837 41.0582 36.0434 42.8678 36.0434C42.8678 36.0434 44.8445 36.0156 45.5683 36.4332C45.0393 36.0434 43.6473 35.069 40.8355 35.069Z" fill="#006D46"/>
<path d="M53.0017 57.4246H2.16586V0.575317H53.0017V57.4246ZM5.06123 54.5292H50.1342V3.47068H5.06123V54.5292Z" fill="#006D46"/>
</svg>
