<svg width="214" height="58" viewBox="0 0 214 58" fill="none" xmlns="http://www.w3.org/2000/svg">
<g clip-path="url(#clip0_6_31144)">
<path d="M47.4376 39.7494H47.1459C45.1043 39.7494 43.54 40.5979 42.0021 41.791C41.7635 40.4123 41.684 39.06 41.684 37.8669C41.684 36.5147 41.79 35.3745 41.8431 34.6321C42.4264 35.0033 42.5855 35.7457 42.5855 36.4086C42.5855 36.9654 42.4529 37.4427 42.3999 37.6548C43.0097 36.9124 43.1953 36.17 43.1953 35.5071C43.1953 34.7647 42.9567 34.1549 42.8241 33.9163C43.7786 34.6852 43.9377 35.6662 43.9377 36.4086C43.9377 36.5677 43.9377 36.7533 43.9112 36.8594C44.0968 36.4882 44.2559 36.0109 44.2559 35.4806C44.2559 34.7117 43.9377 33.8102 43.0892 33.0413C44.4149 33.3595 44.9452 34.5791 44.9452 35.5336C44.9452 36.17 44.9452 36.1965 44.9717 35.5867C45.0778 35.2685 45.1043 34.9768 45.1043 34.7382C45.1043 34.3935 45.0513 34.1284 44.9452 33.8898C44.574 32.8822 43.54 32.458 43.0362 32.3519C43.1688 32.3254 43.2748 32.3254 43.3809 32.3254C44.1498 32.3254 44.6271 32.564 44.9187 32.8557C45.1308 33.0413 45.2634 33.2269 45.3164 33.3064C45.2634 32.9352 45.1308 32.6171 44.9187 32.3519C44.521 31.8482 43.8847 31.6095 43.2483 31.6095C43.0097 31.6095 42.7445 31.6626 42.5324 31.7421C42.8506 31.2914 43.3544 31.1323 43.8316 31.1323C44.0437 31.1323 44.2559 31.1853 44.3884 31.2648C44.0437 30.8671 43.5665 30.655 43.1423 30.655C42.6915 30.655 42.1877 30.8936 41.8431 31.3974C41.79 31.2648 41.684 31.1588 41.6575 30.9997C41.5249 30.7611 41.4719 30.4694 41.4188 30.2043C41.4188 30.1778 41.3923 30.1512 41.3658 30.1512C41.3393 30.1512 41.3128 30.1778 41.3128 30.2043C41.2597 30.4959 41.1537 30.7611 41.0742 30.9997C41.0211 31.1588 40.9151 31.2914 40.862 31.3974C40.5174 30.8936 40.0666 30.655 39.6159 30.655C39.1651 30.655 38.6879 30.8671 38.3697 31.2914C38.5288 31.2383 38.7144 31.1588 38.953 31.1588C39.4038 31.1588 39.9075 31.3444 40.1727 31.7951C39.9606 31.6891 39.7219 31.636 39.4303 31.636C38.847 31.636 38.2106 31.8747 37.7864 32.3519C37.5743 32.5906 37.4417 32.9087 37.4152 33.3064C37.4682 33.2004 37.5743 33.0148 37.7864 32.8557C38.078 32.6171 38.5288 32.3254 39.2977 32.3254C39.4303 32.3254 39.5363 32.3254 39.6954 32.3519C39.1916 32.405 38.1576 32.8557 37.7864 33.8898C37.6803 34.1284 37.6273 34.42 37.6273 34.7117C37.6273 34.9503 37.6803 35.2685 37.7864 35.6132V35.5601C37.8129 34.6056 38.3432 33.4125 39.6689 33.0943C38.8204 33.8632 38.4758 34.7382 38.4758 35.5336C38.4758 36.0904 38.6348 36.5412 38.8204 36.9389C38.7939 36.7798 38.7939 36.5942 38.7939 36.4086C38.7939 35.6927 38.953 34.7382 39.9075 34.0223C39.7484 34.261 39.5098 34.8443 39.5098 35.5867C39.5098 36.223 39.6954 36.9919 40.3052 37.7343C40.1992 37.4957 40.0931 36.9919 40.0931 36.4881C40.0931 35.7988 40.2522 35.0829 40.862 34.7117C40.9151 35.4541 41.0211 36.5677 41.0211 37.8669C41.0211 39.06 40.9681 40.4122 40.703 41.8175C39.1651 40.6244 37.5743 39.7759 35.5592 39.7759H35.2675C34.2335 39.8289 33.1994 40.1206 32.457 40.5448L32.4305 40.5713C32.4305 40.5713 32.4305 40.5979 32.457 40.5979C33.1729 40.3857 33.8888 40.2532 34.6312 40.2532C34.8433 40.2532 35.0554 40.2532 35.241 40.2797C36.1425 40.3327 36.9644 40.6244 37.7334 40.9691C38.7939 41.4728 39.8015 42.1622 40.6764 42.9046C40.1196 43.3553 38.2371 45.1583 37.6273 45.4765C37.4947 45.3174 37.2826 45.1848 37.0705 45.1848C37.0175 45.1848 36.9644 45.1848 36.9114 45.2113C36.6728 45.2644 36.4607 45.45 36.3811 45.7416C36.3546 45.7946 36.3546 45.8742 36.3546 45.9007C36.3546 46.0598 36.4076 46.2454 36.5137 46.3249C36.7258 46.537 36.9379 46.6431 37.2031 46.6431C37.3622 46.6431 37.5478 46.5901 37.7334 46.5105C38.5818 46.1658 39.6689 44.9992 41.0211 43.7796C41.1537 43.6735 41.2598 43.5674 41.3658 43.4614C41.4984 43.594 41.6044 43.6735 41.7105 43.7796C43.0627 44.9992 44.1498 46.1128 44.9983 46.5105C45.1839 46.5635 45.3429 46.6431 45.5285 46.6431C45.7672 46.6431 45.9793 46.537 46.2179 46.3249C46.324 46.2189 46.377 46.0863 46.377 45.9007C46.377 45.8477 46.377 45.7681 46.3505 45.7416C46.2975 45.503 46.1119 45.2909 45.8202 45.2113C45.7672 45.2113 45.7141 45.1848 45.6611 45.1848C45.4225 45.1848 45.2369 45.3174 45.1043 45.4765C44.4945 45.1583 42.5855 43.3553 42.0552 42.9046C42.9567 42.1622 43.9112 41.4728 44.9983 40.9691C45.7672 40.6244 46.5891 40.3857 47.4906 40.2797C47.7027 40.2532 47.9148 40.2532 48.1004 40.2532C48.8428 40.2532 49.5322 40.3857 50.2746 40.5979L50.3011 40.5713C50.3011 40.5713 50.3011 40.5448 50.2746 40.5448C49.5322 40.0941 48.5247 39.8024 47.4906 39.7494H47.4376Z" fill="#000075"/>
<path d="M0.666931 18.1391L1.01162 18.4308L20.4996 2.23057L17.6626 1.01093L0.666931 18.1391Z" fill="url(#paint0_linear_6_31144)"/>
<path d="M21.799 1.11273L20.4998 2.22632L39.0598 10.5518L45.5558 9.75637L21.799 1.11273Z" fill="url(#paint1_linear_6_31144)"/>
<path d="M18.6702 0L17.6627 1.00755L20.4997 2.22719L21.7989 1.1136L18.6702 0Z" fill="url(#paint2_linear_6_31144)"/>
<path d="M23.8144 12.4133L24.2916 14.2693L28.9582 14.0837L26.8105 12.0421L23.8144 12.4133Z" fill="url(#paint3_linear_6_31144)"/>
<path d="M45.4765 13.4471L39.0601 10.5571L29.674 11.6972L32.1399 13.9774L45.4765 13.4471Z" fill="url(#paint4_linear_6_31144)"/>
<path d="M22.0111 14.3708L21.6929 12.6473L10.0797 14.0526L10.5039 14.848L22.0111 14.3708Z" fill="url(#paint5_linear_6_31144)"/>
<path d="M45.5564 9.75409L39.0604 10.5495L45.4768 13.4396L45.5564 9.75409Z" fill="url(#paint6_linear_6_31144)"/>
<path d="M10.5034 14.8503L9.04507 14.8769L30.9989 57.5913L28.5595 45.8455L10.5034 14.8503Z" fill="url(#paint7_linear_6_31144)"/>
<path d="M10.0796 14.0526L9.04554 14.8745L10.5038 14.848L10.0796 14.0526Z" fill="url(#paint8_linear_6_31144)"/>
<path d="M22.7269 8.09071L20.2081 5.67792L21.6929 12.6512L23.814 12.4125L22.7269 8.09071Z" fill="url(#paint9_linear_6_31144)"/>
<path d="M28.5601 45.843L34.7644 56.5018L24.2913 14.2646L22.0111 14.3706L28.5601 45.843Z" fill="url(#paint10_linear_6_31144)"/>
<path d="M21.693 12.648L22.0112 14.3714L24.2914 14.2654L23.8142 12.4094L21.693 12.648Z" fill="url(#paint11_linear_6_31144)"/>
<path d="M30.9994 57.5889L34.7645 56.5019L28.5601 45.8431L30.9994 57.5889Z" fill="url(#paint12_linear_6_31144)"/>
<path d="M32.1392 13.9761L28.9575 14.0822L58.0966 42.1608L60.9867 40.7025L32.1392 13.9761Z" fill="url(#paint13_linear_6_31144)"/>
<path d="M26.8103 12.0412L29.6738 11.6965L21.7991 4.40509L22.7271 8.09057L26.8103 12.0412Z" fill="url(#paint14_linear_6_31144)"/>
<path d="M61.279 45.2892L64.8054 44.1756L62.3131 41.8954L59.4495 43.4862L61.279 45.2892Z" fill="url(#paint15_linear_6_31144)"/>
<path d="M29.6736 11.6928L26.8101 12.0375L28.9577 14.0791L32.1394 13.973L29.6736 11.6928Z" fill="url(#paint16_linear_6_31144)"/>
<path d="M21.7989 4.40509L20.2081 5.67777L22.7269 8.09057L21.7989 4.40509Z" fill="url(#paint17_linear_6_31144)"/>
<path d="M49.5852 49.0018L37.919 55.5509L64.2741 48.1534L61.278 45.2899L49.5852 49.0018Z" fill="url(#paint18_linear_6_31144)"/>
<path d="M64.2747 48.1499L64.805 44.1727L61.2786 45.2863L64.2747 48.1499Z" fill="url(#paint19_linear_6_31144)"/>
<path d="M59.449 43.486L58.0967 42.1603L36.5141 53.1372L49.5857 49.0009L59.449 43.486Z" fill="url(#paint20_linear_6_31144)"/>
<path d="M60.987 40.6994L62.3127 41.8925L64.3278 40.7524L63.5059 39.4001L60.987 40.6994Z" fill="url(#paint21_linear_6_31144)"/>
<path d="M73.051 35.8729L73.8994 34.123L65.8126 38.2327L66.6345 39.4524L73.051 35.8729Z" fill="url(#paint22_linear_6_31144)"/>
<path d="M58.0968 42.1576L59.4491 43.4833L62.3126 41.8925L60.9869 40.6993L58.0968 42.1576Z" fill="url(#paint23_linear_6_31144)"/>
<path d="M36.5144 53.1333L37.9197 55.5461L49.5859 48.9971L36.5144 53.1333Z" fill="url(#paint24_linear_6_31144)"/>
<path d="M73.0511 35.8758L69.4717 43.3793L72.1496 47.1709L74.7746 34.8948L73.0511 35.8758Z" fill="url(#paint25_linear_6_31144)"/>
<path d="M74.7745 34.8919L73.8995 34.123L73.0511 35.8729L74.7745 34.8919Z" fill="url(#paint26_linear_6_31144)"/>
<path d="M66.634 39.4494L64.3272 40.7486L67.9332 46.6348L69.471 43.3735L66.634 39.4494Z" fill="url(#paint27_linear_6_31144)"/>
<path d="M49.3472 15.1132L48.8435 15.4313L63.5058 39.4002L65.8126 38.2336L49.3472 15.1132Z" fill="url(#paint28_linear_6_31144)"/>
<path d="M65.8126 38.2335L63.5059 39.4002L64.3278 40.7524L66.6346 39.4532L65.8126 38.2335Z" fill="url(#paint29_linear_6_31144)"/>
<path d="M67.9338 46.6346L72.1496 47.1649L69.4716 43.3734L67.9338 46.6346Z" fill="url(#paint30_linear_6_31144)"/>
<path d="M88.1906 42.5819V36.8814H88.8269V42.5819H88.1906ZM96.7547 42.5819H97.391V36.8814H96.7547V42.5819ZM174.123 42.5819H174.76V36.8814H174.123V42.5819ZM192.312 36.8814H191.676V42.5819H192.312V36.8814ZM100.546 39.9305V39.1881C99.9364 39.0025 99.5122 38.8169 99.5122 38.3396C99.5122 37.8624 99.9629 37.4912 100.546 37.4116V36.7753C99.5122 36.8283 98.7963 37.4647 98.7963 38.3131C98.7963 39.4002 99.7243 39.6919 100.546 39.9305ZM100.917 37.4381C101.421 37.4912 101.872 37.6768 102.137 38.0745L102.19 38.1806L102.641 37.6768L102.588 37.6237C102.19 37.173 101.58 36.8813 100.891 36.8283L100.917 37.4381ZM100.546 42.0516C99.8038 41.9986 99.3266 41.5479 99.1145 41.3092L99.0614 41.2032L98.6372 41.7069L98.6902 41.76C99.141 42.3168 99.8303 42.6084 100.599 42.6615V42.0516H100.546ZM100.917 39.3207V40.0631C101.554 40.2752 102.058 40.4873 102.058 41.0706C102.058 41.5213 101.739 42.0251 100.917 42.0516V42.688C102.27 42.6349 102.773 41.7865 102.773 41.0441C102.8 39.8775 101.792 39.5593 100.917 39.3207ZM109.667 36.8814H109.031V42.5819H109.667V36.8814ZM110.038 37.4912H111.072C111.762 37.4912 112.213 37.9419 112.213 38.5517C112.213 39.1616 111.762 39.6123 111.072 39.6123H110.038V40.1956H111.444C112.345 40.0631 112.875 39.4267 112.875 38.4987C112.875 37.4912 112.159 36.7753 111.125 36.7753H110.012C110.038 36.8283 110.038 37.4912 110.038 37.4912ZM111.762 40.6729H110.966L112.213 42.6084H113.061L111.762 40.6729ZM114.148 36.8814H113.353L115.633 40.1691V42.6084H116.322V40.0631L114.148 36.8814ZM116.534 39.7714L118.523 36.9079H117.727L116.163 39.2146L116.534 39.7714ZM84.3726 41.6274L86.3081 36.8814H85.6187L84.0279 40.8055L84.3726 41.6274ZM82.0393 36.8814H81.3499L83.6832 42.5819H84.3726L82.0393 36.8814ZM86.0695 38.5252V42.5819H86.7588V36.8814L86.0695 38.5252ZM80.9257 36.8814V42.5819H81.562V38.4987L80.9257 36.8814ZM151.109 41.6274L152.541 38.101L153.044 36.8814H152.355L150.764 40.8055L151.109 41.6274ZM152.806 38.5252V42.5819H153.495V36.8814L152.806 38.5252ZM148.749 36.8814H148.06L150.393 42.5024L150.42 42.5554H151.109L148.749 36.8814ZM147.662 36.8814V42.5819H148.298V38.4987L147.662 36.8814ZM155.775 36.8814H155.086L155.139 36.9874L157.419 42.5289L157.446 42.5819H158.135L155.775 36.8814ZM158.135 41.6274L159.567 38.101L160.071 36.8814H159.381L157.79 40.8055L158.135 41.6274ZM159.806 38.5252V42.5819H160.495V36.8814L159.806 38.5252ZM154.688 36.8814V42.5819H155.325V38.4987L154.688 36.8814ZM105.054 36.8814H103.622V37.5177H105.054V36.8814ZM106.485 36.8814V37.5177H107.891V36.8814H106.485ZM105.425 42.5819H106.061V36.8814H105.425V42.5819ZM124.197 42.0516C123.083 41.9191 122.341 41.0441 122.341 39.7449C122.341 38.4457 123.083 37.5707 124.197 37.4381V36.8283C122.686 36.9609 121.652 38.1275 121.652 39.7449C121.652 41.3623 122.686 42.5289 124.197 42.6615V42.0516ZM124.595 36.8283V37.4647C125.735 37.5177 126.53 38.4457 126.53 39.7714C126.53 41.0971 125.761 42.0251 124.595 42.1047V42.7145C126.132 42.6615 127.246 41.4683 127.246 39.7979C127.22 38.0745 126.132 36.8813 124.595 36.8283ZM129.394 36.8814V37.5177H132.045V36.8814H129.394ZM128.996 36.8814H128.36V42.5819H128.996V36.8814ZM129.394 39.9835H131.966V39.3472H129.394V39.9835ZM139.867 41.2297L139.814 41.2827C139.469 41.7334 138.965 42.0251 138.382 42.0251V42.6615C139.177 42.6349 139.814 42.3168 140.371 41.6539L140.424 41.5479L139.867 41.2297ZM138.409 37.4116C138.965 37.4381 139.549 37.7298 139.84 38.154L139.893 38.2071L140.45 37.8624L140.397 37.7563C139.893 37.12 139.23 36.8018 138.435 36.7488V37.3851C138.435 37.4116 138.409 37.4116 138.409 37.4116ZM137.984 42.0516C136.844 41.8925 136.075 40.9911 136.075 39.7449C136.075 38.4987 136.844 37.5972 137.984 37.4381V36.8018C136.447 36.9609 135.386 38.154 135.386 39.7184C135.386 41.2827 136.42 42.5024 137.984 42.6349V42.0516ZM143.791 42.0516C142.677 41.9191 141.935 41.0441 141.935 39.7449C141.935 38.4457 142.677 37.5707 143.791 37.4381V36.8283C142.28 36.9609 141.246 38.1275 141.246 39.7449C141.246 41.3623 142.28 42.5289 143.791 42.6615V42.0516ZM144.215 36.8283V37.4647C145.355 37.5177 146.151 38.4457 146.151 39.7714C146.151 41.0971 145.382 42.0251 144.215 42.1047V42.7145C145.753 42.6615 146.867 41.4683 146.867 39.7979C146.814 38.0745 145.753 36.8813 144.215 36.8283ZM196.13 42.0516C195.016 41.9191 194.274 41.0441 194.274 39.7449C194.274 38.4457 195.016 37.5707 196.13 37.4381V36.8283C194.619 36.9609 193.585 38.1275 193.585 39.7449C193.585 41.3623 194.619 42.5289 196.13 42.6615V42.0516ZM196.501 36.8283V37.4647C197.641 37.5177 198.437 38.4457 198.437 39.7714C198.437 41.0971 197.668 42.0251 196.501 42.1047V42.7145C198.039 42.6615 199.153 41.4683 199.153 39.7979C199.153 38.0745 198.092 36.8813 196.501 36.8283ZM164.101 41.9721C163.199 41.9191 162.722 41.3357 162.722 40.3282V36.8548H162.033V40.3547C162.033 41.7334 162.775 42.6084 164.101 42.6615V41.9721ZM165.851 36.8814V40.3547C165.851 41.3357 165.347 41.9191 164.499 41.9986V42.6349C165.798 42.5819 166.54 41.7069 166.54 40.3282V36.8283L165.851 36.8814ZM178.684 42.0516C177.544 41.8925 176.775 40.9911 176.775 39.7449C176.775 38.4987 177.544 37.5972 178.684 37.4381V36.8018C177.146 36.9609 176.085 38.154 176.085 39.7184C176.085 41.2827 177.119 42.5024 178.684 42.6349V42.0516ZM179.055 37.4116C179.612 37.4381 180.195 37.7298 180.487 38.154L180.54 38.2071L181.096 37.8624L181.043 37.7563C180.54 37.12 179.877 36.8018 179.081 36.7488V37.3851C179.081 37.4116 179.055 37.4116 179.055 37.4116ZM180.566 41.2297L180.513 41.2827C180.168 41.7334 179.665 42.0251 179.081 42.0251V42.6615C179.877 42.6349 180.513 42.3168 181.07 41.6539L181.123 41.5479L180.566 41.2297ZM91.2132 36.8814H90.3913L94.4214 42.5819H95.2699L91.2132 36.8814ZM95.1373 41.7335V36.8814H94.501V40.8055L95.1373 41.7335ZM90.4973 37.7298V42.5819H91.1337V38.6578L90.4973 37.7298ZM187.672 36.9079H186.24V37.5442H187.672V36.9079ZM188.759 36.9079H188.07V42.6084H188.706L188.759 36.9079ZM189.13 36.9079V37.5442H190.536V36.9079H189.13ZM172.612 41.76V36.8814H171.976V40.832L172.612 41.76ZM168.661 36.8814H167.866L171.896 42.5819H172.744L168.661 36.8814ZM167.945 37.7298V42.5819H168.582V38.6578L167.945 37.7298ZM201.088 36.8814H200.293L204.323 42.5819H205.171L201.088 36.8814ZM205.039 41.76V36.8814H204.403V40.8055L205.039 41.76ZM200.399 37.7298V42.5819H201.035V38.6578L200.399 37.7298ZM184.888 40.4343H183.536L183.297 41.0706H185.18L184.888 40.4343ZM184.755 37.3056L184.411 38.2071L186.161 42.5554H186.903L184.755 37.3056ZM184.543 36.8814H183.827L181.547 42.4493L181.494 42.6084H182.237L184.543 36.8814Z" fill="#000075"/>
<path d="M208.062 39.9336V39.1912C207.452 39.0056 207.027 38.82 207.027 38.3428C207.027 37.8655 207.478 37.4943 208.062 37.4148V36.7784C207.027 36.8315 206.312 37.4678 206.312 38.3163C206.312 39.4299 207.213 39.695 208.062 39.9336Z" fill="#000075"/>
<path d="M208.406 37.4408C208.91 37.4938 209.36 37.6795 209.625 38.0772L209.678 38.1832L210.129 37.6795L210.103 37.6264C209.705 37.1757 209.095 36.884 208.406 36.831V37.4408Z" fill="#000075"/>
<path d="M208.061 42.0515C207.319 41.9985 206.842 41.5478 206.63 41.3091L206.577 41.2031L206.152 41.7068L206.205 41.7599C206.656 42.3167 207.346 42.6083 208.114 42.6613V42.0515H208.061Z" fill="#000075"/>
<path d="M208.406 39.3164V40.0588C209.042 40.2709 209.546 40.483 209.546 41.0663C209.546 41.5171 209.228 42.0209 208.406 42.0474V42.6837C209.758 42.6307 210.262 41.7822 210.262 41.0398C210.289 39.8732 209.281 39.555 208.406 39.3164Z" fill="#000075"/>
<path d="M101.023 46.19H100.387V51.8906H101.023V46.19Z" fill="#000075"/>
<path d="M141.087 46.19H140.45V51.8906H141.087V46.19Z" fill="#000075"/>
<path d="M206.232 46.19H205.436L207.717 49.4513V51.8906H208.353V49.3452L206.232 46.19Z" fill="#000075"/>
<path d="M208.644 49.0536L210.659 46.19H209.864L208.273 48.4967L208.644 49.0536Z" fill="#000075"/>
<path d="M125.258 46.19H124.595L124.621 46.2961L126.902 51.8375L126.928 51.8906H127.618L125.258 46.19Z" fill="#000075"/>
<path d="M127.644 50.9361L129.076 47.4362L129.579 46.19H128.89L127.299 50.1406L127.644 50.9361Z" fill="#000075"/>
<path d="M124.197 46.19V51.8906H124.833V47.8074L124.197 46.19Z" fill="#000075"/>
<path d="M129.314 47.8604V51.8906H129.977V46.19L129.314 47.8604Z" fill="#000075"/>
<path d="M137.745 46.19H137.109V51.8906H137.745V46.19Z" fill="#000075"/>
<path d="M139.522 46.19H138.117V46.8264H139.522V46.19Z" fill="#000075"/>
<path d="M136.712 46.19H135.28V46.8264H136.712V46.19Z" fill="#000075"/>
<path d="M115.262 51.3315C114.148 51.199 113.406 50.324 113.406 49.0248C113.406 47.7256 114.148 46.8506 115.262 46.718V46.1082C113.75 46.2408 112.716 47.4074 112.716 49.0248C112.716 50.6421 113.75 51.8088 115.262 51.9413V51.3315Z" fill="#000075"/>
<path d="M115.659 46.1083V46.7446C116.799 46.7977 117.595 47.7257 117.595 49.0514C117.595 50.3771 116.826 51.3051 115.659 51.3846V51.9944C117.197 51.9414 118.311 50.7483 118.311 49.0779C118.258 47.3544 117.197 46.1613 115.659 46.1083Z" fill="#000075"/>
<path d="M144.719 51.3316C143.605 51.199 142.863 50.324 142.863 49.0248C142.863 47.7256 143.605 46.8507 144.719 46.7181V46.1083C143.208 46.2408 142.174 47.4075 142.174 49.0248C142.174 50.6422 143.208 51.8088 144.719 51.9414V51.3316Z" fill="#000075"/>
<path d="M145.117 46.1083V46.7446C146.257 46.7977 147.052 47.7257 147.052 49.0514C147.052 50.3771 146.283 51.3051 145.117 51.3846V51.9944C146.655 51.9414 147.768 50.7483 147.768 49.0779C147.768 47.434 146.681 46.1613 145.117 46.1083Z" fill="#000075"/>
<path d="M165.188 48.6529H162.616V49.2892H165.188V48.6529Z" fill="#000075"/>
<path d="M165.267 51.2551H162.616V51.8914H165.267V51.2551Z" fill="#000075"/>
<path d="M83.7892 46.6385L83.418 47.54L85.1414 51.8884H85.9103L83.7892 46.6385Z" fill="#000075"/>
<path d="M83.8948 49.7703H82.5161L82.251 50.4331H84.16L83.8948 49.7703Z" fill="#000075"/>
<path d="M83.5507 46.19H82.8349L80.5546 51.758L80.5281 51.8906H81.2705L83.5507 46.19Z" fill="#000075"/>
<path d="M91.1865 51.0421V46.19H90.5501V50.1406L91.1865 51.0421Z" fill="#000075"/>
<path d="M87.2362 46.19H86.4408L90.4444 51.8906H91.3194L87.2362 46.19Z" fill="#000075"/>
<path d="M86.5468 47.0383V51.8904H87.2362V47.9398L86.5468 47.0383Z" fill="#000075"/>
<path d="M148.776 47.0627V51.8883H149.438V47.9907L148.776 47.0627Z" fill="#000075"/>
<path d="M153.442 51.0951V46.19H152.779V50.1406L153.442 51.0951Z" fill="#000075"/>
<path d="M152.673 51.8906H153.548L149.438 46.19H148.669L152.646 51.8641L152.673 51.8906Z" fill="#000075"/>
<path d="M182.581 51.0421V46.19H181.865V50.1406L182.581 51.0421Z" fill="#000075"/>
<path d="M178.577 46.19H177.782L181.785 51.8906H182.66L178.577 46.19Z" fill="#000075"/>
<path d="M177.915 47.0628V51.8884H178.551V47.9908L177.915 47.0628Z" fill="#000075"/>
<path d="M106.963 51.0421V46.19H106.3V50.1406L106.963 51.0421Z" fill="#000075"/>
<path d="M102.323 47.0627V51.8883H102.959V47.9907L102.323 47.0627Z" fill="#000075"/>
<path d="M106.22 51.8906H107.095L103.012 46.19H102.163L106.194 51.8641L106.22 51.8906Z" fill="#000075"/>
<path d="M93.1222 46.19H92.4859V51.8906H93.1222V46.19Z" fill="#000075"/>
<path d="M94.3687 46.19H93.5732V46.8264H94.3687C95.6944 46.8264 96.5428 47.6748 96.5428 49.0005C96.5428 50.3262 95.6944 51.2807 94.3687 51.2807H93.5732V51.9171H94.3687C96.0921 51.9171 97.2587 50.7505 97.2587 49.0005C97.2322 47.3301 96.0921 46.19 94.3687 46.19Z" fill="#000075"/>
<path d="M108.871 46.19H108.235V51.8906H108.871V46.19Z" fill="#000075"/>
<path d="M111.947 46.19H109.296V46.8264H111.947V46.19Z" fill="#000075"/>
<path d="M111.868 48.6529H109.296V49.2892H111.868V48.6529Z" fill="#000075"/>
<path d="M120.22 46.8242H121.254C121.943 46.8242 122.394 47.2749 122.394 47.8847C122.394 48.4946 121.943 48.9453 121.254 48.9453H120.22V49.5286H121.625C122.527 49.396 123.057 48.7597 123.057 47.8317C123.057 46.8242 122.341 46.1083 121.307 46.1083H120.193C120.22 46.1348 120.22 46.8242 120.22 46.8242Z" fill="#000075"/>
<path d="M121.917 49.9519H121.121L122.421 51.8874H123.243L121.917 49.9519Z" fill="#000075"/>
<path d="M119.822 46.19H119.185V51.8906H119.822V46.19Z" fill="#000075"/>
<path d="M134.113 49.7703H132.761L132.469 50.4331H134.352L134.113 49.7703Z" fill="#000075"/>
<path d="M134.007 46.6385L133.662 47.5135L135.386 51.8884H136.102L134.007 46.6385Z" fill="#000075"/>
<path d="M133.742 46.19H133.079L130.799 51.758L130.666 51.8906H131.461L133.742 46.19Z" fill="#000075"/>
<path d="M175.555 49.2657V48.6558H172.638V46.19H172.002V49.2657H175.555Z" fill="#000075"/>
<path d="M172.638 49.6569H172.002V51.9106H172.638V49.6569Z" fill="#000075"/>
<path d="M202.971 46.7436C203.554 46.7701 204.111 47.0618 204.403 47.486L204.456 47.539L205.012 47.1944L204.959 47.0883C204.456 46.4519 203.766 46.1073 202.971 46.0807V46.7436Z" fill="#000075"/>
<path d="M202.573 49.4788H205.065V48.922H202.573V49.4788Z" fill="#000075"/>
<path d="M204.429 49.87V50.7185C204.111 51.0631 203.58 51.3018 202.997 51.3283V51.9646C203.846 51.9381 204.535 51.6199 205.065 51.0366L205.092 51.0101V49.87H204.429Z" fill="#000075"/>
<path d="M202.573 51.3306C201.433 51.1715 200.69 50.27 200.69 49.0238C200.69 47.7777 201.459 46.8762 202.573 46.7171V46.0807C201.035 46.2398 200.001 47.433 200.001 48.9973C200.001 50.5617 201.035 51.7548 202.573 51.9139V51.3306Z" fill="#000075"/>
<path d="M193.505 51.2551H191.225V51.8914H193.505V51.2551Z" fill="#000075"/>
<path d="M158.851 46.19H158.215V51.8906H158.851V46.19Z" fill="#000075"/>
<path d="M160.654 46.19H159.248V46.8264H160.654V46.19Z" fill="#000075"/>
<path d="M157.87 46.19H156.438V46.8264H157.87V46.19Z" fill="#000075"/>
<path d="M162.218 46.19H161.582V51.8906H162.218V46.19Z" fill="#000075"/>
<path d="M165.188 48.6529H162.616V49.2892H165.188V48.6529Z" fill="#000075"/>
<path d="M165.188 46.19H162.616V46.8264H165.188V46.19Z" fill="#000075"/>
<path d="M176.589 46.19H175.953V51.8906H176.589V46.19Z" fill="#000075"/>
<path d="M190.774 46.19H190.137V51.8906H190.774V46.19Z" fill="#000075"/>
<path d="M196.13 51.3315C195.016 51.199 194.274 50.324 194.274 49.0248C194.274 47.7256 195.016 46.8506 196.13 46.718V46.1082C194.619 46.2408 193.585 47.4074 193.585 49.0248C193.585 50.6421 194.619 51.8088 196.13 51.9413V51.3315Z" fill="#000075"/>
<path d="M196.501 46.1082V46.7446C197.641 46.7976 198.437 47.7256 198.437 49.0513C198.437 50.377 197.668 51.305 196.501 51.3846V51.9944C198.039 51.9414 199.153 50.7482 199.153 49.0778C199.153 47.3544 198.066 46.1612 196.501 46.1082Z" fill="#000075"/>
<path d="M186.134 51.3315C185.021 51.199 184.278 50.324 184.278 49.0248C184.278 47.7256 185.021 46.8506 186.134 46.718V46.1082C184.623 46.2408 183.589 47.4074 183.589 49.0248C183.589 50.6421 184.623 51.8088 186.134 51.9413V51.3315Z" fill="#000075"/>
<path d="M186.532 46.1083V46.7446C187.672 46.7977 188.467 47.7257 188.467 49.0514C188.467 50.3771 187.699 51.3051 186.532 51.3846V51.9944C188.07 51.9414 189.183 50.7483 189.183 49.0779C189.157 47.3544 188.07 46.1613 186.532 46.1083Z" fill="#000075"/>
<path d="M168.741 51.3306C167.601 51.1715 166.832 50.27 166.832 49.0238C166.832 47.7777 167.601 46.8762 168.741 46.7171V46.0807C167.203 46.2398 166.142 47.433 166.142 48.9973C166.142 50.5617 167.176 51.7813 168.741 51.9139V51.3306Z" fill="#000075"/>
<path d="M169.112 46.7436C169.669 46.7701 170.252 47.0618 170.544 47.486L170.597 47.539L171.154 47.1944L171.101 47.0883C170.597 46.4519 169.934 46.1338 169.139 46.0807V46.7171C169.139 46.7436 169.112 46.7436 169.112 46.7436Z" fill="#000075"/>
<path d="M170.597 50.5352L170.544 50.5882C170.199 51.039 169.696 51.3306 169.112 51.3306V51.967C169.908 51.9405 170.544 51.6223 171.101 50.9594L171.154 50.8534L170.597 50.5352Z" fill="#000075"/>
<path d="M149.226 18.1135C149.412 18.3521 149.465 18.6438 149.465 19.068V20.4202H150.101V18.9885C150.101 18.4582 149.942 18.0074 149.677 17.6893C149.306 17.2385 148.882 17.0794 148.272 17.0794H145.355V17.7158H148.351C148.723 17.7158 149.041 17.9014 149.226 18.1135ZM171.419 16.4696H170.782V20.4733H171.419V16.4696ZM185.869 25.7761H185.233V29.7267H185.869V25.7761ZM170.57 15.0644H169.881V16.0189H170.57V15.0644ZM180.884 15.0378H180.248V21.5073H180.884V15.0378ZM175.263 21.5073C176.112 21.5073 176.801 21.3217 177.305 20.924C177.835 20.5528 177.994 19.8634 177.994 19.3862V15.0644H177.358V19.3066C177.358 19.8634 177.199 20.2346 176.854 20.4733C176.51 20.7119 176.059 20.8445 175.529 20.8445H172.957L173.01 21.4808L175.263 21.5073ZM175.29 15.9658H174.654V20.4202H175.29V15.9658ZM91.5049 15.9658H90.8686V20.4202H91.5049V15.9658ZM139.602 27.0488L139.655 26.9427L139.602 26.8897C139.469 26.7836 139.363 26.7041 139.231 26.5981L139.178 26.545L137.852 29.7532H138.568L139.602 27.0488ZM145.037 16.4431H144.401V20.4467H145.037V16.4431ZM134.644 26.5981C134.484 26.7041 134.405 26.8102 134.272 26.9162L134.219 26.9692L135.333 29.7532H136.075L134.75 26.545L134.644 26.5981ZM130.826 29.7532V24.3974H130.189V29.7002H130.826V29.7532ZM138.515 26.9692L138.753 26.3594C138.117 26.0147 137.507 25.8026 136.897 25.8026C136.314 25.8026 135.678 26.0147 135.041 26.3594L135.28 26.9692C135.81 26.6246 136.314 26.439 136.871 26.439C137.454 26.4655 138.064 26.6776 138.515 26.9692ZM165.586 25.3519V24.3974H164.896V25.3519H165.586ZM97.1524 15.0378H96.5161V20.4202H97.1524V15.0378ZM171.419 20.8179H96.4896V21.4543H171.419V20.8179ZM172.188 15.0644H171.498V16.0189H172.188V15.0644ZM198.278 29.7532H198.914V25.8026H198.278V29.7532ZM198.914 24.3708H198.225V25.3254H198.914V24.3708ZM203.421 25.3519V24.3974H202.732V25.3519H203.421ZM200.107 15.0378H199.471V21.5073H200.107V15.0378ZM202.653 23.0982C203.793 23.0982 203.952 22.1967 203.952 21.4013V16.4431H203.315V21.4013C203.315 22.0111 203.209 22.4088 202.732 22.4088C202.626 22.4088 202.547 22.3823 202.44 22.3558L202.308 22.3027L202.069 22.9126L202.202 22.9656C202.308 23.0717 202.493 23.0982 202.653 23.0982ZM209.122 21.5073L209.149 20.871H208.91C207.266 20.871 206.736 19.8634 206.736 19.015C206.736 17.8749 207.876 17.159 208.91 17.159H209.149V16.5226H209.122C207.24 16.5226 206.02 17.5037 206.02 19.0415C206.02 20.5793 207.16 21.5073 209.122 21.5073ZM203.952 15.0909H203.262V16.0454H203.952V15.0909ZM191.941 21.5073L191.967 20.871H191.676C190.43 20.871 189.528 20.1286 189.528 19.015C189.528 17.9014 190.642 17.159 191.676 17.159H191.967V16.5226H191.941C190.111 16.5226 188.892 17.5567 188.892 19.0415C188.918 20.2081 189.714 21.5073 191.941 21.5073ZM195.52 23.0982C196.66 23.0982 196.819 22.1967 196.819 21.4013V16.4431H196.183V21.4013C196.183 22.0111 196.077 22.4088 195.6 22.4088C195.494 22.4088 195.414 22.3823 195.308 22.3558L195.176 22.3027L194.937 22.9126L195.07 22.9656C195.176 23.0717 195.361 23.0982 195.52 23.0982ZM193.028 21.5073V16.4696H192.392V21.5073H193.028ZM191.039 29.7532V25.8026H190.403V29.7532H191.039ZM191.411 15.0909H190.721V16.0454H191.411V15.0909ZM193.028 15.0909H192.365V16.0454H193.054V15.0909H193.028ZM196.634 25.3784H197.323V24.4239H196.634V25.3784ZM196.024 29.7798C195.679 29.4351 195.335 28.9843 195.335 28.348C195.335 27.1548 196.395 26.492 197.456 26.492H197.907V25.8556H197.694C195.838 25.8556 194.645 26.8102 194.645 28.3745C194.645 28.9313 194.804 29.4086 195.096 29.8063L196.024 29.7798ZM191.039 24.3974H190.35V25.3519H191.039V24.3974ZM163.12 28.295C163.12 29.5146 163.915 30.8138 166.169 30.8138H166.196V30.1775H165.957C164.711 30.1775 163.809 29.4351 163.809 28.3215C163.809 27.2079 164.923 26.4655 165.957 26.4655H166.196V25.8291H166.169C164.393 25.7761 163.12 26.8367 163.12 28.295ZM184.305 32.4577H184.994V31.5032H184.305V32.4577ZM154.158 30.8138H154.794V24.4239H154.158V30.8138ZM166.567 25.3784H167.256V24.4239H166.567V25.3784ZM166.567 30.8138H167.203V25.8026H166.567V30.8138ZM147.397 30.1775C147.423 30.1244 147.45 30.0449 147.45 29.9919C147.45 29.9654 147.476 29.9388 147.476 29.9388L147.503 29.8858C147.529 29.8328 147.556 29.7798 147.556 29.7267C147.609 29.4881 147.689 29.1964 147.689 28.9313C147.689 28.401 147.529 27.9238 147.317 27.4995C147.079 27.0753 146.681 26.7306 146.204 26.5185C145.886 26.3594 145.567 26.3064 145.223 26.2799V26.9162C146.257 27.0488 147.052 27.8442 147.052 28.9578C147.052 30.0714 146.31 30.8403 145.223 30.9464V31.5827C145.594 31.5562 145.965 31.4501 146.257 31.2911H146.283C146.283 31.2911 146.31 31.2645 146.336 31.2645L146.389 31.238C146.442 31.2115 146.495 31.185 146.548 31.132L146.601 31.1055C146.655 31.0524 146.734 31.0524 146.761 30.9729C146.814 30.9464 146.814 30.9199 146.893 30.8668L146.92 30.8403L146.973 30.7873C147.132 30.6282 147.264 30.4426 147.37 30.257L147.397 30.1775ZM151.241 29.7798H151.878V24.4239H151.241V29.7798ZM147.768 30.204C147.662 30.3631 147.609 30.5487 147.476 30.6547L147.37 30.8138H151.878V30.1775H147.768V30.204ZM209.52 30.7608V30.8138C209.52 30.8138 209.493 30.8668 209.493 30.9199C209.44 31.4767 209.042 31.8214 208.3 31.8214C207.849 31.8214 207.478 31.6357 207.08 31.4236L206.948 31.3706L206.63 31.9539L206.762 32.0069C207.213 32.2456 207.664 32.4577 208.274 32.4577C209.44 32.4577 210.209 31.8214 210.209 30.7873V25.8291H209.52V30.7608ZM209.122 30.8138L209.149 30.1775H208.91C207.266 30.1775 206.736 29.1964 206.736 28.3215C206.736 27.1814 207.876 26.4655 208.91 26.4655H209.149V25.8291H209.122C207.24 25.8291 206.02 26.8102 206.02 28.348C206.02 29.8593 207.16 30.8138 209.122 30.8138ZM185.949 32.4577H186.638V31.5032H185.949V32.4577ZM209.52 16.4696V21.5338H209.493C209.44 22.0906 209.042 22.4353 208.3 22.4353C207.849 22.4353 207.478 22.2497 207.08 22.0376L206.948 21.9846L206.63 22.5679L206.762 22.6209C207.213 22.8595 207.664 23.0717 208.274 23.0717C209.44 23.0717 210.209 22.4353 210.209 21.3747V16.4166L209.52 16.4696ZM167.601 30.8138H204.27V30.1775H167.601V30.8138ZM204.376 25.3784H205.065V24.4239H204.376V25.3784ZM203.634 29.7798H204.27V25.8291H203.634V29.7798ZM84.9029 24.3974V25.3519H85.5922V24.3974H84.9029ZM82.0658 20.4733C81.7212 20.2346 81.5621 19.8634 81.5621 19.3066V17.3711H80.9257V19.4127C80.9257 19.8634 81.1113 20.5793 81.6151 20.9505C82.1719 21.3747 82.6757 21.5338 83.6567 21.5338H88.1111V20.8975H83.365C82.8613 20.8445 82.4105 20.7119 82.0658 20.4733ZM85.5657 15.0909H84.8764V16.0454H85.5657V15.0909ZM87.4217 29.7798H88.0581V25.8291H87.4217V29.7798ZM87.4482 20.4733H88.0846V16.4696H87.4482V20.4733ZM83.9484 15.0909H83.2325V16.0454H83.9218V15.0909H83.9484ZM83.9484 24.3974H83.2325V25.3519H83.9218V24.3974H83.9484ZM93.4935 20.924C94.0238 20.5528 94.1829 19.8634 94.1829 19.3862V15.0644H93.5465V19.3066C93.5465 19.8634 93.3874 20.2346 93.0427 20.4733C92.7511 20.6854 92.3269 20.8179 91.8761 20.8445H89.1451L89.1982 21.4808H91.4519C92.3269 21.5073 92.9897 21.3217 93.4935 20.924ZM82.0658 29.7798C81.7212 29.5411 81.5621 29.1699 81.5621 28.6131V26.6776H80.9257V28.7192C80.9257 29.1699 81.1113 29.8593 81.6151 30.257C82.1719 30.6812 82.6757 30.8403 83.6567 30.8403H88.0846V30.204H83.3916C82.8613 30.1775 82.4105 30.0449 82.0658 29.7798ZM118.046 30.8138L118.072 30.1775H117.781C116.137 30.1775 115.606 29.1964 115.606 28.3215C115.606 27.1814 116.746 26.4655 117.781 26.4655H118.072V25.8291H118.046C116.163 25.8291 114.943 26.8102 114.943 28.348C114.943 29.8858 116.11 30.8138 118.046 30.8138ZM118.47 30.7608V30.8668C118.417 31.4501 117.966 31.7948 117.25 31.7948C116.799 31.7948 116.428 31.6092 116.031 31.3971L115.898 31.3441L115.58 31.9274L115.712 31.9804C116.163 32.2191 116.614 32.4312 117.224 32.4312C118.178 32.4312 119.159 32.2721 119.159 31.132V25.8291H118.523L118.47 30.7608ZM90.5504 29.7532V24.3974H89.9141V29.7002H90.5504V29.7532ZM142.704 27.6851C142.518 28.0828 142.412 28.5071 142.412 28.9313C142.412 30.3631 143.473 31.5032 144.878 31.5827V30.8934C143.871 30.8403 143.049 29.9388 143.049 28.9048C143.049 27.8707 143.817 26.9692 144.878 26.8632V26.2268C144.692 26.2268 144.48 26.2534 144.321 26.3329C143.605 26.5185 143.022 26.9958 142.704 27.6851ZM142.306 30.204L142.28 30.151H119.504V30.7873H142.704L142.571 30.6282C142.518 30.5222 142.439 30.3896 142.306 30.204ZM108.58 30.204L108.554 30.151H89.861V30.7873H108.978L108.872 30.6282C108.792 30.5222 108.713 30.3366 108.58 30.204ZM112.504 26.4655C112.186 26.3064 111.868 26.2534 111.523 26.2268V26.8632C112.557 26.9958 113.353 27.7912 113.353 28.9048C113.353 30.0184 112.61 30.7873 111.523 30.8934V31.5297C111.894 31.5032 112.266 31.3971 112.557 31.238H112.584C112.584 31.238 112.61 31.2115 112.637 31.2115L112.663 31.185C112.716 31.1585 112.796 31.132 112.822 31.079C112.822 31.079 112.849 31.0524 112.875 31.0524C112.928 30.9994 113.008 30.9994 113.034 30.9199C113.087 30.8934 113.088 30.8668 113.194 30.7873L113.247 30.7343C113.406 30.5752 113.538 30.3896 113.644 30.204L113.697 30.0449C113.724 29.9919 113.75 29.9123 113.75 29.8593C113.75 29.8328 113.777 29.8063 113.777 29.8063L113.803 29.7798C113.83 29.7267 113.856 29.6737 113.856 29.6207C113.909 29.382 113.989 29.0904 113.989 28.8252C113.989 28.295 113.83 27.8177 113.618 27.3935C113.353 27.0488 112.981 26.7041 112.504 26.4655ZM108.978 27.6851C108.792 28.0828 108.686 28.5071 108.686 28.9313C108.686 30.3631 109.747 31.5032 111.152 31.5827V30.8934C110.144 30.8403 109.322 29.9388 109.322 28.9048C109.322 27.8707 110.091 26.9692 111.152 26.8632V26.2268C110.966 26.2268 110.754 26.2534 110.595 26.3329C109.906 26.5185 109.296 26.9958 108.978 27.6851Z" fill="#000075"/>
</g>
<defs>
<linearGradient id="paint0_linear_6_31144" x1="-18.8037" y1="-25.8366" x2="50.3597" y2="58.9713" gradientUnits="userSpaceOnUse">
<stop stop-color="#00C200"/>
<stop offset="0.04" stop-color="#00C100"/>
<stop offset="0.1" stop-color="#00BD00"/>
<stop offset="0.17" stop-color="#00B704"/>
<stop offset="0.24" stop-color="#00AF52"/>
<stop offset="0.32" stop-color="#00A58C"/>
<stop offset="0.38" stop-color="#009CBD"/>
<stop offset="1" stop-color="#002375"/>
</linearGradient>
<linearGradient id="paint1_linear_6_31144" x1="-1.00829" y1="-35.7397" x2="62.53" y2="42.1643" gradientUnits="userSpaceOnUse">
<stop stop-color="#00C200"/>
<stop offset="0.04" stop-color="#00C100"/>
<stop offset="0.1" stop-color="#00BD00"/>
<stop offset="0.17" stop-color="#00B704"/>
<stop offset="0.24" stop-color="#00AF52"/>
<stop offset="0.32" stop-color="#00A58C"/>
<stop offset="0.38" stop-color="#009CBD"/>
<stop offset="1" stop-color="#002375"/>
</linearGradient>
<linearGradient id="paint2_linear_6_31144" x1="-6.57288" y1="-31.1949" x2="56.9561" y2="46.6997" gradientUnits="userSpaceOnUse">
<stop stop-color="#00C200"/>
<stop offset="0.04" stop-color="#00C100"/>
<stop offset="0.1" stop-color="#00BD00"/>
<stop offset="0.17" stop-color="#00B704"/>
<stop offset="0.24" stop-color="#00AF52"/>
<stop offset="0.32" stop-color="#00A58C"/>
<stop offset="0.38" stop-color="#009CBD"/>
<stop offset="1" stop-color="#002375"/>
</linearGradient>
<linearGradient id="paint3_linear_6_31144" x1="-17.7396" y1="34.443" x2="58.0012" y2="-1.93951" gradientUnits="userSpaceOnUse">
<stop stop-color="#00C200"/>
<stop offset="0.4" stop-color="#009CBD"/>
<stop offset="0.52" stop-color="#0086AF"/>
<stop offset="0.78" stop-color="#004E8E"/>
<stop offset="0.95" stop-color="#002375"/>
</linearGradient>
<linearGradient id="paint4_linear_6_31144" x1="-15.9064" y1="38.26" x2="59.8343" y2="1.87742" gradientUnits="userSpaceOnUse">
<stop stop-color="#00C200"/>
<stop offset="0.4" stop-color="#009CBD"/>
<stop offset="0.52" stop-color="#0086AF"/>
<stop offset="0.78" stop-color="#004E8E"/>
<stop offset="0.95" stop-color="#002375"/>
</linearGradient>
<linearGradient id="paint5_linear_6_31144" x1="-19.3045" y1="31.1907" x2="56.4455" y2="-5.19188" gradientUnits="userSpaceOnUse">
<stop stop-color="#00C200"/>
<stop offset="0.4" stop-color="#009CBD"/>
<stop offset="0.52" stop-color="#0086AF"/>
<stop offset="0.78" stop-color="#004E8E"/>
<stop offset="0.95" stop-color="#002375"/>
</linearGradient>
<linearGradient id="paint6_linear_6_31144" x1="-15.2469" y1="39.6188" x2="60.4938" y2="3.23629" gradientUnits="userSpaceOnUse">
<stop stop-color="#00C200"/>
<stop offset="0.4" stop-color="#009CBD"/>
<stop offset="0.52" stop-color="#0086AF"/>
<stop offset="0.78" stop-color="#004E8E"/>
<stop offset="0.95" stop-color="#002375"/>
</linearGradient>
<linearGradient id="paint7_linear_6_31144" x1="-10.7078" y1="51.0086" x2="66.9834" y2="13.691" gradientUnits="userSpaceOnUse">
<stop stop-color="#00C200"/>
<stop offset="0.4" stop-color="#009CBD"/>
<stop offset="0.5" stop-color="#0082AD"/>
<stop offset="0.73" stop-color="#00508F"/>
<stop offset="0.9" stop-color="#002F7C"/>
<stop offset="1" stop-color="#002375"/>
</linearGradient>
<linearGradient id="paint8_linear_6_31144" x1="-21.0393" y1="29.5039" x2="56.652" y2="-7.81367" gradientUnits="userSpaceOnUse">
<stop stop-color="#00C200"/>
<stop offset="0.4" stop-color="#009CBD"/>
<stop offset="0.5" stop-color="#0082AD"/>
<stop offset="0.73" stop-color="#00508F"/>
<stop offset="0.9" stop-color="#002F7C"/>
<stop offset="1" stop-color="#002375"/>
</linearGradient>
<linearGradient id="paint9_linear_6_31144" x1="-1.39832" y1="-32.0088" x2="56.727" y2="72.3326" gradientUnits="userSpaceOnUse">
<stop offset="0.17" stop-color="#009CBD"/>
<stop offset="0.29" stop-color="#0096B9"/>
<stop offset="0.46" stop-color="#0083AE"/>
<stop offset="0.66" stop-color="#00679D"/>
<stop offset="0.88" stop-color="#003E84"/>
<stop offset="1" stop-color="#002375"/>
</linearGradient>
<linearGradient id="paint10_linear_6_31144" x1="-6.5463" y1="-29.1469" x2="51.5789" y2="75.1945" gradientUnits="userSpaceOnUse">
<stop offset="0.17" stop-color="#009CBD"/>
<stop offset="0.29" stop-color="#0096B9"/>
<stop offset="0.46" stop-color="#0083AE"/>
<stop offset="0.66" stop-color="#00679D"/>
<stop offset="0.88" stop-color="#003E84"/>
<stop offset="1" stop-color="#002375"/>
</linearGradient>
<linearGradient id="paint11_linear_6_31144" x1="-2.14411" y1="-31.5995" x2="55.981" y2="72.7419" gradientUnits="userSpaceOnUse">
<stop offset="0.17" stop-color="#009CBD"/>
<stop offset="0.29" stop-color="#0096B9"/>
<stop offset="0.46" stop-color="#0083AE"/>
<stop offset="0.66" stop-color="#00679D"/>
<stop offset="0.88" stop-color="#003E84"/>
<stop offset="1" stop-color="#002375"/>
</linearGradient>
<linearGradient id="paint12_linear_6_31144" x1="-13.098" y1="-25.4967" x2="45.0272" y2="78.8447" gradientUnits="userSpaceOnUse">
<stop offset="0.17" stop-color="#009CBD"/>
<stop offset="0.29" stop-color="#0096B9"/>
<stop offset="0.46" stop-color="#0083AE"/>
<stop offset="0.66" stop-color="#00679D"/>
<stop offset="0.88" stop-color="#003E84"/>
<stop offset="1" stop-color="#002375"/>
</linearGradient>
<linearGradient id="paint13_linear_6_31144" x1="76.3423" y1="51.5131" x2="-32.6286" y2="-30.2889" gradientUnits="userSpaceOnUse">
<stop stop-color="#00C200"/>
<stop offset="0.34" stop-color="#009CBD"/>
<stop offset="1" stop-color="#002375"/>
</linearGradient>
<linearGradient id="paint14_linear_6_31144" x1="78.3726" y1="48.8094" x2="-30.5889" y2="-32.9926" gradientUnits="userSpaceOnUse">
<stop stop-color="#00C200"/>
<stop offset="0.34" stop-color="#009CBD"/>
<stop offset="1" stop-color="#002375"/>
</linearGradient>
<linearGradient id="paint15_linear_6_31144" x1="74.9024" y1="53.4272" x2="-34.059" y2="-28.3747" gradientUnits="userSpaceOnUse">
<stop stop-color="#00C200"/>
<stop offset="0.34" stop-color="#009CBD"/>
<stop offset="1" stop-color="#002375"/>
</linearGradient>
<linearGradient id="paint16_linear_6_31144" x1="77.9362" y1="49.3865" x2="-31.0254" y2="-32.4154" gradientUnits="userSpaceOnUse">
<stop stop-color="#00C200"/>
<stop offset="0.34" stop-color="#009CBD"/>
<stop offset="1" stop-color="#002375"/>
</linearGradient>
<linearGradient id="paint17_linear_6_31144" x1="78.5786" y1="48.5301" x2="-30.3829" y2="-33.2719" gradientUnits="userSpaceOnUse">
<stop stop-color="#00C200"/>
<stop offset="0.34" stop-color="#009CBD"/>
<stop offset="1" stop-color="#002375"/>
</linearGradient>
<linearGradient id="paint18_linear_6_31144" x1="74.7383" y1="41.1016" x2="-9.26425" y2="76.3773" gradientUnits="userSpaceOnUse">
<stop stop-color="#00C200"/>
<stop offset="0.22" stop-color="#009CBD"/>
<stop offset="1" stop-color="#002375"/>
</linearGradient>
<linearGradient id="paint19_linear_6_31144" x1="74.9529" y1="41.6053" x2="-9.04953" y2="76.8902" gradientUnits="userSpaceOnUse">
<stop stop-color="#00C200"/>
<stop offset="0.22" stop-color="#009CBD"/>
<stop offset="1" stop-color="#002375"/>
</linearGradient>
<linearGradient id="paint20_linear_6_31144" x1="79.3431" y1="34.8726" x2="-18.6739" y2="76.04" gradientUnits="userSpaceOnUse">
<stop stop-color="#00C200"/>
<stop offset="0.26" stop-color="#009CBD"/>
<stop offset="0.27" stop-color="#0099BB"/>
<stop offset="0.51" stop-color="#00679D"/>
<stop offset="0.72" stop-color="#004287"/>
<stop offset="0.89" stop-color="#002B7A"/>
<stop offset="1" stop-color="#002375"/>
</linearGradient>
<linearGradient id="paint21_linear_6_31144" x1="78.9494" y1="33.9178" x2="-19.077" y2="75.0944" gradientUnits="userSpaceOnUse">
<stop stop-color="#00C200"/>
<stop offset="0.26" stop-color="#009CBD"/>
<stop offset="0.27" stop-color="#0099BB"/>
<stop offset="0.51" stop-color="#00679D"/>
<stop offset="0.72" stop-color="#004287"/>
<stop offset="0.89" stop-color="#002B7A"/>
<stop offset="1" stop-color="#002375"/>
</linearGradient>
<linearGradient id="paint22_linear_6_31144" x1="78.6694" y1="33.2485" x2="-19.357" y2="74.4251" gradientUnits="userSpaceOnUse">
<stop stop-color="#00C200"/>
<stop offset="0.26" stop-color="#009CBD"/>
<stop offset="0.27" stop-color="#0099BB"/>
<stop offset="0.51" stop-color="#00679D"/>
<stop offset="0.72" stop-color="#004287"/>
<stop offset="0.89" stop-color="#002B7A"/>
<stop offset="1" stop-color="#002375"/>
</linearGradient>
<linearGradient id="paint23_linear_6_31144" x1="79.0568" y1="34.1804" x2="-18.9601" y2="75.357" gradientUnits="userSpaceOnUse">
<stop stop-color="#00C200"/>
<stop offset="0.26" stop-color="#009CBD"/>
<stop offset="0.27" stop-color="#0099BB"/>
<stop offset="0.51" stop-color="#00679D"/>
<stop offset="0.72" stop-color="#004287"/>
<stop offset="0.89" stop-color="#002B7A"/>
<stop offset="1" stop-color="#002375"/>
</linearGradient>
<linearGradient id="paint24_linear_6_31144" x1="79.9848" y1="36.3787" x2="-18.0415" y2="77.5554" gradientUnits="userSpaceOnUse">
<stop stop-color="#00C200"/>
<stop offset="0.26" stop-color="#009CBD"/>
<stop offset="0.27" stop-color="#0099BB"/>
<stop offset="0.51" stop-color="#00679D"/>
<stop offset="0.72" stop-color="#004287"/>
<stop offset="0.89" stop-color="#002B7A"/>
<stop offset="1" stop-color="#002375"/>
</linearGradient>
<linearGradient id="paint25_linear_6_31144" x1="81.0706" y1="37.8297" x2="-27.2379" y2="83.3256" gradientUnits="userSpaceOnUse">
<stop stop-color="#00C200"/>
<stop offset="0.34" stop-color="#009CBD"/>
<stop offset="1" stop-color="#002375"/>
</linearGradient>
<linearGradient id="paint26_linear_6_31144" x1="78.9218" y1="32.7065" x2="-29.3869" y2="78.2023" gradientUnits="userSpaceOnUse">
<stop stop-color="#00C200"/>
<stop offset="0.34" stop-color="#009CBD"/>
<stop offset="1" stop-color="#002375"/>
</linearGradient>
<linearGradient id="paint27_linear_6_31144" x1="80.4086" y1="37.522" x2="-26.7243" y2="82.5184" gradientUnits="userSpaceOnUse">
<stop stop-color="#00C200"/>
<stop offset="0.31" stop-color="#009CBD"/>
<stop offset="1" stop-color="#002375"/>
</linearGradient>
<linearGradient id="paint28_linear_6_31144" x1="73.1391" y1="20.2357" x2="-33.9938" y2="65.2322" gradientUnits="userSpaceOnUse">
<stop stop-color="#00C200"/>
<stop offset="0.31" stop-color="#009CBD"/>
<stop offset="1" stop-color="#002375"/>
</linearGradient>
<linearGradient id="paint29_linear_6_31144" x1="78.81" y1="33.7305" x2="-28.3228" y2="78.7362" gradientUnits="userSpaceOnUse">
<stop stop-color="#00C200"/>
<stop offset="0.31" stop-color="#009CBD"/>
<stop offset="1" stop-color="#002375"/>
</linearGradient>
<linearGradient id="paint30_linear_6_31144" x1="81.7294" y1="40.6698" x2="-25.4035" y2="85.6662" gradientUnits="userSpaceOnUse">
<stop stop-color="#00C200"/>
<stop offset="0.31" stop-color="#009CBD"/>
<stop offset="1" stop-color="#002375"/>
</linearGradient>
<clipPath id="clip0_6_31144">
<rect width="212.666" height="58" fill="white" transform="translate(0.666878)"/>
</clipPath>
</defs>
</svg>
