<svg width="200" height="58" viewBox="0 0 200 58" fill="none" xmlns="http://www.w3.org/2000/svg">
<g clip-path="url(#clip0_6_31407)">
<mask id="mask0_6_31407" style="mask-type:luminance" maskUnits="userSpaceOnUse" x="0" y="17" width="8" height="13">
<path d="M2.0329 24.8538C2.0329 23.1215 2.62063 22.0698 4.13637 22.0698C5.6521 22.0698 6.23983 23.1215 6.23983 24.8538C6.23983 26.586 5.6521 27.5759 4.13637 27.5759C2.62063 27.5759 2.0329 26.7407 2.0329 24.8538ZM0.393433 24.8538C0.393433 27.8543 1.8473 29.1535 4.1673 29.1535C6.4873 29.1535 7.94116 27.8852 7.94116 24.8538C7.94116 21.8223 6.54916 20.5231 4.1673 20.5231C1.78543 20.5231 0.393433 21.8223 0.393433 24.8538ZM2.28037 17.1204C2.15663 17.1204 2.09477 17.1823 2.09477 17.306V18.7599C2.09477 18.8836 2.1257 18.9455 2.28037 18.9455H3.6105C3.73423 18.9455 3.7961 18.9146 3.7961 18.7599V17.306C3.7961 17.1823 3.76516 17.1204 3.6105 17.1204H2.28037ZM4.69316 17.1204C4.56943 17.1204 4.50757 17.1823 4.50757 17.306V18.7599C4.50757 18.8836 4.56943 18.9455 4.69316 18.9455H6.0233C6.14703 18.9455 6.2089 18.9146 6.2089 18.7599V17.306C6.2089 17.1823 6.14703 17.1204 6.0233 17.1204H4.69316Z" fill="white"/>
</mask>
<g mask="url(#mask0_6_31407)">
<path d="M7.9721 17.1204H0.393433V29.1535H7.9721V17.1204Z" fill="url(#paint0_linear_6_31407)"/>
</g>
<mask id="mask1_6_31407" style="mask-type:luminance" maskUnits="userSpaceOnUse" x="9" y="20" width="7" height="13">
<path d="M11.4676 20.8953C11.3439 20.8953 11.282 20.9571 11.282 21.0809V29.6803C11.282 30.8249 10.7561 31.3817 9.67348 31.3817H9.24041C9.11668 31.3817 9.05481 31.4126 9.05481 31.5673V32.7118C9.05481 32.8355 9.11668 32.8974 9.24041 32.8974H9.76628C11.8388 32.8974 12.9524 31.7529 12.9524 29.6185V28.3193C13.3236 28.7523 13.8495 28.9689 14.53 28.9689H14.9631C15.5199 28.9689 15.7673 28.8451 15.7673 28.1337C15.7673 27.4222 15.4889 27.3913 14.9631 27.3913H14.7775C13.6639 27.3913 13.0143 26.9582 13.0143 26.0611V21.0809C13.0143 20.9571 12.9524 20.8953 12.8287 20.8953H11.5295H11.4676Z" fill="white"/>
</mask>
<g mask="url(#mask1_6_31407)">
<path d="M15.7055 20.8953H9.02386V32.9283H15.7055V20.8953Z" fill="url(#paint1_linear_6_31407)"/>
</g>
<mask id="mask2_6_31407" style="mask-type:luminance" maskUnits="userSpaceOnUse" x="14" y="27" width="4" height="3">
<path d="M14.9643 27.4842C14.4075 27.4842 14.2838 27.608 14.2838 28.2885C14.2838 28.969 14.4075 29.0309 14.9643 29.0309H17.1296C17.6864 29.0309 17.9339 28.8762 17.9339 28.1957C17.9339 27.5152 17.6555 27.4533 17.1296 27.4533H14.9643V27.4842Z" fill="white"/>
</mask>
<g mask="url(#mask2_6_31407)">
<path d="M17.9339 27.4843H14.2838V29.0309H17.9339V27.4843Z" fill="url(#paint2_linear_6_31407)"/>
</g>
<mask id="mask3_6_31407" style="mask-type:luminance" maskUnits="userSpaceOnUse" x="16" y="27" width="5" height="3">
<path d="M17.1605 27.4842C16.6037 27.4842 16.48 27.608 16.48 28.2885C16.48 28.969 16.6037 29.0309 17.1605 29.0309H19.3258C19.8826 29.0309 20.1301 28.8762 20.1301 28.1957C20.1301 27.5152 19.8517 27.4533 19.3258 27.4533H17.1605V27.4842Z" fill="white"/>
</mask>
<g mask="url(#mask3_6_31407)">
<path d="M20.1301 27.4843H16.48V29.0309H20.1301V27.4843Z" fill="url(#paint3_linear_6_31407)"/>
</g>
<mask id="mask4_6_31407" style="mask-type:luminance" maskUnits="userSpaceOnUse" x="18" y="27" width="5" height="3">
<path d="M19.3568 27.4842C18.8 27.4842 18.6763 27.608 18.6763 28.2885C18.6763 28.969 18.8 29.0309 19.3568 29.0309H21.5221C22.0789 29.0309 22.3264 28.8762 22.3264 28.1957C22.3264 27.5152 22.048 27.4533 21.5221 27.4533H19.3568V27.4842Z" fill="white"/>
</mask>
<g mask="url(#mask4_6_31407)">
<path d="M22.3264 27.4843H18.6763V29.0309H22.3264V27.4843Z" fill="url(#paint4_linear_6_31407)"/>
</g>
<mask id="mask5_6_31407" style="mask-type:luminance" maskUnits="userSpaceOnUse" x="20" y="20" width="14" height="10">
<path d="M25.3874 24.8549C25.3874 23.1226 25.9752 22.0709 27.4909 22.0709C29.0066 22.0709 29.5944 23.1226 29.5944 24.8549C29.5944 26.5872 29.0066 27.577 27.4909 27.577C25.9752 27.577 25.3874 26.7418 25.3874 24.8549ZM23.717 24.8549V25.6592C23.717 27.0202 23.0365 27.4533 22.5106 27.4533H21.5517C20.9949 27.4533 20.7474 27.5461 20.7474 28.1957C20.7474 28.8453 21.0258 29 21.5517 29H22.3869C23.1293 29 24.0882 28.8762 24.676 28.041C25.3565 28.8144 26.2536 29.1546 27.5218 29.1546C28.7901 29.1546 29.6872 28.8453 30.3368 28.072C30.8626 28.9072 31.8834 29 32.6258 29H33.0589C33.6157 29 33.8632 28.8762 33.8632 28.1648C33.8632 27.4533 33.5848 27.4224 33.0589 27.4224H32.4712C31.9144 27.4224 31.2648 27.0202 31.2648 25.6901C31.2648 24.36 31.2957 25.1333 31.2957 24.8549C31.2957 21.8234 29.9037 20.5242 27.5218 20.5242C25.14 20.5242 23.748 21.8234 23.748 24.824H23.7789L23.717 24.8549Z" fill="white"/>
</mask>
<g mask="url(#mask5_6_31407)">
<path d="M33.8013 20.5861H20.7165V29.1547H33.8013V20.5861Z" fill="url(#paint5_linear_6_31407)"/>
</g>
<mask id="mask6_6_31407" style="mask-type:luminance" maskUnits="userSpaceOnUse" x="32" y="20" width="13" height="9">
<path d="M35.9358 22.6271C36.2451 22.4415 37.204 22.1322 38.3795 22.1322C39.555 22.1322 40.7923 22.5034 40.7923 23.8026C40.7923 25.1018 39.6478 26.1844 38.8126 26.7103C38.3795 24.7924 37.2968 23.4314 35.9358 22.658M34.4819 21.5754C34.3582 21.6372 34.2963 21.761 34.2963 21.9775V23.153C34.2963 23.2767 34.3272 23.3386 34.5747 23.5551C35.7811 24.4522 36.8328 25.1327 37.2659 27.2362C36.4926 27.4218 35.9358 27.4218 35.5646 27.4218H33.028C32.4712 27.4218 32.2238 27.5146 32.2238 28.1642C32.2238 28.8138 32.5022 28.9684 33.028 28.9684H35.7192C36.4926 28.9684 37.5134 28.8447 38.4104 28.3807C39.1838 28.8447 40.019 28.9684 40.947 28.9684H43.7619C44.3187 28.9684 44.5662 28.7828 44.5662 28.1332C44.5662 27.4836 44.2878 27.4527 43.7619 27.4527H40.8851C40.6995 27.4527 40.452 27.4527 40.2974 27.4218C41.38 26.7722 42.5864 25.3492 42.5864 23.6479C42.5864 21.9466 41.2872 20.5546 38.4414 20.5546C35.5955 20.5546 35.1624 21.2042 34.5128 21.5444H34.5747L34.4819 21.5754Z" fill="white"/>
</mask>
<g mask="url(#mask6_6_31407)">
<path d="M44.5662 20.5856H32.2547V29.0613H44.5662V20.5856Z" fill="url(#paint6_linear_6_31407)"/>
</g>
<mask id="mask7_6_31407" style="mask-type:luminance" maskUnits="userSpaceOnUse" x="43" y="27" width="4" height="3">
<path d="M43.7941 27.4842C43.2373 27.4842 43.1136 27.608 43.1136 28.2885C43.1136 28.969 43.2373 29.0309 43.7941 29.0309H45.9594C46.5162 29.0309 46.7637 28.8762 46.7637 28.1957C46.7637 27.5152 46.4853 27.4533 45.9594 27.4533H43.7941V27.4842Z" fill="white"/>
</mask>
<g mask="url(#mask7_6_31407)">
<path d="M46.7328 27.4843H43.0826V29.0309H46.7328V27.4843Z" fill="url(#paint7_linear_6_31407)"/>
</g>
<mask id="mask8_6_31407" style="mask-type:luminance" maskUnits="userSpaceOnUse" x="45" y="27" width="4" height="3">
<path d="M45.9595 27.4842C45.4027 27.4842 45.2789 27.608 45.2789 28.2885C45.2789 28.969 45.4027 29.0309 45.9595 29.0309H48.1248C48.6816 29.0309 48.9291 28.8762 48.9291 28.1957C48.9291 27.5152 48.6507 27.4533 48.1248 27.4533H45.9595V27.4842Z" fill="white"/>
</mask>
<g mask="url(#mask8_6_31407)">
<path d="M48.96 27.4843H45.3099V29.0309H48.96V27.4843Z" fill="url(#paint8_linear_6_31407)"/>
</g>
<mask id="mask9_6_31407" style="mask-type:luminance" maskUnits="userSpaceOnUse" x="47" y="15" width="6" height="15">
<path d="M50.5376 15.544C50.4139 15.544 50.352 15.6059 50.352 15.7296V26.4016C50.352 27.2059 50.0427 27.4843 49.424 27.4843H48.1867C47.6299 27.4843 47.3824 27.6699 47.3824 28.3195C47.3824 28.9691 47.6608 29.0309 48.1867 29.0309H49.7333C51.4037 29.0309 52.0533 28.2885 52.0533 26.5563V15.8224C52.0533 15.6987 51.9915 15.6368 51.8677 15.6368H50.5685V15.5749L50.5376 15.544Z" fill="white"/>
</mask>
<g mask="url(#mask9_6_31407)">
<path d="M51.9914 15.544H47.3514V28.9691H51.9914V15.544Z" fill="url(#paint9_linear_6_31407)"/>
</g>
<mask id="mask10_6_31407" style="mask-type:luminance" maskUnits="userSpaceOnUse" x="54" y="15" width="3" height="14">
<path d="M54.992 15.544C54.8683 15.544 54.8064 15.6059 54.8064 15.7296V28.7835C54.8064 28.9072 54.8373 28.9691 54.992 28.9691H56.2603C56.384 28.9691 56.4459 28.9072 56.4459 28.7835V15.7296C56.4459 15.6059 56.4149 15.544 56.2603 15.544H54.992Z" fill="white"/>
</mask>
<g mask="url(#mask10_6_31407)">
<path d="M56.4459 15.544H54.7755V28.9691H56.4459V15.544Z" fill="url(#paint10_linear_6_31407)"/>
</g>
<mask id="mask11_6_31407" style="mask-type:luminance" maskUnits="userSpaceOnUse" x="58" y="20" width="9" height="13">
<path d="M60.5592 25.009C60.5592 23.2767 61.3944 22.1322 62.7245 22.1322C64.0546 22.1322 64.797 23.1839 64.797 24.9162V27.4836H62.7864C61.3016 27.4836 60.5282 26.8959 60.5282 25.009M58.9197 25.009C58.9197 28.0095 60.3736 29.0303 62.6936 29.0303H64.797V29.5252C64.797 31.01 63.9928 31.4122 62.941 31.4122H60.5282C60.4045 31.4122 60.3426 31.4431 60.3426 31.5978V32.7423C60.3426 32.866 60.3736 32.9279 60.5282 32.9279H62.972C65.0445 32.9279 66.3746 31.938 66.3746 29.4943V24.8852C66.3746 21.8538 65.0136 20.5546 62.6317 20.5546C60.2498 20.5546 58.8269 22.0084 58.8269 25.009H58.8888H58.9197Z" fill="white"/>
</mask>
<g mask="url(#mask11_6_31407)">
<path d="M66.4673 20.5856H58.9196V32.9589H66.4673V20.5856Z" fill="url(#paint11_linear_6_31407)"/>
</g>
<mask id="mask12_6_31407" style="mask-type:luminance" maskUnits="userSpaceOnUse" x="73" y="20" width="13" height="14">
<path d="M78.4073 30.8553C78.2836 30.8553 78.2217 30.9172 78.2217 31.0409V32.4948C78.2217 32.6185 78.2526 32.6804 78.4073 32.6804H79.7374C79.8612 32.6804 79.923 32.6185 79.923 32.4948V31.0409C79.923 30.9172 79.8612 30.8553 79.7374 30.8553H78.4073ZM74.6644 22.194C74.6025 22.2868 74.6025 22.3796 74.7262 22.4724L75.5924 23.1839C75.6852 23.2457 75.778 23.2457 75.8708 23.1839C76.4585 22.5343 77.2009 22.1321 78.1289 22.1321C80.1705 22.1321 80.8201 23.5241 80.8201 25.6276C80.8201 27.7311 80.6345 27.5145 79.1188 27.5145H75.9945C74.7881 27.5145 73.1796 28.1023 73.1796 30.2985C73.1796 32.4948 74.386 33.0207 76.4585 33.0207H77.2937C77.4174 33.0207 77.4793 32.9588 77.4793 32.8351V31.6905C77.4793 31.5668 77.4174 31.5049 77.2937 31.5049H76.6132C75.283 31.5049 74.9118 31.1337 74.9118 30.2985C74.9118 29.4633 75.2212 29.1231 76.0254 29.1231H79.7684C80.9748 29.1231 81.779 28.8137 82.2121 27.9785C82.5214 28.7519 83.2948 29.1231 84.1609 29.1231H84.594C85.1508 29.1231 85.3982 28.9993 85.3982 28.2879C85.3982 27.5764 85.1198 27.5455 84.594 27.5455H84.4084C83.3566 27.5455 82.707 27.1124 82.6452 26.3391V25.6585C82.6452 23.0911 81.7481 20.6473 78.1289 20.6473C74.5097 20.6473 75.4686 21.3279 74.7572 22.2559H74.7262L74.6644 22.194Z" fill="white"/>
</mask>
<g mask="url(#mask12_6_31407)">
<path d="M85.3364 20.5854H73.1486V32.9588H85.3364V20.5854Z" fill="url(#paint12_linear_6_31407)"/>
</g>
<mask id="mask13_6_31407" style="mask-type:luminance" maskUnits="userSpaceOnUse" x="83" y="27" width="5" height="3">
<path d="M84.532 27.4842C83.9752 27.4842 83.8515 27.6079 83.8515 28.2885C83.8515 28.969 83.9752 29.0308 84.532 29.0308H86.6974C87.2542 29.0308 87.5016 28.8762 87.5016 28.1956C87.5016 27.5151 87.2232 27.4532 86.6974 27.4532H84.532V27.4842Z" fill="white"/>
</mask>
<g mask="url(#mask13_6_31407)">
<path d="M87.5635 27.4842H83.9134V29.0309H87.5635V27.4842Z" fill="url(#paint13_linear_6_31407)"/>
</g>
<mask id="mask14_6_31407" style="mask-type:luminance" maskUnits="userSpaceOnUse" x="86" y="27" width="4" height="3">
<path d="M86.7606 27.4842C86.2038 27.4842 86.08 27.608 86.08 28.2885C86.08 28.969 86.2038 29.0309 86.7606 29.0309H88.9259C89.4827 29.0309 89.7301 28.8762 89.7301 28.1957C89.7301 27.5152 89.4518 27.4533 88.9259 27.4533H86.7606V27.4842Z" fill="white"/>
</mask>
<g mask="url(#mask14_6_31407)">
<path d="M89.7301 27.4843H86.08V29.0309H89.7301V27.4843Z" fill="url(#paint14_linear_6_31407)"/>
</g>
<mask id="mask15_6_31407" style="mask-type:luminance" maskUnits="userSpaceOnUse" x="88" y="27" width="4" height="3">
<path d="M88.9568 27.4842C88.4 27.4842 88.2762 27.608 88.2762 28.2885C88.2762 28.969 88.4 29.0309 88.9568 29.0309H91.1221C91.6789 29.0309 91.9264 28.8762 91.9264 28.1957C91.9264 27.5152 91.648 27.4533 91.1221 27.4533H88.9568V27.4842Z" fill="white"/>
</mask>
<g mask="url(#mask15_6_31407)">
<path d="M91.8954 27.4843H88.2453V29.0309H91.8954V27.4843Z" fill="url(#paint15_linear_6_31407)"/>
</g>
<mask id="mask16_6_31407" style="mask-type:luminance" maskUnits="userSpaceOnUse" x="90" y="20" width="13" height="10">
<path d="M92.2963 22.1935C92.2345 22.2863 92.2345 22.3791 92.3273 22.4719L93.1934 23.1834C93.2862 23.2452 93.379 23.2452 93.4718 23.1834C94.0286 22.5338 94.8019 22.1316 95.7299 22.1316C97.7715 22.1316 98.4211 23.5236 98.4211 25.6271C98.4211 27.7306 98.2355 27.514 96.7198 27.514H91.1208C90.564 27.514 90.3166 27.6068 90.3166 28.2564C90.3166 28.906 90.595 29.0607 91.1208 29.0607H97.3384C98.5449 29.0607 99.3491 28.7514 99.7822 27.9162C100.092 28.6895 100.865 29.0607 101.731 29.0607H102.164C102.721 29.0607 102.968 28.937 102.968 28.2255C102.968 27.514 102.69 27.4831 102.164 27.4831H101.978C100.927 27.4831 100.277 27.05 100.215 26.2767V25.5962C100.215 23.0287 99.3182 20.585 95.699 20.585C92.0798 20.585 93.0387 21.2655 92.3273 22.1935H92.3582H92.2963Z" fill="white"/>
</mask>
<g mask="url(#mask16_6_31407)">
<path d="M102.999 20.5849H90.3476V29.0606H102.999V20.5849Z" fill="url(#paint16_linear_6_31407)"/>
</g>
<mask id="mask17_6_31407" style="mask-type:luminance" maskUnits="userSpaceOnUse" x="101" y="15" width="6" height="15">
<path d="M104.578 15.544C104.454 15.544 104.393 15.6059 104.393 15.7296V26.4016C104.393 27.2059 104.083 27.4843 103.465 27.4843H102.196C101.639 27.4843 101.392 27.6699 101.392 28.3195C101.392 28.9691 101.67 29.0309 102.196 29.0309H103.743C105.413 29.0309 106.063 28.2885 106.063 26.5563V15.8224C106.063 15.6987 106.032 15.6368 105.877 15.6368H104.578L104.64 15.5749L104.578 15.544Z" fill="white"/>
</mask>
<g mask="url(#mask17_6_31407)">
<path d="M106.062 15.5433H101.422V28.9683H106.062V15.5433Z" fill="url(#paint17_linear_6_31407)"/>
</g>
<mask id="mask18_6_31407" style="mask-type:luminance" maskUnits="userSpaceOnUse" x="108" y="15" width="3" height="14">
<path d="M109.033 15.544C108.909 15.544 108.847 15.6059 108.847 15.7296V28.7835C108.847 28.9072 108.909 28.9691 109.033 28.9691H110.301C110.425 28.9691 110.486 28.9072 110.486 28.7835V15.7296C110.486 15.6059 110.455 15.544 110.301 15.544H109.033Z" fill="white"/>
</mask>
<g mask="url(#mask18_6_31407)">
<path d="M110.486 15.544H108.816V28.9691H110.486V15.544Z" fill="url(#paint18_linear_6_31407)"/>
</g>
<mask id="mask19_6_31407" style="mask-type:luminance" maskUnits="userSpaceOnUse" x="117" y="17" width="9" height="13">
<path d="M119.116 24.8538C119.116 23.1215 119.704 22.0698 121.219 22.0698C122.735 22.0698 123.323 23.1215 123.323 24.8538C123.323 26.586 122.735 27.5759 121.219 27.5759C119.704 27.5759 119.116 26.7407 119.116 24.8538ZM117.476 24.8538C117.476 27.8543 118.93 29.1535 121.25 29.1535C123.57 29.1535 125.024 27.8852 125.024 24.8538C125.024 21.8223 123.632 20.5231 121.25 20.5231C118.868 20.5231 117.476 21.8223 117.476 24.8538ZM119.363 17.1204C119.24 17.1204 119.178 17.1823 119.178 17.306V18.7599C119.178 18.8836 119.24 18.9455 119.363 18.9455H120.693C120.817 18.9455 120.879 18.9146 120.879 18.7599V17.306C120.879 17.1823 120.848 17.1204 120.693 17.1204H119.363ZM121.807 17.1204C121.683 17.1204 121.621 17.1823 121.621 17.306V18.7599C121.621 18.8836 121.652 18.9455 121.807 18.9455H123.137C123.261 18.9455 123.323 18.9146 123.323 18.7599V17.306C123.323 17.1823 123.261 17.1204 123.137 17.1204H121.807Z" fill="white"/>
</mask>
<g mask="url(#mask19_6_31407)">
<path d="M125.055 17.1204H117.476V29.1535H125.055V17.1204Z" fill="url(#paint19_linear_6_31407)"/>
</g>
<mask id="mask20_6_31407" style="mask-type:luminance" maskUnits="userSpaceOnUse" x="126" y="20" width="5" height="13">
<path d="M128.613 20.8954C128.49 20.8954 128.428 20.9573 128.428 21.081V29.6805C128.428 30.8251 127.902 31.3819 126.819 31.3819H126.386C126.262 31.3819 126.201 31.4128 126.201 31.5674V32.712C126.201 32.8357 126.231 32.8976 126.386 32.8976H126.912C128.985 32.8976 130.098 31.753 130.098 29.6187V21.081C130.098 20.9573 130.036 20.8954 129.913 20.8954H128.613Z" fill="white"/>
</mask>
<g mask="url(#mask20_6_31407)">
<path d="M130.098 20.8954H126.17V32.9285H130.098V20.8954Z" fill="url(#paint20_linear_6_31407)"/>
</g>
<mask id="mask21_6_31407" style="mask-type:luminance" maskUnits="userSpaceOnUse" x="132" y="15" width="3" height="14">
<path d="M132.912 15.5433C132.788 15.5433 132.726 15.6051 132.726 15.7289V28.7827C132.726 28.9065 132.757 28.9683 132.912 28.9683H134.18C134.304 28.9683 134.366 28.9065 134.366 28.7827V15.7289C134.366 15.6051 134.304 15.5433 134.18 15.5433H132.912Z" fill="white"/>
</mask>
<g mask="url(#mask21_6_31407)">
<path d="M134.397 15.5433H132.726V28.9683H134.397V15.5433Z" fill="url(#paint21_linear_6_31407)"/>
</g>
<mask id="mask22_6_31407" style="mask-type:luminance" maskUnits="userSpaceOnUse" x="135" y="17" width="5" height="16">
<path d="M138.202 20.8943C138.078 20.8943 138.016 20.9562 138.016 21.0799V29.6794C138.016 30.8239 137.49 31.3807 136.408 31.3807H135.975C135.851 31.3807 135.789 31.4116 135.789 31.5663V32.7108C135.789 32.8346 135.82 32.8964 135.975 32.8964H136.501C138.573 32.8964 139.687 31.7519 139.687 29.6175V21.0799C139.687 20.9562 139.625 20.8943 139.501 20.8943H138.202ZM138.202 17.1204C138.078 17.1204 138.016 17.1823 138.016 17.306V18.7599C138.016 18.8836 138.047 18.9455 138.202 18.9455H139.532C139.656 18.9455 139.718 18.9146 139.718 18.7599V17.306C139.718 17.1823 139.656 17.1204 139.532 17.1204H138.202Z" fill="white"/>
</mask>
<g mask="url(#mask22_6_31407)">
<path d="M139.749 17.1204H135.758V32.9274H139.749V17.1204Z" fill="url(#paint22_linear_6_31407)"/>
</g>
<mask id="mask23_6_31407" style="mask-type:luminance" maskUnits="userSpaceOnUse" x="142" y="20" width="8" height="13">
<path d="M143.708 25.0091C143.708 23.2768 144.512 22.1323 145.873 22.1323C147.234 22.1323 147.946 23.184 147.946 24.9163V27.4838H145.935C144.45 27.4838 143.677 26.896 143.677 25.0091M142.069 25.0091C142.069 28.0096 143.553 29.0304 145.842 29.0304H147.946V29.5254C147.946 31.0102 147.142 31.4123 146.09 31.4123H143.708C143.584 31.4123 143.522 31.4432 143.522 31.5979V32.7424C143.522 32.8661 143.584 32.928 143.708 32.928H146.152C148.224 32.928 149.554 31.9382 149.554 29.4944V24.8854C149.554 21.8539 148.193 20.5547 145.811 20.5547C143.43 20.5547 142.007 22.0086 142.007 25.0091H142.038H142.069Z" fill="white"/>
</mask>
<g mask="url(#mask23_6_31407)">
<path d="M149.647 20.5856H142.069V32.959H149.647V20.5856Z" fill="url(#paint23_linear_6_31407)"/>
</g>
<mask id="mask24_6_31407" style="mask-type:luminance" maskUnits="userSpaceOnUse" x="0" y="39" width="7" height="8">
<path d="M5.93173 39.3936C5.83893 39.3936 5.808 39.3936 5.77706 39.5173L3.5808 44.6213L1.32267 39.5173C1.32267 39.4554 1.22986 39.3936 1.13706 39.3936H0.394667C0.3328 39.3936 0.270935 39.3936 0.270935 39.5173V46.8485C0.270935 46.9104 0.270933 46.9722 0.394667 46.9722H1.10613C1.168 46.9722 1.22987 46.9722 1.22987 46.8485V41.5898L3.1168 45.7349C3.14773 45.8277 3.24053 45.8586 3.3024 45.8586H3.73547C3.82827 45.8586 3.89013 45.8277 3.92106 45.7349L5.808 41.5898V46.8485C5.808 46.9104 5.808 46.9722 5.93173 46.9722H6.6432C6.70507 46.9722 6.76693 46.9722 6.76693 46.8485V39.5173C6.76693 39.4554 6.76693 39.3936 6.6432 39.3936H5.9008H5.93173Z" fill="white"/>
</mask>
<g mask="url(#mask24_6_31407)">
<path d="M6.76693 39.3936H0.23999V46.9722H6.76693V39.3936Z" fill="url(#paint24_linear_6_31407)"/>
</g>
<mask id="mask25_6_31407" style="mask-type:luminance" maskUnits="userSpaceOnUse" x="8" y="39" width="2" height="8">
<path d="M8.68477 39.3936C8.6229 39.3936 8.56104 39.3936 8.56104 39.5173V46.8485C8.56104 46.9104 8.56104 46.9722 8.68477 46.9722H9.4581C9.51997 46.9722 9.58184 46.9722 9.58184 46.8485V39.5173C9.58184 39.4554 9.58184 39.3936 9.4581 39.3936H8.68477Z" fill="white"/>
</mask>
<g mask="url(#mask25_6_31407)">
<path d="M9.51997 39.3936H8.56104V46.9722H9.51997V39.3936Z" fill="url(#paint25_linear_6_31407)"/>
</g>
<mask id="mask26_6_31407" style="mask-type:luminance" maskUnits="userSpaceOnUse" x="11" y="39" width="6" height="8">
<path d="M15.9218 39.3936C15.86 39.3936 15.7981 39.3936 15.7981 39.5174V45.1782H15.7672L12.3645 39.5174C12.3645 39.4555 12.2717 39.3936 12.1789 39.3936H11.4674C11.4056 39.3936 11.3437 39.3936 11.3437 39.5174V46.8486C11.3437 46.9104 11.3437 46.9723 11.4674 46.9723H12.1789C12.2408 46.9723 12.3026 46.9723 12.3026 46.8486V41.1878L15.7053 46.8486C15.7053 46.9104 15.7981 46.9723 15.8909 46.9723H16.6024C16.6642 46.9723 16.7261 46.9723 16.7261 46.8486V39.5174C16.7261 39.4555 16.7261 39.3936 16.6024 39.3936H15.9218Z" fill="white"/>
</mask>
<g mask="url(#mask26_6_31407)">
<path d="M16.7261 39.3936H11.3437V46.9723H16.7261V39.3936Z" fill="url(#paint26_linear_6_31407)"/>
</g>
<mask id="mask27_6_31407" style="mask-type:luminance" maskUnits="userSpaceOnUse" x="18" y="39" width="2" height="8">
<path d="M18.6749 39.3936C18.613 39.3936 18.5511 39.3936 18.5511 39.5174V46.8486C18.5511 46.9104 18.5512 46.9723 18.6749 46.9723H19.4482C19.5101 46.9723 19.5719 46.9723 19.5719 46.8486V39.5174C19.5719 39.4555 19.572 39.3936 19.4482 39.3936H18.6749Z" fill="white"/>
</mask>
<g mask="url(#mask27_6_31407)">
<path d="M19.5411 39.3937H18.5822V46.9723H19.5411V39.3937Z" fill="url(#paint27_linear_6_31407)"/>
</g>
<mask id="mask28_6_31407" style="mask-type:luminance" maskUnits="userSpaceOnUse" x="20" y="39" width="7" height="9">
<path d="M21.2121 41.4651C21.2121 42.6406 21.9545 43.3521 23.4703 43.5377H23.8415C25.0479 43.7233 25.4191 44.1873 25.4191 44.8369C25.4191 45.4865 24.8313 46.1361 23.7487 46.1361C22.666 46.1361 22.1401 45.7339 21.6452 45.3627C21.6143 45.3318 21.5215 45.3318 21.4905 45.3627L20.9956 45.9505C20.9647 45.9814 20.9647 46.0742 20.9956 46.1051C21.5524 46.6001 22.5732 47.0331 23.6559 47.0331C25.5119 47.0331 26.4089 46.0742 26.4089 44.7441C26.4089 43.4139 25.6665 42.8571 24.1508 42.6406H23.7796C22.6041 42.3931 22.1711 41.991 22.1711 41.3723C22.1711 40.7537 22.666 40.1659 23.6249 40.1659C24.5839 40.1659 24.8313 40.3206 25.4809 40.7227H25.6356L26.0068 40.135C26.0377 40.1041 26.0068 40.0113 26.0068 39.9803C25.45 39.5473 24.6148 39.2689 23.6868 39.2689C22.202 39.2689 21.2431 40.135 21.2431 41.4651V41.4032L21.2121 41.4651Z" fill="white"/>
</mask>
<g mask="url(#mask28_6_31407)">
<path d="M26.4399 39.2999H20.9337V47.0951H26.4399V39.2999Z" fill="url(#paint28_linear_6_31407)"/>
</g>
<mask id="mask29_6_31407" style="mask-type:luminance" maskUnits="userSpaceOnUse" x="27" y="39" width="6" height="9">
<path d="M27.2755 39.3926C27.2136 39.3926 27.1517 39.3926 27.1517 39.5163V40.2278C27.1517 40.2896 27.1517 40.3515 27.2755 40.3515H29.348C29.3789 40.3515 29.4099 40.3515 29.4099 40.4134V46.8784C29.4099 46.9403 29.4099 47.0022 29.5336 47.0022H30.3069C30.3688 47.0022 30.4307 47.0022 30.4307 46.8784V40.3824C30.4307 40.3515 30.4307 40.3206 30.4925 40.3206H32.5651C32.6269 40.3206 32.6888 40.3206 32.6888 40.1968V39.4854C32.6888 39.4235 32.6888 39.3616 32.5651 39.3616H27.2445L27.2755 39.3926Z" fill="white"/>
</mask>
<g mask="url(#mask29_6_31407)">
<path d="M32.6888 39.3926H27.1827V46.9712H32.6888V39.3926Z" fill="url(#paint29_linear_6_31407)"/>
</g>
<mask id="mask30_6_31407" style="mask-type:luminance" maskUnits="userSpaceOnUse" x="33" y="39" width="7" height="9">
<path d="M34.7604 42.7344V40.3526C34.7604 40.3216 34.7604 40.2907 34.8222 40.2907H36.5854C37.4825 40.2907 37.9774 40.7238 37.9774 41.528C37.9774 42.3323 37.4825 42.7963 36.5854 42.7963H34.8222C34.7913 42.7963 34.7604 42.7963 34.7604 42.7344ZM33.8942 39.3936C33.8324 39.3936 33.7705 39.3936 33.7705 39.5174V46.8486C33.7705 46.9104 33.7705 46.9723 33.8942 46.9723H34.6676C34.7294 46.9723 34.7913 46.9723 34.7913 46.8486V43.8171C34.7913 43.7862 34.7913 43.7552 34.8532 43.7552H36.5236L38.0393 46.8795C38.0393 46.9414 38.1012 47.0032 38.163 47.0032H39.0601C39.1529 47.0032 39.1838 46.9723 39.122 46.8795L37.5134 43.6934C38.4414 43.384 38.9982 42.6416 38.9982 41.6208C38.9982 40.6 38.0393 39.4555 36.6164 39.4555H33.8633L33.8942 39.3936Z" fill="white"/>
</mask>
<g mask="url(#mask30_6_31407)">
<path d="M39.1529 39.3936H33.7705V46.9723H39.1529V39.3936Z" fill="url(#paint30_linear_6_31407)"/>
</g>
<mask id="mask31_6_31407" style="mask-type:luminance" maskUnits="userSpaceOnUse" x="39" y="39" width="7" height="8">
<path d="M44.4437 39.3936C44.4128 39.3936 44.32 39.3936 44.2891 39.5173L42.6187 42.7653L40.9173 39.5173C40.8864 39.4554 40.8245 39.3936 40.7627 39.3936H39.9584C39.8656 39.3936 39.8347 39.4245 39.8656 39.5173L42.1237 43.8789V46.8485C42.1237 46.9104 42.1237 46.9722 42.2475 46.9722H42.9899C43.0517 46.9722 43.1136 46.9722 43.1136 46.8485V43.8789L45.3717 39.5173C45.3717 39.4554 45.3717 39.3936 45.2789 39.3936H44.5056H44.4437Z" fill="white"/>
</mask>
<g mask="url(#mask31_6_31407)">
<path d="M45.3099 39.3936H39.7728V46.9722H45.3099V39.3936Z" fill="url(#paint31_linear_6_31407)"/>
</g>
<mask id="mask32_6_31407" style="mask-type:luminance" maskUnits="userSpaceOnUse" x="48" y="39" width="6" height="9">
<path d="M49.6401 45.0225C49.5473 44.7441 49.4855 44.2801 49.4855 43.1665C49.4855 42.0529 49.5473 41.5579 49.6401 41.3105C49.8876 40.5681 50.3825 40.1659 51.2487 40.1659C52.1148 40.1659 52.6097 40.5681 52.8572 41.3105C52.95 41.5889 53.0119 42.0529 53.0119 43.1665C53.0119 44.2801 52.95 44.775 52.8572 45.0225C52.6097 45.7649 52.0839 46.167 51.2487 46.167C50.4135 46.167 49.8876 45.7649 49.6401 45.0225ZM48.6812 41.0321C48.5575 41.4651 48.4956 41.8982 48.4956 43.1665C48.4956 44.4347 48.5265 44.8678 48.6812 45.3009C49.0524 46.4763 49.9495 47.0641 51.2177 47.0641C52.486 47.0641 53.3831 46.4763 53.7852 45.3009C53.9089 44.8678 53.9708 44.4347 53.9708 43.1665C53.9708 41.8982 53.9399 41.4651 53.7852 41.0321C53.3831 39.8566 52.5169 39.2689 51.2177 39.2689C49.9185 39.2689 49.0524 39.8566 48.6812 41.0321Z" fill="white"/>
</mask>
<g mask="url(#mask32_6_31407)">
<path d="M54.0636 39.2999H48.4956V47.0951H54.0636V39.2999Z" fill="url(#paint32_linear_6_31407)"/>
</g>
<mask id="mask33_6_31407" style="mask-type:luminance" maskUnits="userSpaceOnUse" x="55" y="39" width="6" height="8">
<path d="M55.6718 39.393C55.61 39.393 55.5481 39.393 55.5481 39.5168V46.848C55.5481 46.9098 55.5481 46.9717 55.6718 46.9717H56.4452C56.507 46.9717 56.5689 46.9717 56.5689 46.848V43.7237C56.5689 43.6928 56.5689 43.6618 56.6308 43.6618H59.6622C59.7241 43.6618 59.786 43.6618 59.786 43.5381V42.8266C59.786 42.7648 59.786 42.7029 59.6622 42.7029H56.6308C56.5998 42.7029 56.5689 42.7029 56.5689 42.641V40.352C56.5689 40.321 56.5689 40.2901 56.6308 40.2901H60.219C60.2809 40.2901 60.3428 40.2901 60.3428 40.1664V39.4549C60.3428 39.393 60.3428 39.3312 60.219 39.3312H55.6718V39.393Z" fill="white"/>
</mask>
<g mask="url(#mask33_6_31407)">
<path d="M60.3118 39.3929H55.5481V46.9716H60.3118V39.3929Z" fill="url(#paint33_linear_6_31407)"/>
</g>
<mask id="mask34_6_31407" style="mask-type:luminance" maskUnits="userSpaceOnUse" x="64" y="39" width="6" height="8">
<path d="M68.8192 39.3936C68.7573 39.3936 68.6954 39.3936 68.6954 39.5173V42.6416C68.6954 42.6725 68.6954 42.7034 68.6336 42.7034H65.3546C65.3237 42.7034 65.2928 42.7034 65.2928 42.6416V39.5173C65.2928 39.4554 65.2928 39.3936 65.169 39.3936H64.3957C64.3338 39.3936 64.272 39.3936 64.272 39.5173V46.8485C64.272 46.9104 64.272 46.9722 64.3957 46.9722H65.169C65.2309 46.9722 65.2928 46.9722 65.2928 46.8485V43.6624C65.2928 43.6314 65.2928 43.6005 65.3546 43.6005H68.6336C68.6645 43.6005 68.6954 43.6005 68.6954 43.6624V46.8485C68.6954 46.9104 68.6954 46.9722 68.8192 46.9722H69.5925C69.6544 46.9722 69.7162 46.9722 69.7162 46.8485V39.5173C69.7162 39.4554 69.7162 39.3936 69.5925 39.3936H68.8192Z" fill="white"/>
</mask>
<g mask="url(#mask34_6_31407)">
<path d="M69.6544 39.3936H64.272V46.9722H69.6544V39.3936Z" fill="url(#paint34_linear_6_31407)"/>
</g>
<mask id="mask35_6_31407" style="mask-type:luminance" maskUnits="userSpaceOnUse" x="70" y="39" width="7" height="8">
<path d="M73.9219 40.8784L75.1283 44.2811H72.7155L73.9219 40.8784ZM73.5817 39.3936C73.5198 39.3936 73.4579 39.3936 73.4579 39.5174L70.7977 46.8486C70.7977 46.9104 70.7977 46.9723 70.8595 46.9723H71.6329C71.6947 46.9723 71.7566 46.9723 71.7566 46.8486L72.3443 45.2091H75.3758L75.9635 46.8486C75.9635 46.9104 76.0254 46.9723 76.0873 46.9723H76.8606C76.9225 46.9723 76.9534 46.9723 76.9225 46.8486L74.355 39.5174C74.355 39.4555 74.2931 39.3936 74.2313 39.3936H73.5198H73.5817Z" fill="white"/>
</mask>
<g mask="url(#mask35_6_31407)">
<path d="M77.0771 39.3936H70.8286V46.9723H77.0771V39.3936Z" fill="url(#paint35_linear_6_31407)"/>
</g>
<mask id="mask36_6_31407" style="mask-type:luminance" maskUnits="userSpaceOnUse" x="77" y="39" width="5" height="9">
<path d="M80.913 39.3937C80.8511 39.3937 80.7893 39.3937 80.7893 39.5174V44.5286C80.7893 45.6422 80.2943 46.1372 79.3973 46.1372C78.5002 46.1372 78.5311 45.8897 78.2837 45.6732C78.0362 45.4566 78.1599 45.6113 78.129 45.6732L77.5722 46.1372C77.5413 46.1681 77.5413 46.23 77.5722 46.2918C77.9434 46.7249 78.6239 47.0652 79.3354 47.0652C80.8202 47.0652 81.7482 46.23 81.7482 44.5286V39.5174C81.7482 39.4556 81.7482 39.3937 81.6245 39.3937H80.8821H80.9439H80.913Z" fill="white"/>
</mask>
<g mask="url(#mask36_6_31407)">
<path d="M81.841 39.3937H77.5413V47.0652H81.841V39.3937Z" fill="url(#paint36_linear_6_31407)"/>
</g>
<mask id="mask37_6_31407" style="mask-type:luminance" maskUnits="userSpaceOnUse" x="82" y="39" width="6" height="9">
<path d="M86.3575 39.3936C86.2957 39.3936 86.2338 39.3936 86.2338 39.5174V44.5286C86.2338 45.6422 85.7389 46.1371 84.8418 46.1371C83.9447 46.1371 83.9757 45.8896 83.7282 45.6731C83.4807 45.4566 83.6045 45.6112 83.5735 45.6731L83.0167 46.1371C82.9858 46.168 82.9858 46.2299 83.0167 46.2918C83.3879 46.7248 84.0685 47.0651 84.7799 47.0651C86.2647 47.0651 87.1927 46.2299 87.1927 44.5286V39.5174C87.1927 39.4555 87.1927 39.3936 87.069 39.3936H86.3266H86.3885H86.3575Z" fill="white"/>
</mask>
<g mask="url(#mask37_6_31407)">
<path d="M87.2546 39.3936H82.9549V47.0651H87.2546V39.3936Z" fill="url(#paint37_linear_6_31407)"/>
</g>
<mask id="mask38_6_31407" style="mask-type:luminance" maskUnits="userSpaceOnUse" x="90" y="39" width="8" height="8">
<path d="M93.9979 40.8784L95.2043 44.2811H92.7915L93.9979 40.8784ZM93.6577 39.3936C93.5958 39.3936 93.5339 39.3936 93.5339 39.5174L90.9355 46.8486C90.9355 46.9104 90.9355 46.9723 90.9974 46.9723H91.7707C91.8326 46.9723 91.8945 46.9723 91.8945 46.8486L92.4822 45.2091H95.5137L96.1014 46.8486C96.1014 46.9104 96.1633 46.9723 96.2251 46.9723H96.9985C97.0603 46.9723 97.0913 46.9723 97.0603 46.8486L94.4929 39.5174C94.4929 39.4555 94.431 39.3936 94.3691 39.3936H93.6267H93.6577Z" fill="white"/>
</mask>
<g mask="url(#mask38_6_31407)">
<path d="M97.1222 39.3936H90.8737V46.9723H97.1222V39.3936Z" fill="url(#paint38_linear_6_31407)"/>
</g>
<mask id="mask39_6_31407" style="mask-type:luminance" maskUnits="userSpaceOnUse" x="98" y="39" width="6" height="8">
<path d="M102.846 39.3936C102.784 39.3936 102.722 39.3936 102.722 39.5173V45.1781H102.691L99.2885 39.5173C99.2885 39.4554 99.1957 39.3936 99.1029 39.3936H98.3914C98.3296 39.3936 98.2677 39.3936 98.2677 39.5173V46.8485C98.2677 46.9104 98.2677 46.9722 98.3914 46.9722H99.1029C99.1648 46.9722 99.2266 46.9722 99.2266 46.8485V41.1877L102.629 46.8485C102.629 46.9104 102.722 46.9722 102.815 46.9722H103.526C103.588 46.9722 103.65 46.9722 103.65 46.8485V39.5173C103.65 39.4554 103.65 39.3936 103.526 39.3936H102.846Z" fill="white"/>
</mask>
<g mask="url(#mask39_6_31407)">
<path d="M103.65 39.3936H98.2677V46.9722H103.65V39.3936Z" fill="url(#paint39_linear_6_31407)"/>
</g>
<mask id="mask40_6_31407" style="mask-type:luminance" maskUnits="userSpaceOnUse" x="105" y="39" width="6" height="8">
<path d="M106.433 45.9824V40.3835C106.433 40.3526 106.433 40.3216 106.495 40.3216H107.856C108.784 40.3216 109.341 40.6 109.557 41.3734C109.65 41.6518 109.712 42.023 109.712 43.2294C109.712 44.4358 109.65 44.776 109.557 45.0854C109.279 45.8278 108.753 46.1371 107.856 46.1371H106.495C106.464 46.1371 106.433 46.1062 106.433 46.0752M105.567 39.3936C105.505 39.3936 105.443 39.3936 105.443 39.5174V46.8486C105.443 46.9104 105.443 46.9723 105.567 46.9723H108.103C109.403 46.9723 110.238 46.4464 110.578 45.3638C110.702 44.9616 110.764 44.5286 110.764 43.1984C110.764 41.8683 110.702 41.4352 110.578 41.0331C110.238 39.9504 109.434 39.4246 108.103 39.4246H105.567V39.3936Z" fill="white"/>
</mask>
<g mask="url(#mask40_6_31407)">
<path d="M110.795 39.3936H105.474V46.9723H110.795V39.3936Z" fill="url(#paint40_linear_6_31407)"/>
</g>
<mask id="mask41_6_31407" style="mask-type:luminance" maskUnits="userSpaceOnUse" x="114" y="39" width="7" height="9">
<path d="M119.363 39.3936C119.301 39.3936 119.239 39.3936 119.239 39.5174V44.312C119.239 45.5494 118.559 46.168 117.569 46.168C116.579 46.168 115.867 45.5803 115.867 44.312V39.5174C115.867 39.4555 115.867 39.3936 115.744 39.3936H114.97C114.909 39.3936 114.847 39.3936 114.847 39.5174V44.3429C114.847 46.1061 115.806 47.096 117.538 47.096C119.27 47.096 120.229 46.1371 120.229 44.3429V39.5174C120.229 39.4555 120.229 39.3936 120.105 39.3936H119.363Z" fill="white"/>
</mask>
<g mask="url(#mask41_6_31407)">
<path d="M120.229 39.3936H114.878V47.0651H120.229V39.3936Z" fill="url(#paint41_linear_6_31407)"/>
</g>
<mask id="mask42_6_31407" style="mask-type:luminance" maskUnits="userSpaceOnUse" x="121" y="39" width="8" height="8">
<path d="M127.654 39.3936C127.562 39.3936 127.531 39.3936 127.469 39.5173L125.273 44.6213L123.014 39.5173C123.014 39.4554 122.922 39.3936 122.86 39.3936H122.117C122.055 39.3936 121.994 39.3936 121.994 39.5173V46.8485C121.994 46.9104 121.994 46.9722 122.117 46.9722H122.829C122.891 46.9722 122.953 46.9722 122.953 46.8485V41.5898L124.839 45.7349C124.87 45.8277 124.963 45.8586 125.025 45.8586H125.458C125.551 45.8586 125.613 45.8277 125.644 45.7349L127.531 41.5898V46.8485C127.531 46.9104 127.531 46.9722 127.654 46.9722H128.366C128.428 46.9722 128.49 46.9722 128.49 46.8485V39.5173C128.49 39.4554 128.49 39.3936 128.366 39.3936H127.623H127.654Z" fill="white"/>
</mask>
<g mask="url(#mask42_6_31407)">
<path d="M128.49 39.3936H121.963V46.9722H128.49V39.3936Z" fill="url(#paint42_linear_6_31407)"/>
</g>
<mask id="mask43_6_31407" style="mask-type:luminance" maskUnits="userSpaceOnUse" x="130" y="39" width="6" height="9">
<path d="M131.274 42.7344V40.3525C131.274 40.3216 131.274 40.2906 131.335 40.2906H133.099C133.996 40.2906 134.491 40.7237 134.491 41.528C134.491 42.3322 133.996 42.7962 133.099 42.7962H131.335C131.305 42.7962 131.274 42.7962 131.274 42.7344ZM130.407 39.3936C130.346 39.3936 130.284 39.3936 130.284 39.5173V46.8485C130.284 46.9104 130.284 46.9722 130.407 46.9722H131.181C131.243 46.9722 131.305 46.9722 131.305 46.8485V43.817C131.305 43.7861 131.305 43.7552 131.366 43.7552H133.037L134.553 46.8794C134.553 46.9413 134.614 47.0032 134.676 47.0032H135.573C135.666 47.0032 135.697 46.9722 135.635 46.8794L134.027 43.6933C134.955 43.384 135.511 42.6416 135.511 41.6208C135.511 40.6 134.553 39.4554 133.13 39.4554H130.377L130.407 39.3936Z" fill="white"/>
</mask>
<g mask="url(#mask43_6_31407)">
<path d="M135.697 39.3936H130.315V46.9722H135.697V39.3936Z" fill="url(#paint43_linear_6_31407)"/>
</g>
<mask id="mask44_6_31407" style="mask-type:luminance" maskUnits="userSpaceOnUse" x="136" y="39" width="7" height="8">
<path d="M139.564 40.8784L140.77 44.281H138.357L139.564 40.8784ZM139.193 39.3936C139.131 39.3936 139.069 39.3936 139.069 39.5173L136.409 46.8485C136.409 46.9104 136.409 46.9722 136.47 46.9722H137.244C137.306 46.9722 137.367 46.9722 137.367 46.8485L137.955 45.209H140.987L141.574 46.8485C141.574 46.9104 141.636 46.9722 141.698 46.9722H142.471C142.533 46.9722 142.564 46.9722 142.533 46.8485L139.966 39.5173C139.966 39.4554 139.904 39.3936 139.842 39.3936H139.131H139.193Z" fill="white"/>
</mask>
<g mask="url(#mask44_6_31407)">
<path d="M142.657 39.3936H136.409V46.9722H142.657V39.3936Z" fill="url(#paint44_linear_6_31407)"/>
</g>
<mask id="mask45_6_31407" style="mask-type:luminance" maskUnits="userSpaceOnUse" x="143" y="39" width="7" height="8">
<path d="M148.286 39.3936C148.224 39.3936 148.162 39.3936 148.162 39.5174V42.6416C148.162 42.6725 148.162 42.7035 148.1 42.7035H144.821C144.791 42.7035 144.76 42.7035 144.76 42.6416V39.5174C144.76 39.4555 144.76 39.3936 144.636 39.3936H143.862C143.801 39.3936 143.739 39.3936 143.739 39.5174V46.8486C143.739 46.9104 143.739 46.9723 143.862 46.9723H144.636C144.698 46.9723 144.76 46.9723 144.76 46.8486V43.6624C144.76 43.6315 144.76 43.6006 144.821 43.6006H148.1C148.131 43.6006 148.162 43.6006 148.162 43.6624V46.8486C148.162 46.9104 148.162 46.9723 148.286 46.9723H149.059C149.121 46.9723 149.183 46.9723 149.183 46.8486V39.5174C149.183 39.4555 149.183 39.3936 149.059 39.3936H148.286Z" fill="white"/>
</mask>
<g mask="url(#mask45_6_31407)">
<path d="M149.183 39.3937H143.801V46.9723H149.183V39.3937Z" fill="url(#paint45_linear_6_31407)"/>
</g>
<mask id="mask46_6_31407" style="mask-type:luminance" maskUnits="userSpaceOnUse" x="175" y="24" width="10" height="17">
<path d="M184.263 24.1742L175.54 26.6489V40.1667L184.263 38.2489V24.1742Z" fill="white"/>
</mask>
<g mask="url(#mask46_6_31407)">
<path d="M184.263 24.1742H175.54V40.1667H184.263V24.1742Z" fill="url(#paint46_linear_6_31407)"/>
</g>
<mask id="mask47_6_31407" style="mask-type:luminance" maskUnits="userSpaceOnUse" x="175" y="20" width="10" height="6">
<path d="M184.263 20.2155L175.54 22.6902V25.7216L184.263 23.247V20.2155Z" fill="white"/>
</mask>
<g mask="url(#mask47_6_31407)">
<path d="M184.263 20.2155H175.54V25.7216H184.263V20.2155Z" fill="url(#paint47_linear_6_31407)"/>
</g>
<mask id="mask48_6_31407" style="mask-type:luminance" maskUnits="userSpaceOnUse" x="184" y="24" width="9" height="15">
<path d="M184.262 24.1744V38.2491L192.986 34.9392V26.2469L184.262 24.1744Z" fill="white"/>
</mask>
<g mask="url(#mask48_6_31407)">
<path d="M192.986 24.1744H184.262V38.2491H192.986V24.1744Z" fill="url(#paint48_linear_6_31407)"/>
</g>
<mask id="mask49_6_31407" style="mask-type:luminance" maskUnits="userSpaceOnUse" x="184" y="20" width="9" height="6">
<path d="M184.262 20.215V23.2464L192.986 25.3808V22.504L184.262 20.215Z" fill="white"/>
</mask>
<g mask="url(#mask49_6_31407)">
<path d="M192.986 20.215H184.262V25.3499H192.986V20.215Z" fill="url(#paint49_linear_6_31407)"/>
</g>
<mask id="mask50_6_31407" style="mask-type:luminance" maskUnits="userSpaceOnUse" x="157" y="0" width="43" height="24">
<path d="M178.509 0.0773315L178.169 0.634128C169.662 15.2656 158.062 18.6064 157.969 18.7301L157.845 18.8229L157.783 23.8032H157.969L158.557 19.1941C159.887 18.1115 170.466 17.4 178.478 3.78933C186.397 17.3691 197.595 18.0805 199.018 19.1941L199.574 23.8032H199.76V18.8229L199.605 18.6992C199.482 18.6064 187.17 15.2656 178.818 0.634128L178.509 0.108267V0.0773315Z" fill="white"/>
</mask>
<g mask="url(#mask50_6_31407)">
<path d="M199.76 0.0773315H157.783V23.8032H199.76V0.0773315Z" fill="url(#paint50_radial_6_31407)"/>
</g>
<g opacity="0.2">
<mask id="mask51_6_31407" style="mask-type:luminance" maskUnits="userSpaceOnUse" x="165" y="8" width="12" height="12">
<path d="M176.685 8.08954H165.239V19.2565H176.685V8.08954Z" fill="white"/>
</mask>
<g mask="url(#mask51_6_31407)">
<path d="M165.579 19.2266L165.239 18.577C173.436 14.401 176.653 8.15243 176.684 8.05963C176.56 8.33803 173.993 14.9268 165.579 19.2266Z" fill="#A4985C"/>
</g>
</g>
<g opacity="0.2">
<mask id="mask52_6_31407" style="mask-type:luminance" maskUnits="userSpaceOnUse" x="180" y="8" width="11" height="10">
<path d="M190.728 8.08954H180.273V17.8645H190.728V8.08954Z" fill="white"/>
</mask>
<g mask="url(#mask52_6_31407)">
<path d="M190.419 17.8346C182.469 14.2154 180.365 8.3071 180.273 8.05963C180.273 8.1215 183.057 13.6586 190.728 17.154L190.419 17.8346Z" fill="#A4985C"/>
</g>
</g>
<mask id="mask53_6_31407" style="mask-type:luminance" maskUnits="userSpaceOnUse" x="164" y="29" width="12" height="3">
<path d="M175.539 29.8352H164.805V31.784H175.539V29.8352Z" fill="white"/>
</mask>
<g mask="url(#mask53_6_31407)">
<path d="M175.85 29.8666L175.293 33.4239L164.497 31.6916L165.085 28.1652L175.85 29.8666Z" fill="url(#paint51_radial_6_31407)"/>
</g>
<mask id="mask54_6_31407" style="mask-type:luminance" maskUnits="userSpaceOnUse" x="165" y="27" width="11" height="3">
<path d="M175.54 27.578H165.239V29.5268H175.54V27.578Z" fill="white"/>
</mask>
<g mask="url(#mask54_6_31407)">
<path d="M175.85 27.6399L175.293 31.1354L164.961 29.4959L165.487 26.0004L175.85 27.6399Z" fill="url(#paint52_radial_6_31407)"/>
</g>
<mask id="mask55_6_31407" style="mask-type:luminance" maskUnits="userSpaceOnUse" x="158" y="36" width="41" height="22">
<path d="M164.496 52.6021C162.764 54.2107 158.68 57.8917 158.68 57.8917C178.045 54.4272 190.696 45.0853 198.182 36.7333C179.746 50.1275 168.332 51.9525 164.496 52.5712V52.6021Z" fill="white"/>
</mask>
<g mask="url(#mask55_6_31407)">
<path d="M198.213 36.7643H158.711V57.9227H198.213V36.7643Z" fill="url(#paint53_radial_6_31407)"/>
</g>
<mask id="mask56_6_31407" style="mask-type:luminance" maskUnits="userSpaceOnUse" x="179" y="49" width="20" height="9">
<path d="M179.251 51.7051C184.757 54.3344 191.129 56.4997 198.461 57.7989C198.461 57.7989 194.377 54.0869 192.645 52.5093C190.851 52.2 187.479 51.6741 182.561 49.88C182.004 50.2512 181.014 50.808 179.22 51.736L179.251 51.7051Z" fill="white"/>
</mask>
<g mask="url(#mask56_6_31407)">
<path d="M198.461 49.8491H179.251V57.7989H198.461V49.8491Z" fill="url(#paint54_radial_6_31407)"/>
</g>
<mask id="mask57_6_31407" style="mask-type:luminance" maskUnits="userSpaceOnUse" x="158" y="36" width="21" height="14">
<path d="M174.921 49.4477C175.694 49.1384 176.87 48.6434 178.169 48.0866C173.003 45.7666 166.569 42.2093 158.959 36.7032C162.857 41.0029 168.085 45.581 174.921 49.4786V49.4477Z" fill="white"/>
</mask>
<g mask="url(#mask57_6_31407)">
<path d="M178.2 36.6722H158.99V49.4477H178.2V36.6722Z" fill="url(#paint55_radial_6_31407)"/>
</g>
<mask id="mask58_6_31407" style="mask-type:luminance" maskUnits="userSpaceOnUse" x="164" y="32" width="12" height="6">
<path d="M164.404 32.0317V34.6301C169.972 36.7027 175.54 37.5069 175.54 37.5069V32.0008H164.404V32.0317Z" fill="white"/>
</mask>
<g mask="url(#mask58_6_31407)">
<path d="M176.406 32.1554L175.262 39.2392L163.538 37.3832L164.683 30.2994L176.406 32.1554Z" fill="url(#paint56_radial_6_31407)"/>
</g>
<mask id="mask59_6_31407" style="mask-type:luminance" maskUnits="userSpaceOnUse" x="165" y="14" width="15" height="14">
<path d="M173.776 15.2966C173.683 15.2966 173.59 15.4203 173.59 15.5131C173.59 15.6059 173.652 15.6987 173.745 15.7296V16.0699C173.621 16.1008 173.528 16.1936 173.528 16.3483C173.528 16.503 173.59 16.5339 173.683 16.5958V16.936C173.559 16.9979 173.467 17.0907 173.467 17.2454C173.467 17.4 173.528 17.4619 173.621 17.5238V17.6475C173.621 17.6475 173.188 19.0704 169.291 21.1739C166.754 22.535 165.981 24.7312 165.733 26.0923C165.609 26.8347 165.64 27.3296 165.64 27.3296H175.508V22.6587C175.508 22.6587 177.179 22.1638 179.004 21.6688C175.817 19.72 173.992 17.6475 173.992 17.6475V17.5238C174.085 17.4619 174.147 17.3691 174.147 17.2454C174.147 17.1216 174.054 16.9979 173.961 16.936V16.5958C174.023 16.5648 174.085 16.472 174.085 16.3483C174.085 16.2246 173.992 16.1318 173.9 16.0699V15.7296C173.992 15.7296 174.054 15.6059 174.054 15.5131C174.054 15.4203 173.961 15.2966 173.838 15.2966V14.8016C173.807 14.8016 173.807 15.2966 173.807 15.2966H173.776Z" fill="white"/>
</mask>
<g mask="url(#mask59_6_31407)">
<path d="M180.983 15.1101L178.724 29.4322L163.691 27.0504L165.949 12.7282L180.983 15.1101Z" fill="url(#paint57_radial_6_31407)"/>
</g>
<mask id="mask60_6_31407" style="mask-type:luminance" maskUnits="userSpaceOnUse" x="157" y="31" width="43" height="14">
<path d="M157.783 31.9387C158.278 32.3408 159.175 33.0213 159.175 33.0213C166.971 38.7131 173.529 42.3014 178.787 44.5904C183.984 42.3014 190.48 38.744 198.213 33.176C198.677 32.8357 199.234 32.4027 199.76 31.9696C198.151 31.5984 195.275 32.3408 195.275 32.3408C195.275 32.3408 192.336 35.0629 190.078 35.5269C187.789 36.0219 184.974 35.9291 182.561 36.2693C180.179 36.6405 178.756 38.9915 178.756 38.9915C178.756 38.9915 177.364 36.6096 174.951 36.2693C172.57 35.8981 169.724 35.9909 167.435 35.5269C165.146 35.032 162.238 32.3408 162.238 32.3408C162.238 32.3408 160.413 31.8459 158.835 31.8459C157.258 31.8459 158.093 31.8459 157.783 31.9387Z" fill="white"/>
</mask>
<g mask="url(#mask60_6_31407)">
<path d="M199.729 31.5676H157.783V44.5905H199.729V31.5676Z" fill="url(#paint58_radial_6_31407)"/>
</g>
</g>
<defs>
<linearGradient id="paint0_linear_6_31407" x1="3.57957" y1="-77.8604" x2="3.57957" y2="18.5867" gradientUnits="userSpaceOnUse">
<stop stop-color="#9F8745"/>
<stop offset="0.2" stop-color="#928248"/>
<stop offset="0.3" stop-color="#847C4C"/>
<stop offset="0.7" stop-color="#4B7A46"/>
<stop offset="1" stop-color="#1D4527"/>
</linearGradient>
<linearGradient id="paint1_linear_6_31407" x1="11.7707" y1="-77.8595" x2="11.7707" y2="18.5876" gradientUnits="userSpaceOnUse">
<stop stop-color="#9F8745"/>
<stop offset="0.2" stop-color="#928248"/>
<stop offset="0.3" stop-color="#847C4C"/>
<stop offset="0.7" stop-color="#4B7A46"/>
<stop offset="1" stop-color="#1D4527"/>
</linearGradient>
<linearGradient id="paint2_linear_6_31407" x1="15.8366" y1="-77.8592" x2="15.8366" y2="18.5878" gradientUnits="userSpaceOnUse">
<stop stop-color="#9F8745"/>
<stop offset="0.2" stop-color="#928248"/>
<stop offset="0.3" stop-color="#847C4C"/>
<stop offset="0.7" stop-color="#4B7A46"/>
<stop offset="1" stop-color="#1D4527"/>
</linearGradient>
<linearGradient id="paint3_linear_6_31407" x1="17.8998" y1="-77.8592" x2="17.8998" y2="18.5878" gradientUnits="userSpaceOnUse">
<stop stop-color="#9F8745"/>
<stop offset="0.2" stop-color="#928248"/>
<stop offset="0.3" stop-color="#847C4C"/>
<stop offset="0.7" stop-color="#4B7A46"/>
<stop offset="1" stop-color="#1D4527"/>
</linearGradient>
<linearGradient id="paint4_linear_6_31407" x1="19.994" y1="-77.8592" x2="19.994" y2="18.5878" gradientUnits="userSpaceOnUse">
<stop stop-color="#9F8745"/>
<stop offset="0.2" stop-color="#928248"/>
<stop offset="0.3" stop-color="#847C4C"/>
<stop offset="0.7" stop-color="#4B7A46"/>
<stop offset="1" stop-color="#1D4527"/>
</linearGradient>
<linearGradient id="paint5_linear_6_31407" x1="27.9363" y1="-77.8593" x2="27.9363" y2="18.5878" gradientUnits="userSpaceOnUse">
<stop stop-color="#9F8745"/>
<stop offset="0.2" stop-color="#928248"/>
<stop offset="0.3" stop-color="#847C4C"/>
<stop offset="0.7" stop-color="#4B7A46"/>
<stop offset="1" stop-color="#1D4527"/>
</linearGradient>
<linearGradient id="paint6_linear_6_31407" x1="38.3455" y1="-77.8598" x2="38.3455" y2="18.5873" gradientUnits="userSpaceOnUse">
<stop stop-color="#9F8745"/>
<stop offset="0.2" stop-color="#928248"/>
<stop offset="0.3" stop-color="#847C4C"/>
<stop offset="0.7" stop-color="#4B7A46"/>
<stop offset="1" stop-color="#1D4527"/>
</linearGradient>
<linearGradient id="paint7_linear_6_31407" x1="44.5674" y1="-77.8592" x2="44.5674" y2="18.5878" gradientUnits="userSpaceOnUse">
<stop stop-color="#9F8745"/>
<stop offset="0.2" stop-color="#928248"/>
<stop offset="0.3" stop-color="#847C4C"/>
<stop offset="0.7" stop-color="#4B7A46"/>
<stop offset="1" stop-color="#1D4527"/>
</linearGradient>
<linearGradient id="paint8_linear_6_31407" x1="46.6307" y1="-77.8592" x2="46.6307" y2="18.5878" gradientUnits="userSpaceOnUse">
<stop stop-color="#9F8745"/>
<stop offset="0.2" stop-color="#928248"/>
<stop offset="0.3" stop-color="#847C4C"/>
<stop offset="0.7" stop-color="#4B7A46"/>
<stop offset="1" stop-color="#1D4527"/>
</linearGradient>
<linearGradient id="paint9_linear_6_31407" x1="50.4788" y1="-77.8592" x2="50.4788" y2="18.5878" gradientUnits="userSpaceOnUse">
<stop stop-color="#9F8745"/>
<stop offset="0.2" stop-color="#928248"/>
<stop offset="0.3" stop-color="#847C4C"/>
<stop offset="0.7" stop-color="#4B7A46"/>
<stop offset="1" stop-color="#1D4527"/>
</linearGradient>
<linearGradient id="paint10_linear_6_31407" x1="54.9147" y1="-77.8592" x2="54.9147" y2="18.5878" gradientUnits="userSpaceOnUse">
<stop stop-color="#9F8745"/>
<stop offset="0.2" stop-color="#928248"/>
<stop offset="0.3" stop-color="#847C4C"/>
<stop offset="0.7" stop-color="#4B7A46"/>
<stop offset="1" stop-color="#1D4527"/>
</linearGradient>
<linearGradient id="paint11_linear_6_31407" x1="62.9193" y1="-77.8598" x2="62.9193" y2="18.5873" gradientUnits="userSpaceOnUse">
<stop stop-color="#9F8745"/>
<stop offset="0.2" stop-color="#928248"/>
<stop offset="0.3" stop-color="#847C4C"/>
<stop offset="0.7" stop-color="#4B7A46"/>
<stop offset="1" stop-color="#1D4527"/>
</linearGradient>
<linearGradient id="paint12_linear_6_31407" x1="79.3631" y1="-77.8599" x2="79.3631" y2="18.5872" gradientUnits="userSpaceOnUse">
<stop stop-color="#9F8745"/>
<stop offset="0.2" stop-color="#928248"/>
<stop offset="0.3" stop-color="#847C4C"/>
<stop offset="0.7" stop-color="#4B7A46"/>
<stop offset="1" stop-color="#1D4527"/>
</linearGradient>
<linearGradient id="paint13_linear_6_31407" x1="85.5838" y1="-77.8593" x2="85.5838" y2="18.5878" gradientUnits="userSpaceOnUse">
<stop stop-color="#9F8745"/>
<stop offset="0.2" stop-color="#928248"/>
<stop offset="0.3" stop-color="#847C4C"/>
<stop offset="0.7" stop-color="#4B7A46"/>
<stop offset="1" stop-color="#1D4527"/>
</linearGradient>
<linearGradient id="paint14_linear_6_31407" x1="87.6483" y1="-77.8592" x2="87.6483" y2="18.5878" gradientUnits="userSpaceOnUse">
<stop stop-color="#9F8745"/>
<stop offset="0.2" stop-color="#928248"/>
<stop offset="0.3" stop-color="#847C4C"/>
<stop offset="0.7" stop-color="#4B7A46"/>
<stop offset="1" stop-color="#1D4527"/>
</linearGradient>
<linearGradient id="paint15_linear_6_31407" x1="89.7425" y1="-77.8592" x2="89.7425" y2="18.5878" gradientUnits="userSpaceOnUse">
<stop stop-color="#9F8745"/>
<stop offset="0.2" stop-color="#928248"/>
<stop offset="0.3" stop-color="#847C4C"/>
<stop offset="0.7" stop-color="#4B7A46"/>
<stop offset="1" stop-color="#1D4527"/>
</linearGradient>
<linearGradient id="paint16_linear_6_31407" x1="95.962" y1="-77.8605" x2="95.962" y2="18.5866" gradientUnits="userSpaceOnUse">
<stop stop-color="#9F8745"/>
<stop offset="0.2" stop-color="#928248"/>
<stop offset="0.3" stop-color="#847C4C"/>
<stop offset="0.7" stop-color="#4B7A46"/>
<stop offset="1" stop-color="#1D4527"/>
</linearGradient>
<linearGradient id="paint17_linear_6_31407" x1="103.968" y1="-77.8599" x2="103.968" y2="18.5871" gradientUnits="userSpaceOnUse">
<stop stop-color="#9F8745"/>
<stop offset="0.2" stop-color="#928248"/>
<stop offset="0.3" stop-color="#847C4C"/>
<stop offset="0.7" stop-color="#4B7A46"/>
<stop offset="1" stop-color="#1D4527"/>
</linearGradient>
<linearGradient id="paint18_linear_6_31407" x1="110.097" y1="-77.8592" x2="110.097" y2="18.5878" gradientUnits="userSpaceOnUse">
<stop stop-color="#9F8745"/>
<stop offset="0.2" stop-color="#928248"/>
<stop offset="0.3" stop-color="#847C4C"/>
<stop offset="0.7" stop-color="#4B7A46"/>
<stop offset="1" stop-color="#1D4527"/>
</linearGradient>
<linearGradient id="paint19_linear_6_31407" x1="120.597" y1="-77.8604" x2="120.597" y2="18.5867" gradientUnits="userSpaceOnUse">
<stop stop-color="#9F8745"/>
<stop offset="0.2" stop-color="#928248"/>
<stop offset="0.3" stop-color="#847C4C"/>
<stop offset="0.7" stop-color="#4B7A46"/>
<stop offset="1" stop-color="#1D4527"/>
</linearGradient>
<linearGradient id="paint20_linear_6_31407" x1="128.542" y1="-77.8593" x2="128.542" y2="18.5878" gradientUnits="userSpaceOnUse">
<stop stop-color="#9F8745"/>
<stop offset="0.2" stop-color="#928248"/>
<stop offset="0.3" stop-color="#847C4C"/>
<stop offset="0.7" stop-color="#4B7A46"/>
<stop offset="1" stop-color="#1D4527"/>
</linearGradient>
<linearGradient id="paint21_linear_6_31407" x1="132.884" y1="-77.8599" x2="132.884" y2="18.5871" gradientUnits="userSpaceOnUse">
<stop stop-color="#9F8745"/>
<stop offset="0.2" stop-color="#928248"/>
<stop offset="0.3" stop-color="#847C4C"/>
<stop offset="0.7" stop-color="#4B7A46"/>
<stop offset="1" stop-color="#1D4527"/>
</linearGradient>
<linearGradient id="paint22_linear_6_31407" x1="137.011" y1="-77.8604" x2="137.011" y2="18.5867" gradientUnits="userSpaceOnUse">
<stop stop-color="#9F8745"/>
<stop offset="0.2" stop-color="#928248"/>
<stop offset="0.3" stop-color="#847C4C"/>
<stop offset="0.7" stop-color="#4B7A46"/>
<stop offset="1" stop-color="#1D4527"/>
</linearGradient>
<linearGradient id="paint23_linear_6_31407" x1="145.202" y1="-77.8597" x2="145.202" y2="18.5873" gradientUnits="userSpaceOnUse">
<stop stop-color="#9F8745"/>
<stop offset="0.2" stop-color="#928248"/>
<stop offset="0.3" stop-color="#847C4C"/>
<stop offset="0.7" stop-color="#4B7A46"/>
<stop offset="1" stop-color="#1D4527"/>
</linearGradient>
<linearGradient id="paint24_linear_6_31407" x1="3.98293" y1="14.6778" x2="3.98293" y2="74.6266" gradientUnits="userSpaceOnUse">
<stop stop-color="#C29846"/>
<stop offset="0.3" stop-color="#E2C898"/>
<stop offset="0.7" stop-color="#F8D88A"/>
<stop offset="1" stop-color="#A07841"/>
</linearGradient>
<linearGradient id="paint25_linear_6_31407" x1="9.14877" y1="14.6778" x2="9.14877" y2="74.6266" gradientUnits="userSpaceOnUse">
<stop stop-color="#C29846"/>
<stop offset="0.3" stop-color="#E2C898"/>
<stop offset="0.7" stop-color="#F8D88A"/>
<stop offset="1" stop-color="#A07841"/>
</linearGradient>
<linearGradient id="paint26_linear_6_31407" x1="14.2514" y1="14.6779" x2="14.2514" y2="74.6267" gradientUnits="userSpaceOnUse">
<stop stop-color="#C29846"/>
<stop offset="0.3" stop-color="#E2C898"/>
<stop offset="0.7" stop-color="#F8D88A"/>
<stop offset="1" stop-color="#A07841"/>
</linearGradient>
<linearGradient id="paint27_linear_6_31407" x1="19.3246" y1="14.6779" x2="19.3246" y2="74.6267" gradientUnits="userSpaceOnUse">
<stop stop-color="#C29846"/>
<stop offset="0.3" stop-color="#E2C898"/>
<stop offset="0.7" stop-color="#F8D88A"/>
<stop offset="1" stop-color="#A07841"/>
</linearGradient>
<linearGradient id="paint28_linear_6_31407" x1="23.2847" y1="14.6769" x2="23.2847" y2="74.6257" gradientUnits="userSpaceOnUse">
<stop stop-color="#C29846"/>
<stop offset="0.3" stop-color="#E2C898"/>
<stop offset="0.7" stop-color="#F8D88A"/>
<stop offset="1" stop-color="#A07841"/>
</linearGradient>
<linearGradient id="paint29_linear_6_31407" x1="29.6573" y1="14.6768" x2="29.6573" y2="74.6256" gradientUnits="userSpaceOnUse">
<stop stop-color="#C29846"/>
<stop offset="0.3" stop-color="#E2C898"/>
<stop offset="0.7" stop-color="#F8D88A"/>
<stop offset="1" stop-color="#A07841"/>
</linearGradient>
<linearGradient id="paint30_linear_6_31407" x1="36.0596" y1="14.6779" x2="36.0596" y2="74.6267" gradientUnits="userSpaceOnUse">
<stop stop-color="#C29846"/>
<stop offset="0.3" stop-color="#E2C898"/>
<stop offset="0.7" stop-color="#F8D88A"/>
<stop offset="1" stop-color="#A07841"/>
</linearGradient>
<linearGradient id="paint31_linear_6_31407" x1="42.4022" y1="14.6778" x2="42.4022" y2="74.6266" gradientUnits="userSpaceOnUse">
<stop stop-color="#C29846"/>
<stop offset="0.3" stop-color="#E2C898"/>
<stop offset="0.7" stop-color="#F8D88A"/>
<stop offset="1" stop-color="#A07841"/>
</linearGradient>
<linearGradient id="paint32_linear_6_31407" x1="51.2796" y1="14.6769" x2="51.2796" y2="74.6257" gradientUnits="userSpaceOnUse">
<stop stop-color="#C29846"/>
<stop offset="0.3" stop-color="#E2C898"/>
<stop offset="0.7" stop-color="#F8D88A"/>
<stop offset="1" stop-color="#A07841"/>
</linearGradient>
<linearGradient id="paint33_linear_6_31407" x1="57.7134" y1="14.6772" x2="57.7134" y2="74.626" gradientUnits="userSpaceOnUse">
<stop stop-color="#C29846"/>
<stop offset="0.3" stop-color="#E2C898"/>
<stop offset="0.7" stop-color="#F8D88A"/>
<stop offset="1" stop-color="#A07841"/>
</linearGradient>
<linearGradient id="paint34_linear_6_31407" x1="66.6538" y1="14.6778" x2="66.6538" y2="74.6266" gradientUnits="userSpaceOnUse">
<stop stop-color="#C29846"/>
<stop offset="0.3" stop-color="#E2C898"/>
<stop offset="0.7" stop-color="#F8D88A"/>
<stop offset="1" stop-color="#A07841"/>
</linearGradient>
<linearGradient id="paint35_linear_6_31407" x1="74.2003" y1="14.6779" x2="74.2003" y2="74.6267" gradientUnits="userSpaceOnUse">
<stop stop-color="#C29846"/>
<stop offset="0.3" stop-color="#E2C898"/>
<stop offset="0.7" stop-color="#F8D88A"/>
<stop offset="1" stop-color="#A07841"/>
</linearGradient>
<linearGradient id="paint36_linear_6_31407" x1="79.4282" y1="14.6779" x2="79.4282" y2="74.6268" gradientUnits="userSpaceOnUse">
<stop stop-color="#C29846"/>
<stop offset="0.3" stop-color="#E2C898"/>
<stop offset="0.7" stop-color="#F8D88A"/>
<stop offset="1" stop-color="#A07841"/>
</linearGradient>
<linearGradient id="paint37_linear_6_31407" x1="85.6152" y1="14.6778" x2="85.6152" y2="74.6268" gradientUnits="userSpaceOnUse">
<stop stop-color="#C29846"/>
<stop offset="0.3" stop-color="#E2C898"/>
<stop offset="0.7" stop-color="#F8D88A"/>
<stop offset="1" stop-color="#A07841"/>
</linearGradient>
<linearGradient id="paint38_linear_6_31407" x1="93.503" y1="14.6779" x2="93.503" y2="74.6267" gradientUnits="userSpaceOnUse">
<stop stop-color="#C29846"/>
<stop offset="0.3" stop-color="#E2C898"/>
<stop offset="0.7" stop-color="#F8D88A"/>
<stop offset="1" stop-color="#A07841"/>
</linearGradient>
<linearGradient id="paint39_linear_6_31407" x1="101.021" y1="14.6778" x2="101.021" y2="74.6266" gradientUnits="userSpaceOnUse">
<stop stop-color="#C29846"/>
<stop offset="0.3" stop-color="#E2C898"/>
<stop offset="0.7" stop-color="#F8D88A"/>
<stop offset="1" stop-color="#A07841"/>
</linearGradient>
<linearGradient id="paint40_linear_6_31407" x1="108.598" y1="14.6779" x2="108.598" y2="74.6267" gradientUnits="userSpaceOnUse">
<stop stop-color="#C29846"/>
<stop offset="0.3" stop-color="#E2C898"/>
<stop offset="0.7" stop-color="#F8D88A"/>
<stop offset="1" stop-color="#A07841"/>
</linearGradient>
<linearGradient id="paint41_linear_6_31407" x1="117.631" y1="14.6778" x2="117.631" y2="74.6268" gradientUnits="userSpaceOnUse">
<stop stop-color="#C29846"/>
<stop offset="0.3" stop-color="#E2C898"/>
<stop offset="0.7" stop-color="#F8D88A"/>
<stop offset="1" stop-color="#A07841"/>
</linearGradient>
<linearGradient id="paint42_linear_6_31407" x1="125.273" y1="14.6778" x2="125.273" y2="74.6266" gradientUnits="userSpaceOnUse">
<stop stop-color="#C29846"/>
<stop offset="0.3" stop-color="#E2C898"/>
<stop offset="0.7" stop-color="#F8D88A"/>
<stop offset="1" stop-color="#A07841"/>
</linearGradient>
<linearGradient id="paint43_linear_6_31407" x1="132.944" y1="14.6778" x2="132.944" y2="74.6266" gradientUnits="userSpaceOnUse">
<stop stop-color="#C29846"/>
<stop offset="0.3" stop-color="#E2C898"/>
<stop offset="0.7" stop-color="#F8D88A"/>
<stop offset="1" stop-color="#A07841"/>
</linearGradient>
<linearGradient id="paint44_linear_6_31407" x1="139.347" y1="14.6778" x2="139.347" y2="74.6266" gradientUnits="userSpaceOnUse">
<stop stop-color="#C29846"/>
<stop offset="0.3" stop-color="#E2C898"/>
<stop offset="0.7" stop-color="#F8D88A"/>
<stop offset="1" stop-color="#A07841"/>
</linearGradient>
<linearGradient id="paint45_linear_6_31407" x1="146.894" y1="14.6779" x2="146.894" y2="74.6267" gradientUnits="userSpaceOnUse">
<stop stop-color="#C29846"/>
<stop offset="0.3" stop-color="#E2C898"/>
<stop offset="0.7" stop-color="#F8D88A"/>
<stop offset="1" stop-color="#A07841"/>
</linearGradient>
<linearGradient id="paint46_linear_6_31407" x1="167.262" y1="32.2354" x2="152.028" y2="32.2354" gradientUnits="userSpaceOnUse">
<stop stop-color="#414042"/>
<stop offset="1" stop-color="#6D6E71"/>
</linearGradient>
<linearGradient id="paint47_linear_6_31407" x1="-72064.6" y1="23.1635" x2="-72070.7" y2="23.1635" gradientUnits="userSpaceOnUse">
<stop stop-color="#414042"/>
<stop offset="1" stop-color="#6D6E71"/>
</linearGradient>
<linearGradient id="paint48_linear_6_31407" x1="192.905" y1="31.1901" x2="183.093" y2="31.1901" gradientUnits="userSpaceOnUse">
<stop stop-color="#414042"/>
<stop offset="1" stop-color="#6D6E71"/>
</linearGradient>
<linearGradient id="paint49_linear_6_31407" x1="192.905" y1="22.5968" x2="183.093" y2="22.5968" gradientUnits="userSpaceOnUse">
<stop stop-color="#414042"/>
<stop offset="1" stop-color="#6D6E71"/>
</linearGradient>
<radialGradient id="paint50_radial_6_31407" cx="0" cy="0" r="1" gradientUnits="userSpaceOnUse" gradientTransform="translate(177.216 -18.0063) rotate(-90) scale(30.723 30.723)">
<stop stop-color="#C29846"/>
<stop offset="0.3" stop-color="#E2C898"/>
<stop offset="0.7" stop-color="#F8D88A"/>
<stop offset="1" stop-color="#A07841"/>
</radialGradient>
<radialGradient id="paint51_radial_6_31407" cx="0" cy="0" r="1" gradientUnits="userSpaceOnUse" gradientTransform="translate(123.496 -17.4294) rotate(99) scale(36.755 36.755)">
<stop stop-color="#9F8745"/>
<stop offset="0.2" stop-color="#928248"/>
<stop offset="0.3" stop-color="#847C4C"/>
<stop offset="0.7" stop-color="#4B7A46"/>
<stop offset="1" stop-color="#1D4527"/>
</radialGradient>
<radialGradient id="paint52_radial_6_31407" cx="0" cy="0" r="1" gradientUnits="userSpaceOnUse" gradientTransform="translate(170.405 28.5679) scale(4.2688)">
<stop stop-color="#9F8745"/>
<stop offset="0.2" stop-color="#928248"/>
<stop offset="0.3" stop-color="#847C4C"/>
<stop offset="0.7" stop-color="#4B7A46"/>
<stop offset="1" stop-color="#1D4527"/>
</radialGradient>
<radialGradient id="paint53_radial_6_31407" cx="0" cy="0" r="1" gradientUnits="userSpaceOnUse" gradientTransform="translate(177.735 38.5893) rotate(90) scale(43.8325 43.8325)">
<stop stop-color="#C29846"/>
<stop offset="0.3" stop-color="#E2C898"/>
<stop offset="0.7" stop-color="#F8D88A"/>
<stop offset="1" stop-color="#A07841"/>
</radialGradient>
<radialGradient id="paint54_radial_6_31407" cx="0" cy="0" r="1" gradientUnits="userSpaceOnUse" gradientTransform="translate(177.735 38.5893) rotate(90) scale(43.8324 43.8325)">
<stop stop-color="#C29846"/>
<stop offset="0.3" stop-color="#E2C898"/>
<stop offset="0.7" stop-color="#F8D88A"/>
<stop offset="1" stop-color="#A07841"/>
</radialGradient>
<radialGradient id="paint55_radial_6_31407" cx="0" cy="0" r="1" gradientUnits="userSpaceOnUse" gradientTransform="translate(177.736 38.5901) rotate(90) scale(43.8325 43.8325)">
<stop stop-color="#C29846"/>
<stop offset="0.3" stop-color="#E2C898"/>
<stop offset="0.7" stop-color="#F8D88A"/>
<stop offset="1" stop-color="#A07841"/>
</radialGradient>
<radialGradient id="paint56_radial_6_31407" cx="0" cy="0" r="1" gradientUnits="userSpaceOnUse" gradientTransform="translate(169.972 34.7848) scale(5.53706 5.53706)">
<stop stop-color="#9F8745"/>
<stop offset="0.2" stop-color="#928248"/>
<stop offset="0.3" stop-color="#847C4C"/>
<stop offset="0.7" stop-color="#4B7A46"/>
<stop offset="1" stop-color="#1D4527"/>
</radialGradient>
<radialGradient id="paint57_radial_6_31407" cx="0" cy="0" r="1" gradientUnits="userSpaceOnUse" gradientTransform="translate(172.321 21.0802) scale(8.50666 8.50667)">
<stop stop-color="#9F8745"/>
<stop offset="0.2" stop-color="#928248"/>
<stop offset="0.3" stop-color="#847C4C"/>
<stop offset="0.7" stop-color="#4B7A46"/>
<stop offset="1" stop-color="#1D4527"/>
</radialGradient>
<radialGradient id="paint58_radial_6_31407" cx="0" cy="0" r="1" gradientUnits="userSpaceOnUse" gradientTransform="translate(178.509 14.3996) rotate(90) scale(28.5515 28.5515)">
<stop stop-color="#C29846"/>
<stop offset="0.3" stop-color="#E2C898"/>
<stop offset="0.7" stop-color="#F8D88A"/>
<stop offset="1" stop-color="#A07841"/>
</radialGradient>
<clipPath id="clip0_6_31407">
<rect width="199.778" height="58" fill="white" transform="translate(0.111084)"/>
</clipPath>
</defs>
</svg>
