<svg width="290" height="58" viewBox="0 0 290 58" fill="none" xmlns="http://www.w3.org/2000/svg">
<g clip-path="url(#clip0_6_30949)">
<path d="M259.308 9.72005e-05C244.235 -0.0396737 231.986 12.1302 231.946 27.2034C231.906 42.2766 244.076 54.526 259.149 54.5658C274.223 54.6056 286.472 42.4357 286.512 27.3625V27.283C286.512 12.2495 274.342 0.0398681 259.308 9.72005e-05ZM259.308 51.8216C245.747 51.8614 234.73 40.8846 234.69 27.3227C234.65 13.7608 245.627 2.7443 259.189 2.70453C272.751 2.66476 283.768 13.6415 283.807 27.2034V27.283C283.807 40.8051 272.87 51.8216 259.308 51.8216Z" fill="#2DAC64"/>
<path d="M273.745 37.7428C272.751 37.3451 271.677 37.1463 270.603 37.186C268.058 37.186 264.2 37.9814 259.348 41.5608H259.308L259.229 41.4813C254.377 37.9019 250.559 37.186 248.014 37.186C246.94 37.1463 245.866 37.3451 244.872 37.7428C244.832 37.7826 244.713 37.8223 244.713 37.9417C244.713 38.0212 244.792 38.0212 244.911 38.0212C244.951 38.0212 244.951 38.0212 244.991 38.0212C245.587 37.8621 246.184 37.7826 246.82 37.7826C250.121 37.7826 254.337 40.2484 257.757 42.754C257.081 43.3107 256.365 43.9073 255.65 44.6232C255.57 44.5436 255.53 44.5039 255.411 44.4243C255.172 44.1857 254.854 44.0266 254.536 43.9073C254.377 43.8278 254.178 43.8278 254.019 43.8675C253.661 43.9471 253.462 44.2652 253.502 44.6232C253.502 44.9016 253.741 45.18 254.019 45.2197C254.218 45.2197 254.417 45.1004 254.536 44.9414C254.655 45.0607 254.775 45.1402 254.894 45.2595L255.053 45.4186L254.854 45.6174C254.695 45.7765 254.536 45.8959 254.377 46.0549C254.059 46.3333 253.701 46.572 253.303 46.7708C253.184 46.8504 253.025 46.8901 252.866 46.8901C252.786 46.8901 252.706 46.8504 252.627 46.8504H252.587C252.587 46.8504 252.587 46.8504 252.547 46.8504C252.508 46.8106 252.428 46.8106 252.388 46.8106C252.349 46.8106 252.349 46.8106 252.309 46.8106C252.189 46.8106 252.07 46.8901 252.03 46.9697C251.951 47.089 251.951 47.2481 251.991 47.4071C252.03 47.5264 252.07 47.606 252.15 47.6855C252.388 47.9639 252.706 48.123 253.064 48.1628C253.144 48.1628 253.184 48.1628 253.263 48.1628C253.343 48.1628 253.383 48.1628 253.462 48.1628C253.78 48.123 254.059 48.0435 254.337 47.9242C254.854 47.6856 255.331 47.3674 255.769 47.0094L256.206 46.6515C256.365 46.8106 256.485 46.9299 256.644 47.0492C256.843 47.2481 257.081 47.3674 257.32 47.4867C257.399 47.5265 257.479 47.5265 257.559 47.5265C257.598 47.5265 257.638 47.5265 257.638 47.5265C257.678 47.5265 257.718 47.5265 257.757 47.5265C257.996 47.4469 258.195 47.2481 258.235 47.0094C258.274 46.731 258.195 46.4526 257.956 46.2936C257.757 46.1742 257.479 46.1742 257.32 46.3731C257.28 46.4129 257.28 46.4129 257.24 46.4526C257.121 46.3333 257.002 46.214 256.922 46.0947C257.638 45.4584 258.513 44.7823 259.308 44.1459C260.144 44.7823 261.058 45.4584 261.774 46.0947C261.655 46.214 261.536 46.3333 261.456 46.4526C261.416 46.4129 261.416 46.4129 261.377 46.3731C261.217 46.214 260.939 46.1742 260.74 46.2936C260.541 46.4526 260.422 46.731 260.462 47.0094C260.502 47.2481 260.661 47.4867 260.939 47.5265C260.979 47.5265 261.019 47.5265 261.058 47.5265C261.098 47.5265 261.138 47.5265 261.138 47.5265C261.217 47.5265 261.297 47.5265 261.377 47.4867C261.615 47.4071 261.854 47.2481 262.053 47.0492C262.212 46.9299 262.331 46.7708 262.49 46.6515L262.928 47.0094C263.365 47.3674 263.842 47.6856 264.359 47.9242C264.638 48.0435 264.916 48.1628 265.234 48.1628C265.314 48.1628 265.354 48.1628 265.433 48.1628C265.513 48.1628 265.553 48.1628 265.632 48.1628C265.99 48.123 266.308 47.9639 266.547 47.6855C266.626 47.606 266.666 47.5264 266.706 47.4071C266.746 47.2481 266.706 47.089 266.666 46.9697C266.626 46.8504 266.507 46.8106 266.388 46.8106C266.348 46.8106 266.348 46.8106 266.308 46.8106C266.268 46.8106 266.189 46.8504 266.149 46.8504C266.149 46.8504 266.149 46.8504 266.109 46.8504H266.07C265.99 46.8901 265.91 46.8901 265.831 46.8901C265.672 46.8901 265.513 46.8504 265.393 46.7708C264.996 46.572 264.638 46.3333 264.32 46.0549C264.161 45.8959 264.001 45.7765 263.842 45.6174L263.644 45.4186L263.803 45.2595C263.922 45.1402 264.041 45.0607 264.161 44.9414C264.28 45.1402 264.479 45.2197 264.678 45.2197C264.956 45.18 265.195 44.9413 265.195 44.6232C265.234 44.2652 265.035 43.9471 264.678 43.8675C264.518 43.8278 264.32 43.8278 264.161 43.9073C263.842 44.0266 263.524 44.2255 263.286 44.4243C263.206 44.5039 263.166 44.5436 263.047 44.6232C262.331 43.9868 261.615 43.3107 260.939 42.754C264.32 40.2882 268.575 37.8224 271.836 37.8224C272.473 37.8224 273.069 37.9019 273.666 38.061C273.666 38.061 273.706 38.061 273.745 38.061C273.825 38.061 273.904 38.0212 273.944 37.9814C273.904 37.8621 273.825 37.7826 273.745 37.7428Z" fill="#2DAC64"/>
<path d="M260.74 36.2316C260.462 36.8281 260.223 37.4247 260.024 38.061C260.74 37.7031 261.496 37.4645 262.291 37.3451C266.268 36.51 266.507 32.8908 266.626 32.1749C266.507 32.3738 266.229 32.8113 263.842 32.9306C262.57 32.9704 260.462 33.1294 259.388 35.2373C259.587 35.635 259.746 36.0725 259.825 36.51C261.178 33.2488 264.518 33.726 265.115 33.5669C264.518 33.8055 262.092 33.9249 260.74 36.2316Z" fill="#2DAC64"/>
<path d="M259.229 40.0098L259.825 39.7314C259.666 33.3681 256.246 33.0101 254.576 32.9306C252.15 32.8113 251.871 32.4136 251.792 32.1749C251.911 32.8908 252.15 36.4702 256.127 37.3451C256.763 37.4247 257.399 37.6235 257.916 37.9417C257.439 33.7658 254.019 33.8851 253.343 33.5669C253.979 33.726 258.871 32.6522 258.672 39.7314L259.229 40.0098Z" fill="#2DAC64"/>
<path d="M257.24 21.6752C257.201 22.8286 258.075 23.8229 259.229 23.9422C260.382 23.8626 261.257 22.8286 261.217 21.6752C261.257 19.9253 259.229 16.6243 259.229 16.6243C259.229 16.6243 257.121 19.8458 257.24 21.6752ZM260.064 23.1468C259.825 23.3456 259.507 23.4649 259.189 23.4649C258.274 23.3854 257.598 22.59 257.678 21.715C257.718 21.2378 257.837 20.8003 258.036 20.4026C257.956 20.6014 257.956 20.84 257.916 21.0389C257.837 22.1525 258.672 23.107 259.786 23.1865C259.865 23.1865 259.985 23.1865 260.064 23.1468Z" fill="#2DAC64"/>
<path d="M253.78 28.3967C253.78 32.0159 258.911 33.209 258.911 33.209V32.0556C258.911 28.2774 253.78 27.2433 253.78 27.2433V28.3967Z" fill="#2DAC64"/>
<path d="M259.467 32.0555V33.1691C259.467 33.1691 264.598 32.0157 264.598 28.3568V27.283C264.598 27.283 259.467 28.317 259.467 32.0555Z" fill="#2DAC64"/>
<path d="M255.093 24.3002C255.093 27.2432 258.99 28.1977 258.99 28.1977V27.283C258.99 24.2206 255.093 23.3854 255.093 23.3854V24.3002Z" fill="#2DAC64"/>
<path d="M259.388 27.283V28.1977C259.388 28.1977 263.285 27.2432 263.285 24.3002V23.3854C263.325 23.3854 259.388 24.2206 259.388 27.283Z" fill="#2DAC64"/>
<path d="M245.508 18.0165C248.888 14.5962 251.076 13.9996 253.82 13.5621C251.036 15.312 248.451 19.4482 249.246 22.3515C250.718 19.2891 253.303 16.2665 255.65 15.1927C254.297 17.0222 254.258 19.5277 255.57 21.4367C255.848 18.8516 257.678 16.3461 259.189 14.6757C260.7 16.3461 262.53 18.8516 262.808 21.4367C264.081 19.5675 264.041 17.0619 262.729 15.1927C265.115 16.3063 267.66 19.2891 269.132 22.3515C269.927 19.4482 267.342 15.312 264.558 13.5621C267.263 13.9996 269.45 14.5962 272.87 18.0165C271.757 13.4428 267.78 11.8519 264.638 11.2952C268.098 11.0168 268.814 11.3349 271.876 12.6076C268.535 9.30662 266.189 8.74983 262.888 9.06799C263.445 8.59074 264.121 8.2328 264.837 8.07372C263.445 7.51693 261.257 7.79532 260.382 8.63051C260.303 7.79532 259.865 7.03967 259.229 6.52264C258.553 7.03967 258.155 7.79532 258.076 8.63051C257.24 7.79532 255.053 7.51693 253.621 8.07372C254.337 8.2328 255.013 8.59074 255.57 9.06799C252.229 8.74983 249.883 9.34639 246.582 12.6076C249.644 11.3349 250.36 10.977 253.82 11.2952C250.599 11.8519 246.622 13.4428 245.508 18.0165Z" fill="#2DAC64"/>
<path d="M4.4165 41.7994H4.37673L2.07001 35.8337H0.359863V43.6288H1.43368V37.1462L4.01879 43.6288H4.6949L7.28001 37.1462V43.6288H8.39359V35.8337H6.68344L4.4165 41.7994Z" fill="#123453"/>
<path d="M11.2571 38.4188H10.2231V43.6288H11.2571V38.4188Z" fill="#123453"/>
<path d="M10.7401 35.8735C10.581 35.8735 10.3822 35.953 10.2628 36.0723C9.98445 36.311 9.98445 36.7484 10.2628 37.0268C10.3822 37.1462 10.5412 37.2257 10.7401 37.2257C10.9389 37.2257 11.098 37.1462 11.2173 37.0268C11.3367 36.9075 11.4162 36.7484 11.4162 36.5496C11.4162 36.3507 11.3367 36.1916 11.2173 36.0723C11.098 35.953 10.9389 35.8735 10.7401 35.8735Z" fill="#123453"/>
<path d="M17.2227 38.8961C17.0636 38.6972 16.8648 38.5381 16.6262 38.4188C16.1887 38.2199 15.6716 38.1802 15.1944 38.3392C15.0353 38.379 14.8762 38.4586 14.7171 38.5381C14.5581 38.6176 14.4388 38.737 14.3194 38.8563C14.2001 38.9756 14.1206 39.0949 14.041 39.254H14.0013C14.0013 39.1347 14.0013 39.0153 14.0013 38.8563C14.0013 38.6972 14.0013 38.5381 13.9615 38.4188H12.9672C12.9672 38.5779 13.007 38.7767 13.007 39.0154C13.007 39.254 13.007 39.4131 13.007 39.5722V43.6686H14.041V40.9244C14.0013 40.4869 14.1604 40.0494 14.4388 39.6915C14.6774 39.3733 15.0353 39.2142 15.433 39.2142C15.6319 39.2142 15.8307 39.254 16.0296 39.3335C16.1887 39.4131 16.308 39.5324 16.3875 39.6915C16.4671 39.8506 16.5466 40.0096 16.5466 40.2085C16.5864 40.4073 16.5864 40.6062 16.5864 40.8051V43.7083H17.6204V40.4073C17.6204 40.1289 17.5807 39.8506 17.5011 39.5722C17.5011 39.3335 17.3818 39.0949 17.2227 38.8961Z" fill="#123453"/>
<path d="M20.4839 38.4188H19.4499V43.6288H20.4839V38.4188Z" fill="#123453"/>
<path d="M19.9669 35.8735C19.8078 35.8735 19.609 35.953 19.4897 36.0723C19.2113 36.311 19.2113 36.7484 19.4897 37.0268C19.609 37.1462 19.7681 37.2257 19.9669 37.2257C20.1658 37.2257 20.3249 37.1462 20.4442 37.0268C20.5635 36.9075 20.643 36.7484 20.643 36.5496C20.643 36.3507 20.5635 36.1916 20.4442 36.0723C20.3249 35.953 20.126 35.8735 19.9669 35.8735Z" fill="#123453"/>
<path d="M25.336 41.0437C25.1769 40.9244 24.9781 40.8051 24.7792 40.7255C24.5406 40.646 24.3417 40.5664 24.1031 40.5267C23.7849 40.4471 23.5065 40.3676 23.2281 40.2483C23.0293 40.1687 22.91 39.9699 22.9497 39.771C22.9497 39.6517 22.9895 39.5722 23.0293 39.4528C23.069 39.3733 23.1486 39.2938 23.2679 39.254C23.3474 39.2142 23.4668 39.1347 23.5861 39.1347C23.7054 39.0949 23.8247 39.0949 23.944 39.0949C24.1826 39.0949 24.4213 39.1347 24.6599 39.2938C24.8587 39.4131 25.0178 39.5722 25.1371 39.771L25.853 39.1745C25.6542 38.8961 25.3758 38.6574 25.0576 38.5381C24.6997 38.379 24.3417 38.2995 23.9838 38.2995C23.7452 38.2995 23.5065 38.3393 23.2679 38.379C23.0293 38.4188 22.8304 38.5381 22.6316 38.6574C22.4725 38.7767 22.3134 38.9756 22.1941 39.1347C22.0748 39.3733 21.9952 39.6119 22.035 39.8506C22.035 40.0494 22.0748 40.288 22.1941 40.4471C22.2736 40.6062 22.3929 40.7653 22.552 40.8448C22.7111 40.9641 22.8702 41.0437 23.0293 41.0835C23.1884 41.163 23.3872 41.2028 23.5463 41.2425C23.9042 41.3221 24.2224 41.4414 24.5803 41.5607C24.7792 41.6403 24.9383 41.8789 24.9383 42.1175C24.9383 42.2368 24.8985 42.3561 24.8587 42.4754C24.819 42.555 24.6997 42.6345 24.6201 42.7141C24.5008 42.7936 24.4213 42.8334 24.3019 42.8334C24.1826 42.8731 24.0633 42.8732 23.944 42.8732C23.6656 42.8732 23.3872 42.7936 23.1486 42.6743C22.91 42.555 22.7111 42.3561 22.5918 42.1573L21.8362 42.7936C22.0748 43.1118 22.3929 43.3504 22.7509 43.5095C23.1088 43.6686 23.5065 43.7481 23.9042 43.7481C24.1429 43.7481 24.4213 43.7083 24.6599 43.6686C24.8985 43.6288 25.1371 43.5095 25.336 43.3902C25.5348 43.2709 25.6939 43.072 25.8132 42.8732C25.9326 42.6345 25.9723 42.3561 25.9723 42.0777C25.9723 41.8789 25.9326 41.68 25.853 41.4812C25.6144 41.3221 25.4951 41.163 25.336 41.0437Z" fill="#123453"/>
<path d="M28.3188 36.9075H27.2848V38.3791H26.2905V39.2142H27.2848V42.038C27.245 42.4754 27.4041 42.9129 27.6825 43.2709C28.0006 43.5493 28.3984 43.7084 28.7961 43.6686C28.9552 43.6686 29.1142 43.6686 29.2733 43.6288C29.4324 43.589 29.5517 43.589 29.671 43.5095L29.6313 42.6743C29.5517 42.7141 29.4324 42.7539 29.3529 42.7539C29.2733 42.7936 29.154 42.7936 29.0347 42.7936C28.8358 42.8334 28.637 42.7539 28.4779 42.5948C28.3586 42.3959 28.279 42.1573 28.3188 41.9187V39.2142H29.7108V38.4188H28.3188V36.9075Z" fill="#123453"/>
<path d="M32.4152 38.5381C32.1368 38.737 31.938 38.9756 31.7789 39.2938H31.7391C31.7391 39.1745 31.7391 39.0551 31.7391 38.8563C31.7391 38.6972 31.7391 38.5381 31.6994 38.379H30.7051C30.7051 38.5381 30.7449 38.737 30.7449 38.9756C30.7449 39.2142 30.7449 39.3733 30.7449 39.5324V43.6288H31.7789V40.8846C31.7789 40.6857 31.8187 40.4471 31.8584 40.2483C31.8982 40.0494 32.0175 39.8903 32.1368 39.7312C32.2561 39.5722 32.4152 39.4529 32.6141 39.3733C32.8129 39.2938 33.0516 39.2142 33.2504 39.2142C33.4095 39.2142 33.5686 39.2142 33.7277 39.254L33.7674 38.2995C33.6481 38.2597 33.489 38.2597 33.3697 38.2597C33.0118 38.2597 32.6936 38.379 32.4152 38.5381Z" fill="#123453"/>
<path d="M36.7105 42.5152L35.0799 38.4188H33.9265L36.1537 43.6288L35.8355 44.5038C35.756 44.7424 35.6367 44.9413 35.4776 45.1401C35.3185 45.2992 35.0799 45.3787 34.881 45.3787C34.7219 45.3787 34.5231 45.339 34.364 45.2992L34.2844 46.2139C34.4038 46.2537 34.5231 46.2537 34.6424 46.2537C34.7617 46.2537 34.881 46.2537 34.9606 46.2537C35.1992 46.2537 35.398 46.2139 35.6367 46.1742C35.8355 46.1344 35.9946 46.0151 36.1139 45.8958C36.273 45.7764 36.3923 45.6174 36.4719 45.4583C36.5912 45.2594 36.6707 45.0606 36.7502 44.8617L39.2558 38.4188H38.1422L36.7105 42.5152Z" fill="#123453"/>
<path d="M47.4487 39.0552C47.1703 38.8166 46.8919 38.6178 46.5737 38.4985C45.8578 38.2201 45.0624 38.2201 44.3466 38.4985C44.0284 38.6178 43.7102 38.8166 43.4716 39.0552C43.233 39.2939 43.0341 39.5723 42.875 39.9302C42.7159 40.2882 42.6762 40.6461 42.6762 41.0438C42.6762 41.4415 42.7557 41.7995 42.875 42.1574C42.9943 42.4756 43.1932 42.7937 43.4716 43.0323C43.7102 43.271 44.0284 43.4698 44.3466 43.5891C44.7045 43.7085 45.0624 43.788 45.4601 43.788C45.8181 43.788 46.2158 43.7085 46.5737 43.5891C46.8919 43.4698 47.2101 43.271 47.4487 43.0323C47.6873 42.7937 47.8862 42.4756 48.0453 42.1574C48.3237 41.4415 48.3237 40.6461 48.0453 39.9302C47.9259 39.5723 47.7271 39.2939 47.4487 39.0552ZM47.051 41.7199C46.8919 42.1574 46.5737 42.5153 46.176 42.754C45.9374 42.8733 45.6988 42.913 45.4204 42.913C45.1817 42.913 44.9034 42.8733 44.6647 42.754C44.4659 42.6744 44.267 42.5153 44.1079 42.3165C43.9488 42.1574 43.8295 41.9188 43.7898 41.7199C43.7102 41.4813 43.6705 41.2427 43.6705 41.004C43.6705 40.7654 43.7102 40.5268 43.7898 40.2882C43.8693 40.0495 43.9886 39.8507 44.1079 39.6916C44.267 39.5325 44.4261 39.3734 44.6647 39.2939C44.9034 39.1746 45.142 39.1348 45.4204 39.1348C45.659 39.1348 45.9374 39.1746 46.176 39.2939C46.3749 39.3734 46.5737 39.5325 46.7328 39.6916C46.8919 39.8507 47.0112 40.0495 47.051 40.2882C47.1305 40.5268 47.1703 40.7654 47.1703 41.004C47.1703 41.2427 47.1305 41.4813 47.051 41.7199Z" fill="#123453"/>
<path d="M50.9485 35.3566C50.7099 35.4759 50.511 35.5952 50.352 35.7941C50.1929 35.9929 50.0736 36.2315 49.994 36.4702C49.9145 36.7486 49.8747 37.027 49.8747 37.3054V38.3792H48.8407V39.2144H49.8747V43.5494H50.9087V39.2144H52.1019V38.4189H50.9087V37.3451C50.9087 37.186 50.9088 37.027 50.9485 36.8679C50.9883 36.7088 51.0281 36.5895 51.0678 36.4702C51.1474 36.3508 51.2269 36.2713 51.3462 36.1918C51.5053 36.1122 51.6644 36.0725 51.8235 36.0725C51.903 36.0725 52.0223 36.0725 52.1019 36.1122C52.1814 36.1122 52.261 36.152 52.3405 36.152L52.4598 35.277C52.261 35.2373 52.0223 35.1975 51.8235 35.1975C51.5053 35.1975 51.2269 35.2373 50.9485 35.3566Z" fill="#123453"/>
<path d="M57.2323 40.0494H60.8912V39.1347H57.2323V36.828H61.1298V35.8337H56.1585V43.6288H61.2889V42.6346H57.2323V40.0494Z" fill="#123453"/>
<path d="M66.8569 38.8961C66.6978 38.6972 66.4989 38.5381 66.2603 38.4188C65.8228 38.2199 65.3058 38.1802 64.8285 38.3392C64.6695 38.379 64.5104 38.4586 64.3513 38.5381C64.1922 38.6176 64.0729 38.737 63.9536 38.8563C63.8343 38.9756 63.7547 39.0949 63.6752 39.254H63.6354C63.6354 39.1347 63.6354 39.0153 63.6354 38.8563C63.6354 38.6972 63.6354 38.5381 63.5957 38.4188H62.6014C62.6014 38.5779 62.6411 38.7767 62.6411 39.0154C62.6411 39.254 62.6411 39.4131 62.6411 39.5722V43.6686H63.6752V40.9244C63.6354 40.4869 63.7945 40.0494 64.0729 39.6915C64.3115 39.3733 64.6695 39.2142 65.0672 39.2142C65.266 39.2142 65.4649 39.254 65.6637 39.3335C65.8228 39.4131 65.9421 39.5324 66.0217 39.6915C66.1012 39.8506 66.1808 40.0096 66.2205 40.2085C66.2603 40.4073 66.2603 40.6062 66.2603 40.8051V43.7083H67.2943V40.4073C67.2943 40.1289 67.2546 39.8506 67.175 39.5722C67.1353 39.3335 67.0159 39.0949 66.8569 38.8961Z" fill="#123453"/>
<path d="M70.9533 42.5152L69.4022 38.4188H68.2886L70.3965 43.6288H71.5101L73.5781 38.4188H72.5043L70.9533 42.5152Z" fill="#123453"/>
<path d="M75.1292 35.8735C74.9701 35.8735 74.7713 35.953 74.652 36.0723C74.4133 36.311 74.3736 36.7484 74.652 37.0268C74.7713 37.1462 74.9701 37.2257 75.1292 37.2257C75.3281 37.2257 75.4872 37.1462 75.6065 37.0268C75.7258 36.9075 75.8053 36.7484 75.8053 36.5496C75.8053 36.3507 75.7258 36.1916 75.6065 36.0723C75.4474 35.953 75.2883 35.8735 75.1292 35.8735Z" fill="#123453"/>
<path d="M75.6462 38.4188H74.6122V43.6288H75.6462V38.4188Z" fill="#123453"/>
<path d="M79.0665 38.5381C78.7881 38.737 78.5893 38.9756 78.4302 39.2938H78.3904C78.3904 39.1745 78.3904 39.0551 78.3904 38.8563C78.3904 38.6972 78.3904 38.5381 78.3507 38.379H77.3564C77.3564 38.5381 77.3962 38.737 77.3962 38.9756C77.3962 39.2142 77.3962 39.3733 77.3962 39.5324V43.6288H78.4302V40.8846C78.4302 40.6857 78.47 40.4471 78.5098 40.2483C78.5495 40.0494 78.6688 39.8903 78.7881 39.7312C78.9075 39.5722 79.0665 39.4529 79.2654 39.3733C79.4643 39.2938 79.7029 39.2142 79.9017 39.2142C80.0608 39.2142 80.2199 39.2142 80.379 39.254L80.4188 38.2995C80.2994 38.2597 80.1404 38.2597 80.021 38.2597C79.7029 38.2597 79.3449 38.379 79.0665 38.5381Z" fill="#123453"/>
<path d="M85.6685 39.0552C85.3901 38.8166 85.1117 38.6178 84.7935 38.4985C84.0777 38.2201 83.2822 38.2201 82.5664 38.4985C82.2482 38.6178 81.93 38.8166 81.6914 39.0552C81.4528 39.2939 81.2539 39.5723 81.0949 39.9302C80.9358 40.2882 80.896 40.6461 80.896 41.0438C80.896 41.4415 80.9755 41.7995 81.0949 42.1574C81.2142 42.4756 81.413 42.7937 81.6914 43.0323C81.93 43.271 82.2482 43.4698 82.5664 43.5891C82.9243 43.7085 83.2823 43.788 83.68 43.788C84.0777 43.788 84.4356 43.7085 84.7935 43.5891C85.1117 43.4698 85.4299 43.271 85.6685 43.0323C85.9071 42.7937 86.106 42.4756 86.2651 42.1574C86.5435 41.4415 86.5435 40.6461 86.2651 39.9302C86.106 39.5723 85.9071 39.2939 85.6685 39.0552ZM85.2708 41.7199C85.1117 42.1574 84.7935 42.5153 84.3958 42.754C84.1572 42.8733 83.9186 42.913 83.6402 42.913C83.4016 42.913 83.1232 42.8733 82.8845 42.754C82.6857 42.6744 82.4868 42.5153 82.3277 42.3165C82.1687 42.1574 82.0493 41.9188 82.0096 41.7199C81.93 41.4813 81.8903 41.2427 81.8903 41.004C81.8903 40.7654 81.93 40.5268 82.0096 40.2882C82.0891 40.0495 82.2084 39.8507 82.3277 39.6916C82.4868 39.5325 82.6459 39.3734 82.8845 39.2939C83.1232 39.1746 83.3618 39.1348 83.6402 39.1348C83.8788 39.1348 84.1572 39.1746 84.3958 39.2939C84.5947 39.3734 84.7935 39.5325 84.9526 39.6916C85.1117 39.8507 85.231 40.0495 85.2708 40.2882C85.4299 40.7654 85.4299 41.2824 85.2708 41.7199Z" fill="#123453"/>
<path d="M92.0716 38.8961C91.9125 38.6972 91.7137 38.5381 91.475 38.4188C91.0376 38.2199 90.5206 38.1802 90.0433 38.3392C89.8842 38.379 89.7251 38.4586 89.5661 38.5381C89.407 38.6176 89.2877 38.737 89.1683 38.8563C89.049 38.9756 88.9695 39.0949 88.8899 39.254H88.8502C88.8502 39.1347 88.8502 39.0153 88.8502 38.8563C88.8502 38.6972 88.8502 38.5381 88.8104 38.4188H87.8161C87.8161 38.5779 87.8559 38.7767 87.8559 39.0154C87.8559 39.254 87.8559 39.4131 87.8559 39.5722V43.6686H88.8899V40.9244C88.8502 40.4869 89.0093 40.0494 89.2876 39.6915C89.5263 39.3733 89.8842 39.2142 90.2819 39.2142C90.4808 39.2142 90.6796 39.254 90.8785 39.3335C91.0376 39.4131 91.1569 39.5324 91.2364 39.6915C91.316 39.8506 91.3955 40.0096 91.4353 40.2085C91.4751 40.4073 91.475 40.6062 91.475 40.8051V43.7083H92.5091V40.4073C92.5091 40.1289 92.4693 39.8506 92.3898 39.5722C92.35 39.3335 92.2307 39.0949 92.0716 38.8961Z" fill="#123453"/>
<path d="M101.776 38.8962C101.617 38.6974 101.418 38.5383 101.179 38.4189C100.901 38.2996 100.622 38.2201 100.304 38.2599C99.9463 38.2599 99.5883 38.3394 99.2702 38.5383C98.952 38.7371 98.7134 38.9757 98.5145 39.2939C98.3952 38.9757 98.1566 38.6974 97.8384 38.4985C97.56 38.3394 97.2021 38.2599 96.8839 38.2599C96.168 38.2599 95.5317 38.6178 95.2135 39.2541H95.1738C95.1738 39.1348 95.1738 39.0155 95.1738 38.8564C95.1738 38.6973 95.1738 38.5383 95.134 38.4189H94.1397C94.1397 38.578 94.1795 38.7769 94.1795 39.0155C94.1795 39.2541 94.1795 39.4132 94.1795 39.5723V43.6687H95.2135V40.9245C95.1738 40.487 95.3328 40.0496 95.5715 39.6916C95.8101 39.4132 96.168 39.2144 96.526 39.2144C96.685 39.2144 96.8839 39.2541 97.043 39.3337C97.1623 39.4132 97.2816 39.4928 97.4009 39.6121C97.4805 39.7314 97.56 39.8905 97.5998 40.0495C97.6396 40.2484 97.6395 40.4075 97.6395 40.6064V43.7085H98.6736V40.8052C98.6736 40.6064 98.7134 40.4075 98.7531 40.2086C98.7929 40.0098 98.8725 39.8507 98.9918 39.6916C99.1111 39.5325 99.2304 39.4132 99.3895 39.2939C99.5883 39.1746 99.7872 39.1348 99.986 39.1348C100.344 39.0951 100.702 39.2939 100.901 39.6121C100.98 39.7712 101.06 39.9302 101.1 40.1291C101.139 40.3279 101.139 40.5268 101.139 40.7257V43.6289H102.173V40.4075C102.173 40.1291 102.134 39.8507 102.054 39.5723C102.054 39.3337 101.935 39.0951 101.776 38.8962Z" fill="#123453"/>
<path d="M108.179 39.0154C107.94 38.7767 107.702 38.5779 107.383 38.4586C107.065 38.3392 106.707 38.2597 106.349 38.2597C105.991 38.2597 105.634 38.3392 105.276 38.4586C104.957 38.5779 104.679 38.7767 104.401 39.0154C104.162 39.254 103.963 39.5722 103.844 39.8903C103.565 40.6062 103.565 41.4016 103.844 42.1175C103.963 42.4357 104.162 42.7538 104.401 42.9925C104.639 43.2311 104.957 43.4299 105.276 43.5493C106.031 43.8277 106.866 43.8276 107.622 43.4697C108.02 43.2709 108.338 42.9925 108.616 42.6743L107.9 42.0777C107.741 42.3164 107.543 42.5152 107.304 42.6345C107.026 42.7936 106.707 42.8731 106.389 42.8731C105.952 42.8731 105.554 42.7141 105.236 42.3959C104.918 42.1175 104.719 41.7198 104.719 41.2823H108.855C108.855 41.2425 108.855 41.163 108.855 41.1232V40.9641C108.855 40.5664 108.815 40.2085 108.696 39.8505C108.577 39.5324 108.417 39.254 108.179 39.0154ZM104.719 40.5664C104.759 40.1687 104.918 39.8108 105.236 39.5324C105.395 39.4131 105.554 39.2938 105.753 39.2142C105.952 39.1347 106.151 39.0949 106.389 39.0949C106.588 39.0949 106.827 39.1347 107.026 39.2142C107.185 39.2938 107.344 39.3733 107.463 39.5324C107.582 39.6517 107.662 39.8108 107.741 40.0096C107.821 40.2085 107.821 40.4074 107.861 40.5664H104.719Z" fill="#123453"/>
<path d="M114.463 38.8961C114.304 38.6972 114.105 38.5381 113.866 38.4188C113.429 38.2199 112.912 38.1802 112.434 38.3392C112.275 38.379 112.116 38.4586 111.957 38.5381C111.798 38.6176 111.679 38.737 111.559 38.8563C111.44 38.9756 111.361 39.0949 111.281 39.254H111.241C111.241 39.1347 111.241 39.0153 111.241 38.8563C111.241 38.6972 111.241 38.5381 111.201 38.4188H110.247C110.247 38.5779 110.287 38.7767 110.287 39.0154C110.287 39.254 110.287 39.4131 110.287 39.5722V43.6686H111.321V40.9244C111.281 40.4869 111.44 40.0494 111.718 39.6915C111.957 39.3733 112.315 39.2142 112.713 39.2142C112.912 39.2142 113.11 39.254 113.309 39.3335C113.468 39.4131 113.588 39.5324 113.667 39.6915C113.747 39.8506 113.826 40.0096 113.866 40.2085C113.906 40.4073 113.906 40.6062 113.906 40.8051V43.7083H114.94V40.4073C114.94 40.1289 114.9 39.8506 114.821 39.5722C114.741 39.3335 114.622 39.0949 114.463 38.8961Z" fill="#123453"/>
<path d="M117.843 36.9075H116.809V38.3791H115.815V39.2142H116.809V42.038C116.769 42.4754 116.928 42.9129 117.207 43.2709C117.525 43.5493 117.923 43.7084 118.32 43.6686C118.48 43.6686 118.639 43.6686 118.798 43.6288C118.957 43.589 119.076 43.589 119.195 43.5095L119.156 42.6743C119.076 42.7141 118.957 42.7539 118.877 42.7539C118.798 42.7936 118.678 42.7936 118.559 42.7936C118.36 42.8334 118.161 42.7539 118.002 42.5948C117.883 42.3959 117.803 42.1573 117.843 41.9187V39.2142H119.235V38.4188H117.843V36.9075Z" fill="#123453"/>
<path d="M129.854 42.038H129.814L128.025 35.8337H126.831L125.002 42.038L123.292 35.8337H122.099L124.366 43.6288H125.519L127.388 37.3848H127.428L129.297 43.6288H130.451L132.718 35.8337H131.564L129.854 42.038Z" fill="#123453"/>
<path d="M137.53 42.5948V40.3278C137.53 40.0494 137.49 39.771 137.41 39.5324C137.251 39.0154 136.854 38.6177 136.337 38.4586C136.019 38.3393 135.7 38.2995 135.382 38.2995C134.984 38.2995 134.587 38.379 134.189 38.4984C133.831 38.6177 133.513 38.8165 133.274 39.0551L133.831 39.6915C134.03 39.4926 134.229 39.3733 134.467 39.254C134.746 39.1347 135.024 39.0949 135.303 39.0949C135.621 39.0949 135.979 39.1745 136.217 39.3733C136.456 39.5722 136.615 39.8903 136.575 40.2483V40.4074C136.138 40.4074 135.7 40.4073 135.263 40.4471C134.865 40.4869 134.467 40.5664 134.109 40.6858C133.791 40.8051 133.513 40.9641 133.274 41.2028C133.036 41.4414 132.916 41.7993 132.956 42.1175C132.956 42.3959 132.996 42.6345 133.155 42.8732C133.274 43.072 133.433 43.2311 133.632 43.3504C133.831 43.4697 134.03 43.5492 134.229 43.6288C134.428 43.6686 134.666 43.7083 134.865 43.7083C135.223 43.7083 135.581 43.6288 135.899 43.4697C136.178 43.3106 136.416 43.1118 136.615 42.8334H136.655C136.655 43.072 136.695 43.3504 136.734 43.589H137.649C137.609 43.4299 137.609 43.2709 137.609 43.1118C137.57 42.9527 137.53 42.7538 137.53 42.5948ZM136.575 41.4016C136.575 41.7993 136.456 42.1971 136.178 42.4754C135.899 42.7936 135.462 42.9527 135.064 42.9129C134.945 42.9129 134.786 42.9129 134.666 42.8732C134.547 42.8334 134.428 42.7936 134.308 42.7141C134.189 42.6345 134.109 42.555 134.07 42.4754C133.99 42.3561 133.99 42.2368 133.99 42.0777C133.99 41.8789 134.07 41.68 134.229 41.5607C134.388 41.4016 134.587 41.3221 134.786 41.2823C135.024 41.2028 135.263 41.163 135.541 41.163C135.82 41.1232 136.098 41.1232 136.337 41.1232H136.575V41.4016Z" fill="#123453"/>
<path d="M140.314 36.9075H139.28V38.3791H138.285V39.2142H139.28V42.038C139.24 42.4754 139.399 42.9129 139.677 43.2709C139.996 43.5493 140.393 43.7084 140.791 43.6686C140.95 43.6686 141.109 43.6686 141.268 43.6288C141.427 43.589 141.547 43.589 141.666 43.5095L141.626 42.6743C141.547 42.7141 141.427 42.7539 141.348 42.7539C141.268 42.7936 141.149 42.7936 141.03 42.7936C140.831 42.8334 140.632 42.7539 140.473 42.5948C140.354 42.3959 140.274 42.1573 140.314 41.9187V39.2142H141.706V38.4188H140.314V36.9075Z" fill="#123453"/>
<path d="M146.956 39.0154C146.717 38.7767 146.478 38.5779 146.16 38.4586C145.842 38.3392 145.484 38.2597 145.126 38.2597C144.768 38.2597 144.41 38.3392 144.052 38.4586C143.734 38.5779 143.456 38.7767 143.177 39.0154C142.939 39.254 142.74 39.5722 142.62 39.8903C142.342 40.6062 142.342 41.4016 142.62 42.1175C142.74 42.4357 142.939 42.7538 143.177 42.9925C143.416 43.2311 143.734 43.4299 144.052 43.5493C144.808 43.8277 145.643 43.8276 146.399 43.4697C146.796 43.2709 147.115 42.9925 147.393 42.6743L146.677 42.0777C146.518 42.3164 146.319 42.5152 146.081 42.6345C145.802 42.7936 145.484 42.8731 145.166 42.8731C144.728 42.8731 144.331 42.7141 144.012 42.3959C143.694 42.1175 143.495 41.7198 143.495 41.2823H147.632C147.632 41.2425 147.632 41.163 147.632 41.1232V40.9641C147.632 40.5664 147.592 40.2085 147.473 39.8505C147.353 39.5324 147.154 39.254 146.956 39.0154ZM143.456 40.5664C143.495 40.1687 143.655 39.8108 143.973 39.5324C144.132 39.4131 144.291 39.2938 144.49 39.2142C144.689 39.1347 144.887 39.0949 145.126 39.0949C145.325 39.0949 145.564 39.1347 145.762 39.2142C145.921 39.2938 146.081 39.3733 146.2 39.5324C146.319 39.6517 146.399 39.8108 146.478 40.0096C146.558 40.2085 146.558 40.4074 146.598 40.5664H143.456Z" fill="#123453"/>
<path d="M150.694 38.5381C150.416 38.737 150.217 38.9756 150.058 39.2938H150.018C150.018 39.1745 150.018 39.0551 150.018 38.8563C150.018 38.6972 150.018 38.5381 149.978 38.379H148.984C148.984 38.5381 149.024 38.737 149.024 38.9756C149.024 39.2142 149.024 39.3733 149.024 39.5324V43.6288H150.058V40.8846C150.058 40.6857 150.097 40.4471 150.137 40.2483C150.177 40.0494 150.296 39.8903 150.416 39.7312C150.535 39.5722 150.694 39.4529 150.893 39.3733C151.092 39.2938 151.33 39.2142 151.529 39.2142C151.688 39.2142 151.847 39.2142 152.006 39.254L152.046 38.2995C151.927 38.2597 151.768 38.2597 151.648 38.2597C151.33 38.2597 150.972 38.379 150.694 38.5381Z" fill="#123453"/>
<path d="M162.387 39.4926H161.193L160.199 41.1232L158.648 39.5324C158.887 39.4131 159.086 39.3336 159.284 39.1745C159.483 39.0552 159.642 38.8961 159.801 38.737C159.961 38.5779 160.08 38.3791 160.159 38.1802C160.239 37.9814 160.319 37.7427 160.279 37.5041C160.279 37.2257 160.239 36.9473 160.12 36.7087C160 36.4701 159.881 36.2712 159.682 36.1519C159.483 35.9928 159.284 35.8735 159.046 35.794C158.807 35.7144 158.529 35.6746 158.29 35.6746C158.012 35.6746 157.773 35.7144 157.495 35.794C157.256 35.8735 157.018 35.9928 156.819 36.1519C156.62 36.311 156.461 36.5098 156.341 36.7484C156.222 36.9871 156.182 37.2655 156.182 37.5836C156.182 37.9018 156.262 38.2597 156.461 38.5381C156.66 38.8165 156.858 39.0949 157.097 39.3733C156.858 39.4927 156.66 39.6119 156.461 39.7313C156.262 39.8506 156.063 40.0494 155.904 40.2085C155.745 40.4074 155.626 40.6062 155.506 40.8448C155.387 41.0835 155.347 41.3619 155.347 41.6403C155.347 42.2766 155.586 42.8732 156.103 43.2709C156.341 43.4697 156.62 43.589 156.898 43.7084C157.216 43.7879 157.535 43.8674 157.853 43.8674C158.33 43.8674 158.807 43.7879 159.205 43.5493C159.603 43.3504 159.921 43.0322 160.199 42.7141L161.154 43.7481H162.585L160.796 41.9187L162.387 39.4926ZM157.614 36.828C157.813 36.6291 158.091 36.5496 158.37 36.5496C158.927 36.5496 159.364 37.0268 159.364 37.5439C159.364 37.7029 159.324 37.862 159.245 37.9814C159.165 38.1404 159.086 38.2598 158.966 38.3791C158.847 38.4984 158.728 38.5779 158.569 38.6972C158.41 38.7768 158.25 38.8563 158.091 38.9358C158.012 38.8563 157.892 38.7768 157.813 38.6574C157.614 38.4586 157.495 38.22 157.375 37.9416C157.216 37.5439 157.296 37.1064 157.614 36.828ZM158.887 42.6345C158.608 42.7936 158.29 42.8732 157.932 42.8732C157.733 42.8732 157.574 42.8334 157.375 42.7936C157.216 42.7141 157.057 42.6345 156.898 42.5152C156.62 42.2766 156.461 41.9187 156.461 41.521C156.461 41.163 156.58 40.8449 156.779 40.5665C157.057 40.2881 157.336 40.0892 157.694 39.9699L159.523 41.9187C159.404 42.1971 159.165 42.4755 158.887 42.6345Z" fill="#123453"/>
<path d="M168.75 35.8337L165.369 43.5891H166.563L167.358 41.6801H171.057L171.852 43.5891H173.085L169.744 35.8337H168.75ZM167.756 40.7653L169.227 37.1462L170.659 40.7653H167.756Z" fill="#123453"/>
<path d="M178.176 39.254C177.977 38.9358 177.698 38.6574 177.341 38.4983C177.022 38.3393 176.625 38.2597 176.267 38.2597C175.909 38.2597 175.551 38.3392 175.193 38.4586C174.875 38.5779 174.596 38.7767 174.358 39.0551C174.119 39.2937 173.96 39.6119 173.841 39.9301C173.721 40.2483 173.642 40.6062 173.642 40.9641C173.642 41.3221 173.721 41.68 173.841 41.9982C173.96 42.3163 174.159 42.5947 174.358 42.8334C174.596 43.072 174.875 43.2709 175.193 43.3902C175.551 43.5492 175.909 43.589 176.267 43.589C176.625 43.589 176.983 43.5095 177.301 43.3504C177.619 43.1913 177.897 42.9527 178.096 42.6743H178.136V43.3504C178.136 43.589 178.096 43.8674 178.056 44.106C178.017 44.3447 177.897 44.5435 177.738 44.7026C177.579 44.9015 177.38 45.0208 177.181 45.1003C176.903 45.2196 176.625 45.2594 176.306 45.2594C175.949 45.2594 175.591 45.1798 175.272 45.0208C174.954 44.8617 174.676 44.6628 174.437 44.4242L173.801 45.2196C174.159 45.5378 174.557 45.7764 174.994 45.9355C175.432 46.0946 175.909 46.1741 176.346 46.1741C176.824 46.1741 177.261 46.0946 177.698 45.9355C178.056 45.7764 178.335 45.5776 178.573 45.2992C178.812 45.0208 178.971 44.7026 179.051 44.3844C179.13 44.0265 179.21 43.6686 179.21 43.3106V38.4188H178.216L178.176 39.254ZM178.096 41.68C178.017 41.8789 177.897 42.0777 177.738 42.2766C177.42 42.6345 176.943 42.8334 176.426 42.7936C176.187 42.7936 175.909 42.7538 175.71 42.6345C175.511 42.555 175.312 42.3959 175.153 42.2368C174.994 42.0777 174.875 41.8789 174.795 41.6402C174.716 41.4016 174.676 41.2028 174.676 40.9641C174.676 40.7255 174.716 40.4869 174.795 40.2483C174.875 40.0494 174.994 39.8505 175.153 39.6517C175.312 39.4926 175.471 39.3335 175.71 39.254C176.187 39.0551 176.704 39.0551 177.142 39.254C177.341 39.3335 177.539 39.4926 177.698 39.6517C177.858 39.8108 177.977 40.0096 178.056 40.2483C178.136 40.4869 178.176 40.7255 178.176 40.9641C178.215 41.2028 178.215 41.4414 178.096 41.68Z" fill="#123453"/>
<path d="M182.63 38.5381C182.352 38.737 182.153 38.9756 181.994 39.2938H181.954C181.954 39.1745 181.954 39.0551 181.954 38.8563C181.954 38.6972 181.954 38.5381 181.914 38.379H180.92C180.92 38.5381 180.96 38.737 180.96 38.9756C180.96 39.2142 180.96 39.3733 180.96 39.5324V43.6288H181.994V40.8846C181.994 40.6857 182.033 40.4471 182.073 40.2483C182.113 40.0494 182.232 39.8903 182.352 39.7312C182.471 39.5722 182.63 39.4529 182.829 39.3733C183.028 39.2938 183.266 39.2142 183.465 39.2142C183.624 39.2142 183.783 39.2142 183.943 39.254L183.982 38.2995C183.863 38.2597 183.704 38.2597 183.585 38.2597C183.227 38.2597 182.908 38.379 182.63 38.5381Z" fill="#123453"/>
<path d="M185.971 38.4188H184.937V43.6288H185.971V38.4188Z" fill="#123453"/>
<path d="M185.454 35.8735C185.295 35.8735 185.096 35.953 184.976 36.0723C184.698 36.311 184.698 36.7484 184.976 37.0268C185.096 37.1462 185.255 37.2257 185.454 37.2257C185.653 37.2257 185.812 37.1462 185.931 37.0268C186.05 36.9075 186.13 36.7484 186.13 36.5496C186.13 36.3507 186.05 36.1916 185.931 36.0723C185.812 35.953 185.613 35.8735 185.454 35.8735Z" fill="#123453"/>
<path d="M190.942 42.7538C190.704 42.8732 190.465 42.9129 190.226 42.9129C189.988 42.9129 189.749 42.8732 189.51 42.7538C189.312 42.6743 189.113 42.5152 188.954 42.3561C188.795 42.1971 188.675 41.9584 188.635 41.7596C188.476 41.2823 188.476 40.8051 188.635 40.3278C188.715 40.0892 188.834 39.8903 188.954 39.7312C189.113 39.5722 189.272 39.4131 189.471 39.3335C189.709 39.2142 189.948 39.1745 190.186 39.1745C190.425 39.1745 190.664 39.2142 190.902 39.3335C191.101 39.4131 191.26 39.5722 191.38 39.771L192.135 39.1745C191.897 38.8961 191.618 38.6574 191.26 38.5381C190.902 38.379 190.544 38.3393 190.186 38.2995C189.829 38.2995 189.431 38.379 189.073 38.4984C188.755 38.6177 188.437 38.8165 188.198 39.0551C187.959 39.2938 187.76 39.6119 187.601 39.9301C187.323 40.646 187.323 41.4414 187.601 42.1573C187.721 42.4755 187.92 42.7936 188.198 43.0322C188.437 43.2709 188.755 43.4697 189.073 43.589C189.431 43.7083 189.789 43.7879 190.186 43.7879C190.584 43.7879 190.942 43.7083 191.3 43.589C191.618 43.4697 191.897 43.2709 192.135 42.9925L191.459 42.3561C191.34 42.5152 191.141 42.6345 190.942 42.7538Z" fill="#123453"/>
<path d="M197.783 42.5152V38.4188H196.749V41.163C196.749 41.6005 196.629 42.038 196.351 42.3959C196.112 42.7141 195.754 42.8732 195.357 42.8732C195.158 42.8732 194.959 42.8334 194.76 42.7539C194.601 42.6743 194.482 42.555 194.402 42.3959C194.323 42.2368 194.243 42.0778 194.203 41.8789C194.164 41.68 194.164 41.4812 194.164 41.2823V38.4188H193.13V41.6403C193.13 41.9187 193.169 42.1971 193.249 42.4755C193.328 42.7141 193.448 42.9527 193.607 43.1516C193.766 43.3504 193.965 43.5095 194.203 43.6288C194.482 43.7481 194.76 43.7879 195.078 43.7879C195.436 43.7879 195.794 43.7084 196.112 43.5095C196.391 43.3504 196.629 43.1118 196.788 42.7936H196.828C196.828 42.9129 196.828 43.0323 196.828 43.1913C196.828 43.3504 196.828 43.5095 196.868 43.6288H197.862C197.862 43.4697 197.823 43.2709 197.823 43.0322C197.783 42.8334 197.783 42.6345 197.783 42.5152Z" fill="#123453"/>
<path d="M200.607 35.3167H199.572V43.5891H200.607V35.3167Z" fill="#123453"/>
<path d="M203.589 36.9075H202.555V38.3791H201.561V39.2142H202.555V42.038C202.515 42.4754 202.675 42.9129 202.953 43.2709C203.271 43.5493 203.669 43.7084 204.067 43.6686C204.226 43.6686 204.385 43.6686 204.544 43.6288C204.703 43.589 204.822 43.589 204.942 43.5095L204.902 42.6743C204.822 42.7141 204.703 42.7539 204.623 42.7539C204.544 42.7936 204.424 42.7936 204.305 42.7936C204.106 42.8334 203.907 42.7539 203.748 42.5948C203.629 42.3959 203.55 42.1573 203.589 41.9187V39.2142H204.981V38.4188H203.589V36.9075Z" fill="#123453"/>
<path d="M210.629 42.5152V38.4188H209.595V41.163C209.595 41.6005 209.475 42.038 209.197 42.3959C208.958 42.7141 208.6 42.8732 208.203 42.8732C208.004 42.8732 207.805 42.8334 207.606 42.7539C207.447 42.6743 207.328 42.555 207.248 42.3959C207.169 42.2368 207.089 42.0778 207.049 41.8789C207.01 41.68 207.01 41.4812 207.01 41.2823V38.4188H205.976V41.6403C205.976 41.9187 206.015 42.1971 206.095 42.4755C206.174 42.7141 206.294 42.9527 206.453 43.1516C206.612 43.3504 206.811 43.5095 207.049 43.6288C207.328 43.7481 207.606 43.7879 207.924 43.7879C208.282 43.7879 208.64 43.7084 208.958 43.5095C209.237 43.3504 209.475 43.1118 209.635 42.7936H209.674C209.674 42.9129 209.674 43.0323 209.674 43.1913C209.674 43.3504 209.674 43.5095 209.714 43.6288H210.708C210.708 43.4697 210.669 43.2709 210.669 43.0322C210.629 42.8334 210.629 42.6345 210.629 42.5152Z" fill="#123453"/>
<path d="M214.049 38.5381C213.771 38.737 213.572 38.9756 213.413 39.2938H213.373C213.373 39.1745 213.373 39.0551 213.373 38.8563C213.373 38.6972 213.373 38.5381 213.333 38.379H212.339C212.339 38.5381 212.379 38.737 212.379 38.9756C212.379 39.2142 212.379 39.3733 212.379 39.5324V43.6288H213.413V40.8846C213.413 40.6857 213.452 40.4471 213.492 40.2483C213.532 40.0494 213.651 39.8903 213.771 39.7312C213.89 39.5722 214.049 39.4529 214.248 39.3733C214.447 39.2938 214.685 39.2142 214.884 39.2142C215.043 39.2142 215.202 39.2142 215.362 39.254L215.401 38.2995C215.282 38.2597 215.123 38.2597 215.004 38.2597C214.685 38.2597 214.327 38.379 214.049 38.5381Z" fill="#123453"/>
<path d="M220.85 39.8505C220.731 39.5324 220.571 39.254 220.333 39.0154C220.094 38.7767 219.856 38.5779 219.537 38.4586C219.219 38.3392 218.861 38.2597 218.503 38.2597C217.788 38.2597 217.072 38.5381 216.594 39.0154C216.356 39.254 216.157 39.5722 216.038 39.8903C215.759 40.6062 215.759 41.4016 216.038 42.1175C216.157 42.4357 216.356 42.7538 216.594 42.9925C216.833 43.2311 217.151 43.4299 217.469 43.5493C218.225 43.8277 219.06 43.8276 219.816 43.4697C220.214 43.2709 220.532 42.9925 220.81 42.6743L220.094 42.0777C219.935 42.3164 219.736 42.5152 219.498 42.6345C219.219 42.7936 218.901 42.8731 218.583 42.8731C218.145 42.8731 217.748 42.7141 217.43 42.3959C217.111 42.1175 216.913 41.7198 216.913 41.2823H221.049C221.049 41.2425 221.049 41.163 221.049 41.1232V40.9641C221.049 40.6062 220.969 40.2085 220.85 39.8505ZM216.873 40.5664C216.913 40.1687 217.072 39.8108 217.39 39.5324C217.549 39.4131 217.708 39.2938 217.907 39.2142C218.106 39.1347 218.305 39.0949 218.543 39.0949C218.742 39.0949 218.981 39.1347 219.18 39.2142C219.339 39.2938 219.498 39.3733 219.617 39.5324C219.736 39.6517 219.816 39.8108 219.895 40.0096C219.975 40.2085 220.015 40.4074 220.015 40.5664H216.873Z" fill="#123453"/>
<path d="M150.535 12.3689H148.825V11.8121C148.785 11.4939 148.904 11.2155 149.183 11.0564C149.501 10.8576 149.899 10.7382 150.296 10.7382V9.06787C150.257 9.06787 150.257 9.06787 150.217 9.06787C149.819 9.10764 149.421 9.14741 149.342 9.14741C148.705 9.22695 148.149 9.54512 147.751 10.0224C147.274 10.4996 147.035 11.136 147.075 11.7723V13.9597H150.535V12.3689Z" fill="#123453"/>
<path d="M141.228 14.1983C141.626 14.1983 142.024 14.0392 142.302 13.7608C142.581 13.4824 142.74 13.0847 142.74 12.687C142.74 12.2893 142.581 11.8916 142.302 11.6132C141.706 11.0166 140.751 11.0166 140.155 11.6132C139.837 11.8916 139.677 12.2893 139.717 12.687C139.717 13.0847 139.876 13.4824 140.155 13.7608C140.433 14.0392 140.831 14.1983 141.228 14.1983Z" fill="#123453"/>
<path d="M137.371 14.1983C137.768 14.1983 138.166 14.0392 138.405 13.7608C138.683 13.4824 138.842 13.0847 138.842 12.687C138.842 12.2893 138.683 11.8916 138.405 11.6132C137.808 11.0166 136.854 11.0166 136.257 11.6132C135.979 11.8916 135.82 12.2893 135.82 12.687C135.82 13.0847 135.979 13.4824 136.257 13.7608C136.536 14.0392 136.933 14.1983 137.371 14.1983Z" fill="#123453"/>
<path d="M190.027 14.1983C190.425 14.1983 190.823 14.0392 191.101 13.7608C191.38 13.4824 191.539 13.0847 191.539 12.687C191.539 12.2893 191.38 11.8916 191.101 11.6132C190.505 11.0166 189.55 11.0166 188.954 11.6132C188.675 11.8916 188.476 12.2893 188.516 12.687C188.516 13.0847 188.675 13.4824 188.954 13.7608C189.232 14.0392 189.59 14.1983 190.027 14.1983Z" fill="#123453"/>
<path d="M186.13 14.1983C186.528 14.1983 186.925 14.0392 187.164 13.7608C187.442 13.4824 187.601 13.0847 187.601 12.687C187.601 12.2893 187.442 11.8916 187.164 11.6132C186.567 11.0166 185.613 11.0166 185.016 11.6132C184.738 11.8916 184.579 12.2893 184.579 12.687C184.579 13.0847 184.738 13.4824 185.016 13.7608C185.334 14.0392 185.732 14.1983 186.13 14.1983Z" fill="#123453"/>
<path d="M195.715 27.8C196.55 27.0443 197.107 26.0103 197.186 24.8967L197.226 15.8289H194.681C194.681 21.6752 194.681 24.4592 194.641 24.5785C194.601 25.0955 194.362 25.533 194.004 25.891C193.607 26.2091 193.09 26.408 192.573 26.408V28.9533C192.851 28.9136 193.169 28.9136 193.169 28.9136C194.164 28.7545 195.039 28.3965 195.715 27.8Z" fill="#123453"/>
<path d="M207.606 27.8C208.441 27.0443 208.998 26.0103 209.078 24.8967L209.117 15.8289H206.572C206.572 21.6752 206.572 24.4592 206.532 24.5785C206.493 25.0955 206.254 25.533 205.896 25.891C205.498 26.2091 204.981 26.408 204.464 26.408V28.9533C204.743 28.9136 205.061 28.9136 205.061 28.9136C206.015 28.7545 206.89 28.3965 207.606 27.8Z" fill="#123453"/>
<path d="M184.38 24.499C185.851 25.374 187.681 25.374 189.152 24.499C189.868 24.0615 190.465 23.465 190.902 22.7491C191.34 22.0332 191.539 21.198 191.539 20.3628C191.539 19.0902 191.539 16.7834 191.499 15.7892L186.607 15.7494C185.772 15.7494 184.976 15.9482 184.261 16.346C183.585 16.7437 183.028 17.3005 182.63 18.0163C182.232 18.7322 182.033 19.5276 182.033 20.3628C182.033 22.073 182.908 23.6638 184.38 24.499ZM185.136 18.8913C185.533 18.4936 186.05 18.255 186.607 18.2947L188.993 18.3345V20.4424C188.993 21.0389 188.755 21.5957 188.357 22.0332C187.522 22.9082 186.13 22.9082 185.255 22.073L185.215 22.0332C184.38 21.1185 184.34 19.7663 185.136 18.8913Z" fill="#123453"/>
<path d="M202.913 24.9763V19.8458C202.913 18.4936 202.953 14.437 202.953 11.4144H200.408C200.408 14.3574 200.408 18.6527 200.368 19.8856V25.016H202.913V24.9763Z" fill="#123453"/>
<path d="M207.765 13.9995C208.163 13.9995 208.561 13.8404 208.799 13.562C209.078 13.2836 209.237 12.8859 209.237 12.4882C209.237 11.653 208.561 10.9769 207.765 10.9769C207.368 10.9769 206.97 11.136 206.691 11.4144C206.095 12.0109 206.095 12.9654 206.691 13.5222C206.97 13.8404 207.368 14.0392 207.765 13.9995Z" fill="#123453"/>
<path d="M162.784 27.6012C162.506 27.8796 162.307 28.2773 162.347 28.6751C162.347 29.5102 163.023 30.1863 163.858 30.1863C164.256 30.1863 164.654 30.0273 164.932 29.7489C165.21 29.4705 165.369 29.0728 165.369 28.6751C165.369 28.2773 165.21 27.8796 164.932 27.6012C164.335 27.0047 163.381 27.0047 162.784 27.6012Z" fill="#123453"/>
<path d="M151.847 24.9365H153.597C154.114 24.9365 154.592 24.8967 155.069 24.7774C155.546 24.6183 155.984 24.3797 156.381 24.0615L156.461 24.1013C156.858 24.4194 157.296 24.6978 157.773 24.8171C158.25 24.9365 158.767 24.9762 159.245 24.9762H160.915C161.432 24.9762 161.909 24.9365 162.387 24.8171C162.864 24.6581 163.301 24.4194 163.699 24.1013H163.739L163.818 24.141C164.216 24.4592 164.654 24.7376 165.131 24.8569C165.608 24.9762 166.125 25.016 166.602 25.016H170.898L170.937 11.4541V11.3746H168.432L168.392 22.4707H166.921C166.403 22.5104 165.886 22.3514 165.449 21.9934C165.131 21.5559 165.011 21.0389 165.051 20.4821V15.8687V15.7494H162.506V20.6412C162.546 21.0389 162.466 21.4366 162.307 21.7946C162.148 22.073 161.909 22.232 161.591 22.3116C160.995 22.3911 160.398 22.4309 159.802 22.4309H159.284C158.847 22.4309 158.41 22.2718 158.091 21.9934C157.773 21.5559 157.654 21.0389 157.694 20.4821V15.7891H155.188V20.681C155.228 21.0787 155.148 21.4764 154.989 21.8343C154.83 22.1127 154.592 22.3116 154.273 22.3514C153.677 22.4309 153.04 22.4707 152.404 22.4707C152.285 22.4707 151.967 22.4707 151.887 22.4707C151.45 22.4707 151.012 22.3116 150.654 22.0332C150.336 21.5957 150.217 21.0787 150.256 20.5617V15.9482V15.7494H147.671V20.6412C147.711 21.0389 147.632 21.4366 147.473 21.7946C147.313 22.073 147.075 22.2718 146.757 22.3116C146.478 22.3911 144.887 22.4309 144.092 22.4309C143.177 22.4309 142.978 22.1127 142.939 21.9934C142.74 21.5162 142.66 20.9991 142.7 20.4821C142.7 19.1697 142.7 18.0163 142.66 17.0618L142.62 15.8687L137.768 15.8289C136.933 15.8289 136.138 16.0278 135.422 16.4255C134.746 16.8232 134.149 17.38 133.791 18.0959C133.394 18.8117 133.195 19.6072 133.195 20.4423C133.195 21.2775 133.394 22.1127 133.831 22.8286C134.229 23.5445 134.825 24.141 135.541 24.5785C136.257 25.016 137.092 25.2149 137.928 25.2149C138.524 25.2149 139.121 25.0955 139.677 24.8967C140.234 24.6581 140.751 24.3399 141.189 23.9422L141.308 23.982C141.547 24.2206 141.785 24.4194 141.905 24.5388C142.143 24.6978 142.382 24.7774 142.66 24.8171C143.137 24.9365 143.615 24.9762 144.092 25.016H146.12C146.637 25.016 147.115 24.9762 147.592 24.8569C148.069 24.6978 148.507 24.4592 148.904 24.141L148.984 24.1808C149.382 24.499 149.819 24.7774 150.296 24.8967C150.853 24.8967 151.37 24.9365 151.847 24.9365ZM140.194 20.4026C140.194 20.9991 139.956 21.5559 139.558 21.9934C138.723 22.8684 137.331 22.8684 136.456 22.0332L136.416 21.9934C135.581 21.1582 135.541 19.806 136.337 18.8913C136.734 18.4936 137.251 18.2549 137.808 18.2947L140.194 18.3345V20.4026Z" fill="#123453"/>
<path d="M157.893 30.1863C158.29 30.1863 158.688 30.0273 158.966 29.7489C159.245 29.4705 159.404 29.0728 159.404 28.6751C159.404 28.2773 159.245 27.8796 158.966 27.6012C158.37 27.0047 157.415 27.0047 156.819 27.6012C156.222 28.1978 156.222 29.1523 156.779 29.7091C156.779 29.7091 156.779 29.7091 156.819 29.7489C157.137 30.0273 157.495 30.1863 157.893 30.1863Z" fill="#123453"/>
<path d="M152.961 27.6011C152.683 27.8795 152.523 28.2772 152.523 28.6749C152.523 29.0726 152.683 29.4703 152.961 29.7487C153.239 30.0271 153.637 30.226 154.035 30.1862C154.432 30.1862 154.83 30.0271 155.069 29.7487C155.347 29.4703 155.506 29.0726 155.506 28.6749C155.506 27.8397 154.87 27.1636 154.035 27.1636C153.637 27.1636 153.239 27.3227 152.961 27.6011Z" fill="#123453"/>
<path d="M49.8349 24.9366V19.7664C49.8349 18.4142 49.8747 14.3576 49.8747 11.335H47.3293C47.3293 14.278 47.3293 18.5733 47.2896 19.8062V24.8969L49.8349 24.9366Z" fill="#123453"/>
<path d="M7.95612 14.1586C8.35383 14.1586 8.75154 13.9995 9.02993 13.7211C9.30833 13.4427 9.46742 13.045 9.46742 12.6473C9.46742 12.2496 9.30833 11.8519 9.02993 11.5735C8.43337 10.9769 7.47887 10.9769 6.88231 11.5735C6.60391 11.8519 6.44482 12.2496 6.44482 12.6473C6.44482 13.045 6.60391 13.4427 6.88231 13.7211C7.1607 13.9995 7.55841 14.1586 7.95612 14.1586Z" fill="#123453"/>
<path d="M25.4156 24.9366V19.7664C25.4156 18.4142 25.4553 14.3576 25.4553 11.335H22.91C22.91 14.278 22.91 18.5335 22.8702 19.8062V24.8969L25.4156 24.9366Z" fill="#123453"/>
<path d="M4.09834 14.1586C4.49605 14.1586 4.89376 13.9995 5.13238 13.7211C5.72895 13.1643 5.76872 12.17 5.17216 11.5735C4.57559 10.9769 3.62109 10.9371 3.02452 11.5337L2.98475 11.5735C2.70636 11.8519 2.54727 12.2496 2.54727 12.6473C2.54727 13.045 2.70636 13.4427 2.98475 13.7211C3.26315 13.9995 3.66086 14.1586 4.09834 14.1586Z" fill="#123453"/>
<path d="M16.5466 24.8967C16.7057 24.8967 16.9046 24.9365 17.0637 24.9365L20.6033 24.8967V22.3514H17.0637C16.5069 22.3911 15.9898 22.1525 15.5921 21.7548C15.1944 21.3571 14.9956 20.8003 15.0353 20.2435C15.0353 19.806 15.1546 19.4083 15.3933 19.0504C15.9103 18.2152 16.9443 17.8175 17.8988 18.1357C17.8988 18.1357 18.1375 18.2152 18.3761 18.2947L19.8874 16.2664C19.6488 16.1471 19.3704 16.0278 19.2908 15.988C17.8988 15.3517 16.2682 15.4312 14.916 16.1869C14.2001 16.5846 13.6036 17.1811 13.1661 17.897C12.7286 18.6129 12.5298 19.4481 12.5298 20.2833C12.5298 20.9594 12.6491 21.5957 12.8877 22.2321L12.9672 22.3911H10.9389C9.98443 22.3911 9.82534 22.073 9.7458 21.9537C9.54695 21.4764 9.4674 20.9594 9.50717 20.4424C9.50717 19.1299 9.50718 17.9766 9.46741 17.0221L9.42763 15.8289L4.57558 15.7892C3.74039 15.7892 2.94497 15.988 2.22909 16.3857C1.55299 16.7834 0.956425 17.3402 0.598487 18.0561C0.200777 18.772 0.00192261 19.5674 0.00192261 20.4026C0.00192261 21.2378 0.200774 22.073 0.638254 22.7889C1.03596 23.5047 1.63253 24.1013 2.34841 24.5388C3.06428 24.9763 3.89947 25.1751 4.73466 25.1751C5.33122 25.1751 5.92779 25.0558 6.48459 24.8569C7.04138 24.6183 7.5584 24.3001 7.99588 23.9024L8.11519 23.9422C8.31404 24.1411 8.5129 24.3001 8.71175 24.499C8.95038 24.6581 9.18901 24.7376 9.46741 24.7774C9.94466 24.8967 10.4219 24.9365 10.8992 24.9763L16.5466 24.8967ZM6.96184 20.3628C6.96184 20.9594 6.72321 21.5162 6.3255 21.9537C5.49031 22.8286 4.09832 22.8286 3.22336 21.9934L3.1836 21.9537C2.34841 21.1185 2.30864 19.7663 3.10406 18.8515C3.50177 18.4538 4.01879 18.2152 4.57558 18.255L6.96184 18.2947V20.3628Z" fill="#123453"/>
<path d="M36.5514 14.1983C36.9491 14.1983 37.3468 14.0392 37.5854 13.7608C38.182 13.1643 38.182 12.2098 37.5854 11.6132C36.9889 11.0166 36.0344 11.0166 35.4378 11.6132C35.1594 11.8916 35.0003 12.2893 35.0003 12.687C35.0401 13.5222 35.7162 14.1983 36.5514 14.1983Z" fill="#123453"/>
<path d="M76.7996 15.7892L71.9475 15.7494C71.1123 15.7494 70.3169 15.9482 69.601 16.346C68.9249 16.7437 68.3284 17.3005 67.9704 18.0163C67.5727 18.7322 67.3739 19.5276 67.3739 20.3628C67.3739 22.073 68.2488 23.624 69.7204 24.499C71.1919 25.374 73.0213 25.374 74.4531 24.499C75.169 24.0615 75.7655 23.465 76.203 22.7491C76.6405 22.0332 76.8393 21.198 76.8393 20.3628C76.8393 19.0504 76.8393 17.897 76.7996 16.9823V15.7892ZM74.3338 20.3628C74.3338 20.9594 74.0952 21.5162 73.6974 21.9537C72.8623 22.8286 71.4703 22.8286 70.5953 21.9934L70.5555 21.9537C69.7204 21.1185 69.6806 19.7662 70.476 18.8515C70.8737 18.4538 71.3907 18.2152 71.9475 18.255L74.3338 18.2947V20.3628Z" fill="#123453"/>
<path d="M85.7481 30.1465C86.1458 30.1465 86.5435 29.9874 86.7821 29.709C87.0605 29.4306 87.2196 29.0329 87.2196 28.6352C87.2196 28.2375 87.0605 27.8398 86.7821 27.5614C86.1855 26.9648 85.231 26.9648 84.6345 27.5614C84.3561 27.8398 84.197 28.2375 84.197 28.6352C84.197 29.0329 84.3561 29.4306 84.6345 29.709C84.9526 29.9874 85.3503 30.1863 85.7481 30.1465Z" fill="#123453"/>
<path d="M107.781 11.2553L107.741 22.3514H105.395C104.878 22.3514 104.401 22.1525 104.043 21.7946C103.685 21.3571 103.486 20.8401 103.446 20.2833C103.446 19.4481 103.247 18.6129 102.81 17.897C102.412 17.1812 101.815 16.5846 101.1 16.1869C98.8327 14.8745 95.9294 15.6301 94.617 17.897C94.1795 18.6129 93.9806 19.4481 93.9806 20.2833L94.0204 22.3514H91.3557H91.1569C90.6796 22.3514 90.2422 22.1923 89.8842 21.9139C89.566 21.4764 89.4467 20.9594 89.4865 20.4424V15.829V15.7494H86.9412V20.6412C86.9809 21.0389 86.9014 21.4367 86.7423 21.7946C86.5832 22.073 86.3446 22.2321 86.0264 22.3116C85.5492 22.3912 85.0322 22.4309 84.5549 22.4309H82.3675L82.3277 11.3348H79.8222L79.8619 24.9763H85.3901C85.9071 24.9763 86.3844 24.9365 86.8616 24.8172C87.3389 24.6581 87.7764 24.4195 88.1741 24.1013L88.2536 24.1411C88.6513 24.4593 89.0888 24.7376 89.5661 24.857C90.0433 24.9763 90.5206 25.016 91.0376 25.016H98.9122C100.145 25.0558 101.338 24.5786 102.213 23.7036L102.333 23.7434C103.168 24.5786 104.321 25.0558 105.514 25.016H110.287L110.326 11.4542V11.3746L107.781 11.2553ZM100.821 21.1185C100.742 21.3571 100.583 21.5958 100.384 21.7946C100.344 21.8344 100.344 21.8344 100.304 21.8344C100.225 21.9139 100.145 21.9935 100.066 22.0332C99.7076 22.2718 99.3099 22.3514 98.8724 22.3514H96.4862C96.4862 21.8741 96.4862 20.7208 96.4862 20.2833V20.2435C96.4862 20.0049 96.526 19.7663 96.6055 19.5674C96.6055 19.4879 96.6453 19.4481 96.6453 19.3686C96.685 19.2493 96.7646 19.13 96.8441 19.0106C97.0828 18.6527 97.4407 18.3743 97.8384 18.1754C97.8782 18.1754 97.918 18.1357 97.9975 18.1357C98.0373 18.1357 98.1168 18.0959 98.1566 18.0959L98.2759 18.0561C98.5543 18.0164 98.8725 18.0164 99.1508 18.0561C99.3099 18.0959 99.4292 18.1357 99.5486 18.1754C99.827 18.2948 100.066 18.4538 100.264 18.6527C100.463 18.8515 100.622 19.0902 100.742 19.3686C100.781 19.4879 100.821 19.5674 100.821 19.6867C100.98 20.2435 100.98 20.7208 100.821 21.1185Z" fill="#123453"/>
<path d="M120.269 26.8455V29.3908C124.207 29.3908 127.547 26.4478 128.064 22.5502C128.064 22.5105 128.104 21.556 128.104 21.556V20.3231C128.104 18.6527 127.229 17.0618 125.758 16.2267C123.491 14.9142 120.587 15.6699 119.275 17.9368C118.837 18.6527 118.639 19.4879 118.639 20.3231C118.639 21.1582 118.837 21.9934 119.235 22.7093C119.633 23.3854 120.19 23.982 120.866 24.3797C121.582 24.7774 122.377 24.9763 123.212 24.9763C123.65 24.9763 124.008 24.9763 124.326 24.9763C123.292 26.1296 121.82 26.8057 120.269 26.8455ZM123.252 22.4309H123.212C122.934 22.4309 122.655 22.3911 122.377 22.2718C122.258 22.2321 122.138 22.1525 122.019 22.073C121.9 21.9934 121.82 21.9139 121.701 21.7946C121.423 21.4764 121.224 21.1185 121.184 20.7208C121.144 20.5617 121.144 20.4424 121.144 20.2833C121.144 20.0049 121.184 19.6867 121.303 19.4083C121.423 19.1299 121.582 18.8913 121.781 18.6924C122.178 18.255 122.775 18.0163 123.371 18.0561C123.968 18.0561 124.525 18.2947 124.922 18.6924C125.121 18.8913 125.32 19.1299 125.4 19.4083C125.519 19.6867 125.559 19.9651 125.559 20.2435V22.3514H123.252V22.4309Z" fill="#123453"/>
<path d="M54.1699 26.8455V29.3908C58.1072 29.3908 61.448 26.4478 61.965 22.5502C61.965 22.5105 62.0048 21.556 62.0048 21.556V20.3231C62.0048 18.6527 61.1298 17.0618 59.6583 16.2267C57.3914 14.9142 54.4881 15.6699 53.1756 17.9368C52.7382 18.6527 52.5393 19.4879 52.5393 20.3231C52.5393 21.1582 52.7382 21.9934 53.1359 22.7093C53.5336 23.3854 54.0904 23.982 54.7665 24.3797C55.4824 24.7774 56.2778 24.9763 57.113 24.9763C57.5504 24.9763 57.9084 24.9763 58.2266 24.9763C57.1925 26.1296 55.721 26.8057 54.1699 26.8455ZM57.0732 22.4309C56.5164 22.4707 55.9994 22.2321 55.6017 21.8343C54.7665 20.9196 54.846 19.4879 55.7608 18.6527C56.1585 18.2947 56.7153 18.0561 57.272 18.0561C57.8686 18.0561 58.4254 18.2947 58.8231 18.6924C59.2606 19.0902 59.4992 19.6867 59.4594 20.2833V22.3911H57.0732V22.4309Z" fill="#123453"/>
<path d="M213.214 26.8455V29.3908C217.151 29.3908 220.492 26.4478 221.009 22.5502C221.009 22.5105 221.049 21.556 221.049 21.556V20.3231C221.049 18.6527 220.174 17.0618 218.702 16.2267C216.435 14.9142 213.532 15.6699 212.22 17.9368C211.782 18.6527 211.583 19.4879 211.583 20.3231C211.583 21.1582 211.782 21.9934 212.18 22.7093C212.578 23.3854 213.134 23.982 213.81 24.3797C214.526 24.7774 215.322 24.9763 216.157 24.9763C216.594 24.9763 216.952 24.9763 217.27 24.9763C216.197 26.1296 214.725 26.8057 213.214 26.8455ZM216.197 22.4309H216.077C216.038 22.4309 215.998 22.4309 215.958 22.4309C215.879 22.4309 215.839 22.4309 215.759 22.4309C215.759 22.4309 215.759 22.4309 215.719 22.4309C215.282 22.3911 214.884 22.1923 214.606 21.8741C213.771 20.9594 213.85 19.5276 214.765 18.6924C215.004 18.4538 215.282 18.2947 215.6 18.2152H215.64C215.719 18.1754 215.799 18.1754 215.879 18.1754C215.958 18.1754 216.038 18.1754 216.117 18.1754C216.157 18.1754 216.197 18.1754 216.236 18.1754H216.276C216.873 18.1754 217.43 18.4141 217.827 18.8118C218.265 19.2095 218.503 19.806 218.464 20.4026V22.3514V22.3911V22.4309V22.5105C217.668 22.4309 216.555 22.4309 216.197 22.4309Z" fill="#123453"/>
<path d="M90.7194 29.709C91.316 29.1124 91.316 28.1579 90.7194 27.5614C90.1229 26.9648 89.1684 26.9648 88.5718 27.5614C88.2934 27.8398 88.1343 28.2375 88.1343 28.6352C88.1343 29.4704 88.8104 30.1465 89.6456 30.1465C90.0433 30.1863 90.441 29.9874 90.7194 29.709Z" fill="#123453"/>
<path d="M113.508 19.806V24.9365H116.054V19.806C116.054 18.4538 116.093 14.3972 116.093 11.3746H113.548C113.508 14.3176 113.508 18.6129 113.508 19.806Z" fill="#123453"/>
<path d="M31.7789 15.8289H29.2336C29.2336 21.6752 29.2336 24.4592 29.1938 24.5785C29.154 25.0955 28.9154 25.533 28.5575 25.891C28.1597 26.2091 27.6427 26.408 27.1257 26.408V28.9533C27.4041 28.9136 27.7223 28.9136 27.7223 28.9136C28.637 28.834 29.512 28.4363 30.2278 27.8397C31.063 27.0841 31.6198 26.05 31.7391 24.9365L31.7789 15.8289Z" fill="#123453"/>
<path d="M36.3923 27.8C37.2275 27.0444 37.7843 26.0501 37.8639 24.8967H43.9886L44.0284 11.2553H41.5228L41.483 22.3514H37.8639L37.9036 15.7892H35.3583C35.3583 21.6355 35.3583 24.4195 35.3185 24.5388C35.2787 25.0558 35.0401 25.4933 34.6822 25.8512C34.2845 26.1694 33.7674 26.3683 33.2504 26.3683V28.9136C33.5288 28.8738 33.847 28.8738 33.847 28.8738C34.8015 28.7545 35.6765 28.3966 36.3923 27.8Z" fill="#123453"/>
<path d="M176.863 24.9763V19.8458C176.863 18.4936 176.903 14.437 176.903 11.4144H174.358C174.358 14.3574 174.358 18.6527 174.318 19.8856V25.016H176.863V24.9763Z" fill="#123453"/>
<path d="M121.184 20.7606C121.264 21.1583 121.423 21.556 121.701 21.8344C121.781 21.9139 121.9 22.0332 122.019 22.1128C121.9 22.0332 121.82 21.9537 121.701 21.8344C121.462 21.556 121.264 21.1583 121.184 20.7606Z" fill="#123453"/>
</g>
<defs>
<clipPath id="clip0_6_30949">
<rect width="289.996" height="58" fill="white" transform="translate(0.00183105)"/>
</clipPath>
</defs>
</svg>
