<svg width="18" height="14" viewBox="0 0 18 14" fill="none" xmlns="http://www.w3.org/2000/svg">
<g id="elements">
<g id="Icon">
<path fill-rule="evenodd" clip-rule="evenodd" d="M9.00002 10.1251C7.27413 10.1251 5.87502 8.72597 5.87502 7.00008C5.87502 5.27419 7.27413 3.87508 9.00002 3.87508C10.7259 3.87508 12.125 5.27419 12.125 7.00008C12.125 8.72597 10.7259 10.1251 9.00002 10.1251ZM7.12502 7.00008C7.12502 8.03562 7.96449 8.87508 9.00002 8.87508C10.0356 8.87508 10.875 8.03562 10.875 7.00008C10.875 5.96455 10.0356 5.12508 9.00002 5.12508C7.96449 5.12508 7.12502 5.96455 7.12502 7.00008Z" fill="#161616"/>
<path fill-rule="evenodd" clip-rule="evenodd" d="M9.00002 0.541748C6.85789 0.541748 5.02165 1.48459 3.60028 2.59424C2.17763 3.70488 1.12607 5.01653 0.537862 5.84135L0.493513 5.90319C0.28255 6.19659 0.041687 6.53158 0.041687 7.00008C0.041687 7.46859 0.28255 7.80357 0.493514 8.09697L0.537863 8.15882C1.12607 8.98363 2.17763 10.2953 3.60028 11.4059C5.02165 12.5156 6.85789 13.4584 9.00002 13.4584C11.1422 13.4584 12.9784 12.5156 14.3998 11.4059C15.8224 10.2953 16.874 8.98363 17.4622 8.15882L17.5065 8.09697C17.7175 7.80357 17.9584 7.46859 17.9584 7.00008C17.9584 6.53158 17.7175 6.19659 17.5065 5.90319L17.4622 5.84135C16.874 5.01653 15.8224 3.70488 14.3998 2.59423C12.9784 1.48459 11.1422 0.541748 9.00002 0.541748ZM1.55558 6.56712C2.10575 5.79565 3.077 4.58856 4.36949 3.57953C5.66325 2.56951 7.23447 1.79175 9.00002 1.79175C10.7656 1.79175 12.3368 2.56951 13.6306 3.57953C14.923 4.58856 15.8943 5.79565 16.4445 6.56712C16.5806 6.75797 16.6453 6.85117 16.684 6.92535C16.7085 6.97251 16.7084 6.98543 16.7084 6.99809L16.7084 7.00008L16.7084 7.00207C16.7084 7.01473 16.7085 7.02766 16.684 7.07481C16.6453 7.149 16.5806 7.24219 16.4445 7.43304C15.8943 8.20451 14.923 9.4116 13.6306 10.4206C12.3368 11.4307 10.7656 12.2084 9.00002 12.2084C7.23447 12.2084 5.66325 11.4307 4.36949 10.4206C3.077 9.4116 2.10575 8.20451 1.55558 7.43304C1.41948 7.24219 1.3547 7.149 1.31609 7.07481C1.29154 7.02766 1.29161 7.01473 1.29168 7.00207L1.29169 7.00008L1.29168 6.99809C1.29161 6.98543 1.29154 6.97251 1.31609 6.92535C1.3547 6.85117 1.41948 6.75797 1.55558 6.56712Z" fill="#161616"/>
</g>
</g>
</svg>
