<svg width="18" height="18" viewBox="0 0 18 18" fill="none" xmlns="http://www.w3.org/2000/svg">
<g id="elements">
<g id="Icon">
<path d="M4.06085 1.28883C4.40439 1.25526 4.65567 0.949552 4.6221 0.60601C4.58853 0.262469 4.28282 0.0111865 3.93928 0.0447557C2.77192 0.158825 1.84846 0.428265 1.13833 1.13839C0.428205 1.84852 0.158765 2.77198 0.0446947 3.93934C0.0111254 4.28289 0.262409 4.58859 0.60595 4.62216C0.949492 4.65573 1.2552 4.40445 1.28877 4.06091C1.3922 3.00245 1.6156 2.4289 2.02222 2.02228C2.42884 1.61566 3.00239 1.39226 4.06085 1.28883Z" fill="#161616"/>
<path d="M14.0608 0.0447557C13.7173 0.0111865 13.4116 0.262469 13.378 0.60601C13.3445 0.949552 13.5957 1.25526 13.9393 1.28883C14.9977 1.39226 15.5713 1.61566 15.9779 2.02228C16.3845 2.4289 16.6079 3.00245 16.7114 4.06091C16.7449 4.40445 17.0506 4.65573 17.3942 4.62216C17.7377 4.58859 17.989 4.28289 17.9554 3.93934C17.8414 2.77198 17.5719 1.84852 16.8618 1.13839C16.1517 0.428265 15.2282 0.158825 14.0608 0.0447557Z" fill="#161616"/>
<path d="M7.3334 0.041793C6.98822 0.041793 6.7084 0.321615 6.7084 0.666793C6.7084 1.01197 6.98822 1.29179 7.3334 1.29179H10.6667C11.0119 1.29179 11.2917 1.01197 11.2917 0.666793C11.2917 0.321615 11.0119 0.0417931 10.6667 0.0417931L7.3334 0.041793Z" fill="#161616"/>
<path d="M1.29173 7.33346C1.29173 6.98828 1.01191 6.70846 0.666732 6.70846C0.321554 6.70846 0.041732 6.98828 0.041732 7.33346L0.0417336 10.6668C0.0417336 11.012 0.321554 11.2918 0.666732 11.2918C1.01191 11.2918 1.29173 11.012 1.29173 10.6668L1.29173 7.33346Z" fill="#161616"/>
<path d="M1.28877 13.9393C1.2552 13.5958 0.949492 13.3445 0.60595 13.3781C0.262407 13.4117 0.0111254 13.7174 0.0446947 14.0609C0.158765 15.2283 0.428205 16.1517 1.13833 16.8619C1.84846 17.572 2.77192 17.8414 3.93928 17.9555C4.28282 17.9891 4.58853 17.7378 4.6221 17.3942C4.65567 17.0507 4.40439 16.745 4.06085 16.7114C3.00239 16.608 2.42884 16.3846 2.02222 15.978C1.6156 15.5714 1.3922 14.9978 1.28877 13.9393Z" fill="#161616"/>
<path d="M11.3751 9.12508C11.7203 9.12508 12.0001 9.4049 12.0001 9.75008V10.7501H13.0001C13.3453 10.7501 13.6251 11.0299 13.6251 11.3751C13.6251 11.7203 13.3453 12.0001 13.0001 12.0001H12.0001V13.0001C12.0001 13.3453 11.7203 13.6251 11.3751 13.6251C11.0299 13.6251 10.7501 13.3453 10.7501 13.0001V12.0001H9.75012C9.40495 12.0001 9.12512 11.7203 9.12512 11.3751C9.12512 11.0299 9.40495 10.7501 9.75012 10.7501H10.7501V9.75008C10.7501 9.4049 11.0299 9.12508 11.3751 9.12508Z" fill="#161616"/>
<path fill-rule="evenodd" clip-rule="evenodd" d="M5.87512 11.3751C5.87512 8.33751 8.33756 5.87508 11.3751 5.87508C14.4127 5.87508 16.8751 8.33751 16.8751 11.3751C16.8751 12.507 16.5332 13.559 15.947 14.4335C15.8633 14.5585 15.7745 14.6798 15.6811 14.7972L17.7754 16.8915C18.0195 17.1355 18.0195 17.5313 17.7754 17.7754C17.5313 18.0194 17.1356 18.0194 16.8915 17.7754L14.7972 15.6811C13.858 16.4285 12.6687 16.8751 11.3751 16.8751C8.33756 16.8751 5.87512 14.4126 5.87512 11.3751ZM11.3751 7.12508C9.02791 7.12508 7.12512 9.02787 7.12512 11.3751C7.12512 13.7223 9.02791 15.6251 11.3751 15.6251C13.7223 15.6251 15.6251 13.7223 15.6251 11.3751C15.6251 9.02787 13.7223 7.12508 11.3751 7.12508Z" fill="#161616"/>
</g>
</g>
</svg>
