<svg width="20" height="22" viewBox="0 0 20 22" fill="none" xmlns="http://www.w3.org/2000/svg">
<g id="elements">
<g id="Icon">
<path fill-rule="evenodd" clip-rule="evenodd" d="M10.0001 5.75C7.65291 5.75 5.75012 7.65279 5.75012 10C5.75012 12.3472 7.65291 14.25 10.0001 14.25C12.3473 14.25 14.2501 12.3472 14.2501 10C14.2501 7.65279 12.3473 5.75 10.0001 5.75ZM7.25012 10C7.25012 8.48122 8.48134 7.25 10.0001 7.25C11.5189 7.25 12.7501 8.48122 12.7501 10C12.7501 11.5188 11.5189 12.75 10.0001 12.75C8.48134 12.75 7.25012 11.5188 7.25012 10Z" fill="#384250"/>
<path fill-rule="evenodd" clip-rule="evenodd" d="M10.0012 0.25C6.17501 0.25 2.52468 2.51303 0.996769 6.08468C-0.425187 9.40865 0.344597 12.2373 1.94735 14.6595C3.26141 16.6454 5.17798 18.4178 6.90706 20.0168C7.23672 20.3217 7.55973 20.6204 7.87029 20.9129L7.87195 20.9145C8.44697 21.4528 9.21079 21.75 10.0012 21.75C10.7916 21.75 11.5554 21.4528 12.1304 20.9145C12.4239 20.6396 12.7282 20.3592 13.0386 20.0732C14.7865 18.4628 16.73 16.672 18.0579 14.6609C19.6587 12.2362 20.4258 9.40453 19.0056 6.08468C17.4777 2.51303 13.8273 0.25 10.0012 0.25ZM2.37588 6.67465C3.65469 3.68528 6.74179 1.75 10.0012 1.75C13.2606 1.75 16.3476 3.68528 17.6265 6.67465C18.7985 9.4144 18.2071 11.7124 16.8061 13.8344C15.5885 15.6786 13.805 17.3242 12.0518 18.9418C11.7341 19.235 11.4174 19.5272 11.1052 19.8195C10.8128 20.0932 10.4173 20.25 10.0012 20.25C9.58533 20.25 9.19009 20.0934 8.8978 19.8201C8.56535 19.5069 8.22765 19.1942 7.88903 18.8806C6.15816 17.2778 4.40287 15.6523 3.19829 13.8318C1.79592 11.7124 1.20233 9.41794 2.37588 6.67465Z" fill="#384250"/>
</g>
</g>
</svg>
