<svg width="16" height="18" viewBox="0 0 16 18" fill="none" xmlns="http://www.w3.org/2000/svg">
<g id="elements">
<g id="Icon">
<path fill-rule="evenodd" clip-rule="evenodd" d="M7.99998 12.9584C10.6463 12.9584 12.7916 10.8131 12.7916 8.16675V4.83342C12.7916 2.18705 10.6463 0.041748 7.99998 0.041748C5.35362 0.041748 3.20831 2.18705 3.20831 4.83342V8.16675C3.20831 10.8131 5.35362 12.9584 7.99998 12.9584ZM7.99998 1.29175C6.04397 1.29175 4.45831 2.87741 4.45831 4.83342V8.16675C4.45831 10.1228 6.04397 11.7084 7.99998 11.7084C9.74273 11.7084 11.1915 10.4497 11.4867 8.79175H9.66665C9.32147 8.79175 9.04165 8.51193 9.04165 8.16675C9.04165 7.82157 9.32147 7.54175 9.66665 7.54175H11.5416V5.45842H9.66665C9.32147 5.45842 9.04165 5.17859 9.04165 4.83342C9.04165 4.48824 9.32147 4.20842 9.66665 4.20842H11.4867C11.1915 2.55049 9.74273 1.29175 7.99998 1.29175Z" fill="#161616"/>
<path d="M1.95831 8.16675C1.95831 7.82157 1.67849 7.54175 1.33331 7.54175C0.988135 7.54175 0.708313 7.82157 0.708313 8.16675C0.708313 11.9833 3.64048 15.115 7.37498 15.432V16.7084H5.49998C5.1548 16.7084 4.87498 16.9882 4.87498 17.3334C4.87498 17.6786 5.1548 17.9584 5.49998 17.9584H10.5C10.8452 17.9584 11.125 17.6786 11.125 17.3334C11.125 16.9882 10.8452 16.7084 10.5 16.7084H8.62498V15.432C12.3595 15.115 15.2916 11.9833 15.2916 8.16675C15.2916 7.82157 15.0118 7.54175 14.6666 7.54175C14.3215 7.54175 14.0416 7.82157 14.0416 8.16675C14.0416 11.5035 11.3367 14.2084 7.99998 14.2084C4.66326 14.2084 1.95831 11.5035 1.95831 8.16675Z" fill="#161616"/>
</g>
</g>
</svg>
