<svg width="29" height="28" viewBox="0 0 29 28" fill="none" xmlns="http://www.w3.org/2000/svg">
<path d="M12.6783 14.2914H12.6316C12.3283 14.2797 12.06 14.1047 11.92 13.848C11.3984 12.922 10.9546 12.7631 10.8719 12.7335C10.8639 12.7307 10.8593 12.729 10.8583 12.728C10.38 12.728 10.0183 12.343 10.0183 11.853C10.0183 11.363 10.45 10.978 10.9283 10.978C11.1033 10.978 11.8733 11.0364 12.7016 11.9464C13.7516 10.6747 15.735 8.5164 17.66 7.90973C18.1266 7.76973 18.6166 8.02638 18.7566 8.48138C18.8966 8.94805 18.64 9.43805 18.185 9.57805C16.3883 10.1381 14.1133 12.903 13.3783 13.918C13.215 14.1514 12.9466 14.2797 12.6666 14.2797L12.6783 14.2914Z" fill="#1B8354"/>
<path fill-rule="evenodd" clip-rule="evenodd" d="M21.0331 17.5551C21.9549 17.0067 22.5389 16.5561 22.9336 15.8782C23.4703 14.9566 23.4703 13.9416 23.4703 12.0983V10.0683C23.4703 8.22493 23.4703 7.20993 22.9336 6.28827C22.4064 5.3828 21.5414 4.89397 19.9845 4.0142L17.8586 2.81155C16.3186 1.93655 15.4553 1.45825 14.4286 1.45825C13.402 1.45825 12.5503 1.93655 10.9986 2.81155L8.95696 3.96661C7.34696 4.86495 6.4603 5.3666 5.92363 6.28827C5.38696 7.20994 5.38696 8.22492 5.38696 10.0683V12.0982C5.38696 13.9416 5.38696 14.9566 5.92363 15.8782C6.32674 16.5558 6.9064 17.0001 7.82484 17.5494L7.08996 21.0813C6.52996 23.7646 6.24996 25.1179 7.06663 26.0163C8.04153 27.0956 9.33971 26.3854 11.3057 25.3098L14.0083 23.8346C14.0488 23.8118 14.0903 23.7891 14.1304 23.7671C14.2751 23.6879 14.3999 23.6195 14.3816 23.6012C14.4516 23.6129 14.6612 23.7294 14.871 23.8459L17.52 25.2929C18.815 26.0046 19.8183 26.5529 20.635 26.5529C21.0666 26.5529 21.4516 26.3896 21.79 26.0163C22.6066 25.1179 22.3266 23.7646 21.7666 21.0696L21.0331 17.5551ZM14.4286 20.7083C13.3903 20.7083 12.5386 20.2299 10.9986 19.3549L9.42424 18.4642L8.80496 21.4313C8.48996 22.9246 8.13996 24.6046 8.36163 24.8379C8.55996 24.8146 9.58662 24.2546 10.4966 23.7529L13.145 22.3063C13.6583 22.0263 13.985 21.8512 14.4283 21.8512C14.8716 21.8512 15.1983 22.0263 15.6883 22.2946L18.36 23.7529C19.27 24.2546 20.3083 24.8146 20.5883 24.7913C20.7166 24.5929 20.3666 22.9246 20.0516 21.4429L19.432 18.4648L17.8586 19.3549C16.307 20.2299 15.4553 20.7083 14.4286 20.7083ZM11.8503 4.33988L9.80863 5.49494C8.32696 6.32328 7.7203 6.68495 7.42863 7.17495C7.13696 7.66495 7.12529 8.3766 7.12529 10.0799V12.1099C7.12529 13.8133 7.1253 14.5132 7.42863 15.0149C7.7203 15.5049 8.32696 15.8666 9.80863 16.6949L11.8503 17.8499C13.2736 18.6549 13.8686 18.9816 14.4286 18.9816C14.9886 18.9816 15.5836 18.6549 17.007 17.8499L19.0486 16.6949C20.5303 15.8666 21.137 15.5049 21.4286 15.0149C21.7203 14.5249 21.732 13.8133 21.732 12.1099V10.0799C21.732 8.3766 21.732 7.67661 21.4286 7.17495C21.137 6.68495 20.5303 6.32328 19.0486 5.49494L17.007 4.33988C15.5836 3.53488 14.9886 3.20825 14.4286 3.20825C13.8686 3.20825 13.2736 3.53488 11.8503 4.33988Z" fill="#1B8354"/>
</svg>
