<svg width="44" height="44" viewBox="0 0 44 44" fill="none" xmlns="http://www.w3.org/2000/svg">
<g id="elements">
<g id="Icon">
<path d="M17.3259 28.8887C17.9396 28.3323 18.8882 28.3788 19.4447 28.9925C20.3897 30.0348 21.388 30.5 22.3334 30.5C23.2787 30.5 24.2771 30.0348 25.2221 28.9925C25.7786 28.3788 26.7272 28.3323 27.3409 28.8887C27.9546 29.4452 28.0011 30.3938 27.4447 31.0075C26.0983 32.4926 24.346 33.5 22.3334 33.5C20.3208 33.5 18.5685 32.4926 17.2221 31.0075C16.6657 30.3938 16.7121 29.4452 17.3259 28.8887Z" fill="#1B8354"/>
<path d="M13.4447 22.0075C12.8882 22.6212 11.9396 22.6677 11.3259 22.1113C10.7121 21.5548 10.6657 20.6062 11.2221 19.9925C11.9957 19.1393 13.0603 18.5 14.3334 18.5C15.6065 18.5 16.6711 19.1393 17.4447 19.9925C18.0011 20.6062 17.9546 21.5548 17.3409 22.1113C16.7272 22.6677 15.7786 22.6212 15.2221 22.0075C14.85 21.597 14.5393 21.5 14.3334 21.5C14.1275 21.5 13.8168 21.597 13.4447 22.0075Z" fill="#1B8354"/>
<path d="M27.3259 22.1113C27.9396 22.6677 28.8882 22.6212 29.4447 22.0075C29.8168 21.597 30.1275 21.5 30.3334 21.5C30.5393 21.5 30.85 21.597 31.2221 22.0075C31.7786 22.6212 32.7272 22.6677 33.3409 22.1113C33.9546 21.5548 34.0011 20.6062 33.4447 19.9925C32.6711 19.1393 31.6065 18.5 30.3334 18.5C29.0603 18.5 27.9957 19.1393 27.2221 19.9925C26.6657 20.6062 26.7121 21.5548 27.3259 22.1113Z" fill="#1B8354"/>
<path fill-rule="evenodd" clip-rule="evenodd" d="M22.3334 0.5C10.4593 0.5 0.833374 10.1259 0.833374 22C0.833374 33.8741 10.4593 43.5 22.3334 43.5C34.2075 43.5 43.8334 33.8741 43.8334 22C43.8334 10.1259 34.2075 0.5 22.3334 0.5ZM15.5578 4.78011C8.69229 7.48367 3.83337 14.1744 3.83337 22C3.83337 32.2173 12.1161 40.5 22.3334 40.5C32.5506 40.5 40.8334 32.2173 40.8334 22C40.8334 11.7827 32.5506 3.5 22.3334 3.5C19.8481 3.5 17.8334 5.51472 17.8334 8C17.8334 10.4853 19.8481 12.5 22.3334 12.5C23.4869 12.5 24.5359 12.068 25.333 11.3545C25.9503 10.802 26.8986 10.8546 27.4511 11.4718C28.0036 12.0891 27.951 13.0374 27.3337 13.5899C26.0079 14.7766 24.2533 15.5 22.3334 15.5C18.1912 15.5 14.8334 12.1421 14.8334 8C14.8334 6.84751 15.0933 5.75574 15.5578 4.78011Z" fill="#1B8354"/>
</g>
</g>
</svg>
