<svg width="48" height="48" viewBox="0 0 48 48" fill="none" xmlns="http://www.w3.org/2000/svg">
<path d="M8 2.5C7.17157 2.5 6.5 3.17157 6.5 4C6.5 4.82843 7.17157 5.5 8 5.5L25.4152 5.5L23.1295 9.5H18C17.1716 9.5 16.5 10.1716 16.5 11C16.5 11.8284 17.1716 12.5 18 12.5H23.9709C23.9894 12.5003 24.0079 12.5003 24.0263 12.5L30 12.5C30.8284 12.5 31.5 11.8284 31.5 11C31.5 10.1716 30.8284 9.5 30 9.5H26.5848L28.8705 5.5L40 5.5C40.8284 5.5 41.5 4.82843 41.5 4C41.5 3.17157 40.8284 2.5 40 2.5L8 2.5Z" fill="#1B8354"/>
<path fill-rule="evenodd" clip-rule="evenodd" d="M29.166 14.5L18.834 14.5C16.9851 14.4999 15.4445 14.4999 14.1663 14.6802C12.7996 14.8729 11.6293 15.2822 10.5439 16.1548C8.48198 17.8125 8.03722 19.8402 7.41987 22.6547L7.36037 22.9257C6.79663 25.4887 6.5 28.1486 6.5 30.875C6.5 32.7498 6.64027 34.5934 6.91127 36.3957L6.95494 36.687C7.40519 39.6937 7.73026 41.8646 9.84363 43.6839C10.9555 44.6411 12.1772 45.0908 13.614 45.3024C14.9567 45.5001 16.5835 45.5001 18.5376 45.5L29.4624 45.5C31.4165 45.5001 33.0433 45.5001 34.386 45.3024C35.8228 45.0908 37.0445 44.6411 38.1564 43.6839C40.2697 41.8646 40.5948 39.6937 41.0451 36.6869L41.0887 36.3957C41.3597 34.5934 41.5 32.7498 41.5 30.875C41.5 28.1486 41.2034 25.4887 40.6396 22.9257L40.5801 22.6547C39.9628 19.8402 39.518 17.8125 37.4561 16.1548C36.3707 15.2822 35.2004 14.8729 33.8337 14.6802C32.5555 14.4999 31.0149 14.4999 29.166 14.5ZM12.4237 18.4929C12.9849 18.0416 13.6054 17.789 14.5852 17.6508C15.6303 17.5034 16.9592 17.5 18.9351 17.5H22.5854C22.5301 17.6564 22.5 17.8247 22.5 18L22.5 30.5L9.50203 30.5C9.52784 28.1231 9.79865 25.8056 10.2903 23.5701C10.9892 20.3926 11.2579 19.4301 12.4237 18.4929ZM25.5 30.5L25.5 18C25.5 17.8247 25.4699 17.6564 25.4146 17.5H29.0649C31.0408 17.5 32.3697 17.5034 33.4148 17.6508C34.3946 17.789 35.0151 18.0416 35.5763 18.4929C36.7421 19.4301 37.0108 20.3926 37.7097 23.5701C38.2014 25.8056 38.4722 28.1231 38.498 30.5L25.5 30.5ZM9.6003 33.5C9.6636 34.3252 9.7565 35.1421 9.87792 35.9496C10.3897 39.353 10.6066 40.3822 11.8009 41.4104C12.3767 41.9061 13.0211 42.1827 14.051 42.3344C15.1505 42.4963 16.5562 42.5 18.644 42.5L29.356 42.5C31.4438 42.5 32.8495 42.4963 33.949 42.3344C34.9789 42.1827 35.6233 41.9061 36.1991 41.4104C37.3934 40.3822 37.6103 39.353 38.1221 35.9496C38.2435 35.1421 38.3364 34.3252 38.3997 33.5L9.6003 33.5Z" fill="#1B8354"/>
</svg>
