<svg width="29" height="28" viewBox="0 0 29 28" fill="none" xmlns="http://www.w3.org/2000/svg">
<path fill-rule="evenodd" clip-rule="evenodd" d="M2.34765 19.5977C2.32674 19.6726 2.31555 19.7517 2.31555 19.8333L2.31555 23.1956C2.31555 24.0258 2.84078 24.7187 3.56071 25.0387L3.62468 25.0675C3.8782 25.1823 4.30379 25.375 4.81289 25.375H6.81821C7.32732 25.375 7.75291 25.1823 8.00643 25.0675L8.07039 25.0387C8.79032 24.7187 9.31555 24.0258 9.31555 23.1956L9.31555 21.875L20.3989 21.875V23.1956C20.3989 24.0258 20.9241 24.7187 21.644 25.0387L21.708 25.0675C21.9615 25.1823 22.3871 25.375 22.8962 25.375L24.9015 25.375C25.4107 25.375 25.8362 25.1823 26.0898 25.0675L26.1537 25.0387C26.8737 24.7187 27.3989 24.0258 27.3989 23.1956V19.8333C27.3989 19.7517 27.3877 19.6726 27.3668 19.5977C27.388 19.4716 27.3989 19.3436 27.3989 19.2152V15.1662C27.3989 13.9663 26.8157 12.9077 26.1853 12.0639C25.7764 11.5166 25.2997 11.0003 24.8728 10.5541L25.7487 10.1161C26.181 9.90003 26.3561 9.37445 26.14 8.94221C25.9239 8.50998 25.3983 8.33479 24.9661 8.5509L24.0346 9.01664L23.1518 6.36817C22.9083 5.63752 22.7024 5.01981 22.4765 4.53426C22.2364 4.01809 21.9388 3.57021 21.4676 3.2306C20.9964 2.89099 20.4774 2.75028 19.9118 2.68571C19.3797 2.62496 18.7287 2.62498 17.9585 2.625L11.7551 2.625C10.9848 2.62498 10.3338 2.62496 9.80172 2.68571C9.2361 2.75028 8.71709 2.89099 8.24591 3.2306C7.77472 3.57021 7.47711 4.01809 7.23698 4.53426C7.01108 5.01987 6.80525 5.63742 6.56169 6.36819L5.67901 9.01624L4.74834 8.5509C4.31611 8.33479 3.79052 8.50998 3.5744 8.94221C3.35829 9.37445 3.53348 9.90003 3.96571 10.1161L4.84168 10.5541C4.41472 11.0003 3.93804 11.5166 3.52914 12.0639C2.89869 12.9077 2.31555 13.9663 2.31555 15.1662L2.31555 19.2152C2.31555 19.3436 2.32644 19.4716 2.34765 19.5977ZM7.32075 9.625L8.20654 6.96764C8.46958 6.1785 8.64489 5.65677 8.82369 5.27241C8.99301 4.90845 9.12927 4.7511 9.26915 4.65027C9.40904 4.54945 9.60141 4.46994 10.0002 4.42441C10.4214 4.37632 10.9718 4.375 11.8036 4.375L17.9099 4.375C18.7417 4.375 19.2921 4.37632 19.7133 4.42441C20.1121 4.46994 20.3045 4.54945 20.4443 4.65027C20.5842 4.7511 20.7205 4.90845 20.8898 5.27241C21.0686 5.65677 21.2439 6.1785 21.507 6.96764L22.3927 9.625L7.32075 9.625ZM25.6489 21.3804V23.1956C25.6489 23.2493 25.6124 23.3643 25.443 23.4395C25.1078 23.5885 25.0123 23.625 24.9015 23.625L22.8962 23.625C22.7855 23.625 22.69 23.5885 22.3548 23.4395C22.1854 23.3643 22.1489 23.2493 22.1489 23.1956V21.844L25.6083 21.3862C25.6219 21.3844 25.6354 21.3824 25.6489 21.3804ZM20.3491 20.125C20.3451 20.1139 20.341 20.1028 20.3365 20.0917L20.0337 19.3346C19.8345 18.8365 19.6594 18.3988 19.4745 18.052C19.2744 17.6768 19.0266 17.3352 18.6443 17.0763C18.2619 16.8175 17.8527 16.7143 17.43 16.6678C17.0394 16.6249 16.568 16.625 16.0315 16.625H13.6834C13.1469 16.625 12.6755 16.6249 12.2849 16.6678C11.8622 16.7143 11.453 16.8175 11.0706 17.0763C10.6883 17.3352 10.4405 17.6768 10.2404 18.052C10.0555 18.3988 9.88041 18.8365 9.6812 19.3346L9.37837 20.0917C9.37394 20.1028 9.36976 20.1139 9.36581 20.125H7.91487L4.33571 19.6513C4.29174 19.6455 4.23086 19.6195 4.17185 19.5448C4.11214 19.4693 4.06555 19.3548 4.06555 19.2152V15.1662C4.06555 15.1523 4.0657 15.1384 4.066 15.1244L5.7161 15.9495C6.14833 16.1656 6.67392 15.9904 6.89003 15.5582C7.10615 15.1259 6.93095 14.6004 6.49872 14.3842L4.67703 13.4734C4.75504 13.3541 4.83985 13.2334 4.93107 13.1113C5.35925 12.5382 5.85937 12.0199 6.34067 11.5211L6.4815 11.375L23.2329 11.375L23.3738 11.5211C23.8551 12.0199 24.3552 12.5382 24.7834 13.1113C24.972 13.3638 25.1332 13.6102 25.2636 13.8508L23.3948 14.318C22.926 14.4352 22.6409 14.9103 22.7581 15.3791C22.8753 15.8479 23.3504 16.133 23.8192 16.0157L25.6489 15.5583V19.2152C25.6489 19.3548 25.6023 19.4693 25.5426 19.5448C25.4836 19.6195 25.4227 19.6455 25.3787 19.6513L21.7996 20.125H20.3491ZM7.56555 21.844L7.56555 23.1956C7.56555 23.2493 7.52903 23.3643 7.35965 23.4395C7.02448 23.5885 6.92892 23.625 6.81821 23.625H4.81289C4.70218 23.625 4.60662 23.5885 4.27145 23.4395C4.10208 23.3643 4.06555 23.2493 4.06555 23.1956L4.06555 21.3804C4.079 21.3824 4.09252 21.3844 4.1061 21.3862L7.56555 21.844ZM11.2499 20.125L11.2898 20.0251C11.5101 19.4744 11.6502 19.1273 11.7845 18.8755C11.9087 18.6427 11.9896 18.5675 12.0517 18.5254C12.1138 18.4834 12.2137 18.4362 12.4759 18.4074C12.7596 18.3762 13.134 18.375 13.7271 18.375H15.9878C16.5809 18.375 16.9553 18.3762 17.239 18.4074C17.5012 18.4362 17.6011 18.4834 17.6632 18.5254C17.7253 18.5675 17.8062 18.6427 17.9304 18.8755C18.0647 19.1273 18.2048 19.4744 18.4251 20.0251L18.465 20.125H11.2499Z" fill="#1B8354"/>
</svg>
