<svg width="28" height="28" viewBox="0 0 28 28" fill="none" xmlns="http://www.w3.org/2000/svg">
<path d="M9.33337 11.9583C8.85012 11.9583 8.45837 12.3501 8.45837 12.8333C8.45837 13.3166 8.85012 13.7083 9.33337 13.7083H10.5C10.9833 13.7083 11.375 13.3166 11.375 12.8333C11.375 12.3501 10.9833 11.9583 10.5 11.9583H9.33337Z" fill="#1B8354"/>
<path fill-rule="evenodd" clip-rule="evenodd" d="M6.09805 4.84428C6.47526 4.50684 6.94465 4.375 7.37104 4.375L12.9639 4.375C13.7496 4.375 14.6061 4.53287 15.3575 5.02011C16.8546 5.99103 19.0592 7.91063 20.9255 10.8333C20.9692 10.9017 21.0356 10.9555 21.1158 10.9846C22.1877 11.3732 23.3672 11.9066 24.1101 12.2562C24.7974 12.5797 25.3665 13.1545 25.6406 13.9052C26.2023 15.4432 26.5038 17.1308 26.5417 19.8203C26.5533 20.6384 25.8894 21.2917 25.0868 21.2917H24.0876C23.7067 22.6383 22.4686 23.625 21 23.625C19.5315 23.625 18.2934 22.6383 17.9125 21.2917H10.0876C9.70673 22.6383 8.46861 23.625 7.00004 23.625C5.53147 23.625 4.29335 22.6383 3.91248 21.2917H2.89343C2.09994 21.2917 1.4012 20.6375 1.46208 19.7742C1.52731 18.8491 1.75552 16.932 2.60369 15.2826C2.62417 13.4305 2.90116 11.4112 3.43943 9.59241C3.99294 7.72216 4.85433 5.95687 6.09805 4.84428ZM7.37104 6.125H8.34081C8.22336 6.37129 8.1106 6.63342 8.00628 6.90464C7.61518 7.9215 7.29171 9.19686 7.29171 10.5C7.29171 10.751 7.39948 10.9899 7.58763 11.156C7.77578 11.3221 8.0262 11.3994 8.27524 11.3682C12.8029 10.8023 16.7547 11.3683 20.14 12.4968C20.1911 12.5138 20.2427 12.5259 20.2941 12.5332C20.3671 12.5696 20.4423 12.6018 20.5194 12.6298C21.5141 12.9904 22.6355 13.4964 23.365 13.8396C23.6717 13.984 23.8944 14.225 23.9968 14.5055C24.453 15.7547 24.7327 17.169 24.7863 19.5417H24.0876C23.7067 18.195 22.4686 17.2083 21 17.2083C19.5315 17.2083 18.2934 18.195 17.9125 19.5417L10.0876 19.5417C9.70673 18.195 8.46861 17.2083 7.00004 17.2083C5.53147 17.2083 4.29335 18.195 3.91248 19.5417H3.23803C3.33259 18.5902 3.5861 17.1132 4.24289 15.9275C4.60907 15.2665 5.07446 14.7438 5.66191 14.4306C6.08832 14.2032 6.24966 13.6732 6.02228 13.2468C5.79489 12.8204 5.26488 12.659 4.83847 12.8864C4.72318 12.9479 4.61199 13.0136 4.50476 13.0831C4.63103 12.0627 4.83558 11.0416 5.11749 10.089C5.63197 8.35062 6.37256 6.94675 7.26482 6.14856C7.26538 6.14806 7.27125 6.14281 7.28802 6.13701C7.30577 6.13087 7.33368 6.125 7.37104 6.125ZM9.11433 9.51798C12.4771 9.21412 15.5395 9.49808 18.2979 10.1537C16.8841 8.36159 15.4232 7.14853 14.4053 6.4884C14.0228 6.24036 13.5302 6.125 12.9639 6.125L10.3384 6.125C10.1479 6.41169 9.88532 6.89407 9.63964 7.53286C9.40879 8.13305 9.21441 8.8167 9.11433 9.51798ZM7.00004 18.9583C7.76129 18.9583 8.38631 19.5416 8.45257 20.2856C8.44615 20.3284 8.44282 20.3721 8.44282 20.4167C8.44282 20.4612 8.44615 20.505 8.45257 20.5477C8.38631 21.2917 7.76129 21.875 7.00004 21.875C6.19462 21.875 5.54171 21.2221 5.54171 20.4167C5.54171 19.6113 6.19462 18.9583 7.00004 18.9583ZM19.5417 20.4167C19.5417 19.6113 20.1946 18.9583 21 18.9583C21.8055 18.9583 22.4584 19.6113 22.4584 20.4167C22.4584 21.2221 21.8055 21.875 21 21.875C20.1946 21.875 19.5417 21.2221 19.5417 20.4167Z" fill="#1B8354"/>
</svg>
