<svg width="48" height="48" viewBox="0 0 48 48" fill="none" xmlns="http://www.w3.org/2000/svg">
<path d="M25.4999 16C25.4999 15.1716 24.8284 14.5 23.9999 14.5C23.1715 14.5 22.4999 15.1716 22.4999 16V24C22.4999 24.3978 22.658 24.7794 22.9393 25.0607L26.9393 29.0607C27.5251 29.6464 28.4748 29.6464 29.0606 29.0607C29.6464 28.4749 29.6464 27.5251 29.0606 26.9393L25.4999 23.3787V16Z" fill="#1B8354"/>
<path fill-rule="evenodd" clip-rule="evenodd" d="M23.9999 2.5C12.1258 2.5 2.49994 12.1259 2.49994 24C2.49994 35.8741 12.1258 45.5 23.9999 45.5C35.8741 45.5 45.4999 35.8741 45.4999 24C45.4999 12.1259 35.8741 2.5 23.9999 2.5ZM5.49994 24C5.49994 13.7827 13.7827 5.5 23.9999 5.5C34.2172 5.5 42.4999 13.7827 42.4999 24C42.4999 34.2173 34.2172 42.5 23.9999 42.5C13.7827 42.5 5.49994 34.2173 5.49994 24Z" fill="#1B8354"/>
</svg>
