<svg width="48" height="48" viewBox="0 0 48 48" fill="none" xmlns="http://www.w3.org/2000/svg">
<path d="M22 28C22 26.8954 22.8954 26 24 26H24.018C25.1225 26 26.018 26.8954 26.018 28C26.018 29.1046 25.1225 30 24.018 30H24C22.8954 30 22 29.1046 22 28Z" fill="#1B8354"/>
<path fill-rule="evenodd" clip-rule="evenodd" d="M21.1005 4.45976C21.6752 3.5528 22.5592 2.5 23.9996 2.5C25.4401 2.5 26.3241 3.5528 26.8988 4.45976C27.4884 5.39038 28.0969 6.73096 28.8191 8.32198L30.698 12.4613C31.1217 13.3945 31.4091 14.0257 31.6642 14.4993C31.9135 14.9622 32.0796 15.172 32.2163 15.2987C32.643 15.6943 33.1553 15.8981 33.6645 15.9115C33.8082 15.9153 34.0279 15.8883 34.4766 15.7291C34.9407 15.5644 35.5248 15.3059 36.407 14.9138L36.471 14.8854C37.3895 14.4771 38.1695 14.1304 38.797 13.915C39.3939 13.7101 40.1822 13.4972 40.974 13.7238C42.2316 14.0836 43.1266 15.1285 43.4204 16.3506C43.599 17.0933 43.4433 17.8553 43.2608 18.5111C43.0722 19.189 42.7652 20.0385 42.395 21.063L39.0104 30.4302C38.3203 32.3403 37.7632 33.882 37.1862 35.0787C36.5889 36.3171 35.9068 37.3272 34.8911 38.086C33.8643 38.8532 32.7278 39.1913 31.4199 39.3497C30.1779 39.5001 28.6544 39.5 26.8024 39.5H21.1969C19.3448 39.5 17.8214 39.5001 16.5794 39.3497C15.2715 39.1913 14.135 38.8532 13.1082 38.086C12.0924 37.3272 11.4103 36.3171 10.8131 35.0787C10.236 33.8821 9.67904 32.3405 8.98894 30.4305L5.60431 21.0632C5.23409 20.0386 4.92708 19.189 4.73845 18.5111C4.55599 17.8553 4.40029 17.0933 4.57887 16.3506C4.87271 15.1285 5.76771 14.0836 7.02528 13.7238C7.8171 13.4972 8.60541 13.7101 9.20224 13.915C9.82979 14.1304 10.6097 14.4771 11.5282 14.8853L11.5923 14.9138C12.4744 15.3059 13.0585 15.5644 13.5227 15.7291C13.9713 15.8883 14.191 15.9153 14.3348 15.9115C14.8439 15.8981 15.3562 15.6943 15.7829 15.2987C15.9196 15.172 16.0858 14.9622 16.3351 14.4993C16.5902 14.0257 16.8776 13.3945 17.3012 12.4613L19.1802 8.32207C19.9023 6.73101 20.5108 5.3904 21.1005 4.45976ZM23.6346 6.06549C23.1709 6.79729 22.6473 7.9421 21.8627 9.67052L20.0118 13.7479C19.6147 14.6227 19.2856 15.3478 18.9763 15.9219C18.6558 16.517 18.3049 17.0514 17.8227 17.4985C16.8865 18.3666 15.6856 18.877 14.4137 18.9105C13.7487 18.928 13.1337 18.7744 12.5193 18.5563C11.9327 18.3481 11.2423 18.0412 10.4253 17.6781L10.3739 17.6553C9.37385 17.2108 8.71565 16.9198 8.22814 16.7524C7.98435 16.6687 7.84979 16.6414 7.79147 16.6317C7.68662 16.6853 7.55712 16.8107 7.49866 17.0402L7.4989 17.0458C7.49947 17.0782 7.50256 17.2537 7.62867 17.7069C7.78318 18.2623 8.05023 19.0044 8.44675 20.1018L11.7828 29.3346C12.507 31.3389 13.0132 32.7343 13.5153 33.7755C14.0049 34.7908 14.4262 35.3259 14.9037 35.6827C15.3701 36.0312 15.945 36.2509 16.9401 36.3714C17.9808 36.4975 19.3221 36.5 21.2881 36.5H26.7112C28.6771 36.5 30.0185 36.4975 31.0592 36.3714C32.0542 36.2509 32.6291 36.0312 33.0955 35.6827C33.5731 35.3259 33.9944 34.7908 34.484 33.7755C34.9861 32.7343 35.4923 31.3389 36.2165 29.3346L39.5525 20.1018C39.949 19.0044 40.2161 18.2623 40.3706 17.7069C40.4967 17.2536 40.4998 17.0782 40.5004 17.0458L40.5006 17.0402C40.4421 16.8107 40.3126 16.6853 40.2078 16.6317C40.1495 16.6414 40.0149 16.6687 39.7711 16.7524C39.2836 16.9198 38.6254 17.2108 37.6254 17.6553L37.5739 17.6781C36.757 18.0412 36.0665 18.3481 35.48 18.5563C34.8656 18.7744 34.2505 18.928 33.5855 18.9105C32.3137 18.877 31.1127 18.3666 30.1765 17.4985C29.6943 17.0514 29.3434 16.517 29.0229 15.9219C28.7137 15.3477 28.3846 14.6228 27.9875 13.748L26.1366 9.67052C25.352 7.9421 24.8284 6.79729 24.3647 6.06549C24.2003 5.80608 24.0793 5.65687 23.9996 5.5732C23.92 5.65687 23.799 5.80608 23.6346 6.06549ZM24.1167 5.474C24.1166 5.47487 24.1107 5.47896 24.0989 5.48364C24.1108 5.47547 24.1167 5.47313 24.1167 5.474ZM23.9003 5.48364C23.8886 5.47896 23.8826 5.47487 23.8826 5.474C23.8825 5.47313 23.8884 5.47547 23.9003 5.48364Z" fill="#1B8354"/>
<path d="M14 42.5C13.1716 42.5 12.5 43.1716 12.5 44C12.5 44.8284 13.1716 45.5 14 45.5H34C34.8284 45.5 35.5 44.8284 35.5 44C35.5 43.1716 34.8284 42.5 34 42.5H14Z" fill="#1B8354"/>
</svg>
