<svg width="48" height="48" viewBox="0 0 48 48" fill="none" xmlns="http://www.w3.org/2000/svg">
<path fill-rule="evenodd" clip-rule="evenodd" d="M2.5 44C2.5 43.1716 3.17157 42.5 4 42.5H7.88397L15.984 15.5L7.5 15.5V18C7.5 18.8285 6.82843 19.5 6 19.5C5.17157 19.5 4.5 18.8285 4.5 18L4.5 14C4.5 13.5549 4.69773 13.1327 5.03972 12.8477L17.0295 2.85624C17.1264 2.77392 17.2339 2.7037 17.3497 2.64791C17.3755 2.63549 17.4016 2.62379 17.4282 2.61283C17.5368 2.568 17.6519 2.53557 17.7716 2.51728C17.846 2.50591 17.9223 2.5 18 2.5L30.004 2.5C30.0526 2.50013 30.1006 2.50257 30.1479 2.50721C30.4601 2.53777 30.7442 2.66403 30.9705 2.85626L42.9603 12.8477C43.3023 13.1327 43.5 13.5549 43.5 14L43.5 18C43.5 18.8285 42.8284 19.5 42 19.5C41.1716 19.5 40.5 18.8285 40.5 18L40.5 15.5L32.0161 15.5L40.1161 42.5H44C44.8284 42.5 45.5 43.1716 45.5 44C45.5 44.8284 44.8284 45.5 44 45.5L4 45.5C3.17157 45.5 2.5 44.8284 2.5 44ZM16.5 12.5L10.1431 12.5L16.5 7.2026V12.5ZM31.5 12.5L37.8569 12.5L31.5 7.2026L31.5 12.5ZM28.884 15.5L29.6501 18.0536L24 21.3772L18.35 18.0536L19.116 15.5L28.884 15.5ZM17.4624 21.0121L21.0415 23.1174L15.9285 26.1251L17.4624 21.0121ZM26.9585 23.1174L30.5376 21.0121L32.0715 26.1251L26.9585 23.1174ZM33.504 30.9001L35.5233 37.6312L27.4766 33.7828L33.504 30.9001ZM24 32.12L30.8095 28.8633L24 24.8577L17.1905 28.8633L24 32.12ZM20.5234 33.7828L14.496 30.9001L12.4767 37.6312L20.5234 33.7828ZM24 35.4455L11.6475 41.3532C11.5429 41.4032 11.4353 41.4401 11.3267 41.4644L11.0161 42.5L36.984 42.5L36.6733 41.4644C36.5647 41.4401 36.4571 41.4033 36.3525 41.3532L24 35.4455ZM28.5 5.5L28.5 12.5L19.5 12.5L19.5 5.5L28.5 5.5Z" fill="#1B8354"/>
</svg>
