<svg width="29" height="28" viewBox="0 0 29 28" fill="none" xmlns="http://www.w3.org/2000/svg">
<path d="M9.90479 11.9583C9.42154 11.9583 9.02979 12.3501 9.02979 12.8333C9.02979 13.3166 9.42154 13.7083 9.90479 13.7083H13.4048C13.888 13.7083 14.2798 13.3166 14.2798 12.8333C14.2798 12.3501 13.888 11.9583 13.4048 11.9583H9.90479Z" fill="#1B8354"/>
<path d="M9.90479 7.29164C9.42154 7.29164 9.02979 7.68339 9.02979 8.16664C9.02979 8.64989 9.42154 9.04164 9.90479 9.04164L18.0715 9.04164C18.5547 9.04164 18.9465 8.64989 18.9465 8.16664C18.9465 7.68339 18.5547 7.29164 18.0715 7.29164H9.90479Z" fill="#1B8354"/>
<path fill-rule="evenodd" clip-rule="evenodd" d="M14.5088 1.45825H15.5235C17.3831 1.45824 18.8474 1.45824 20.0091 1.57932C21.1953 1.70295 22.1707 1.96087 23.0052 2.54877C23.4506 2.8626 23.8478 3.23604 24.1839 3.65861C24.8196 4.45786 25.1 5.39768 25.2335 6.53188C25.3631 7.63371 25.3631 9.01911 25.3631 10.762V13.8196C25.3631 15.5211 25.3631 16.8415 25.2928 17.9071C25.2216 18.9872 25.0755 19.8662 24.7545 20.6762C23.7767 23.1436 21.7177 25.07 19.1332 25.9773C17.5245 26.542 15.5506 26.5419 12.091 26.5416L11.6678 26.5416C9.76015 26.542 8.57132 26.5423 7.59054 26.198C6.01663 25.6455 4.75482 24.4693 4.15396 22.9531C3.95019 22.4389 3.86269 21.893 3.82076 21.2573C3.77978 20.636 3.77978 19.8712 3.77979 18.9095V11.5972C3.77976 9.4562 3.77975 7.75488 3.97011 6.42225C4.16694 5.04436 4.58247 3.9334 5.50736 3.06291C6.42474 2.19949 7.583 1.81799 9.02097 1.63603C10.4261 1.45823 12.2245 1.45824 14.5088 1.45825ZM9.24066 3.37219C7.97818 3.53194 7.24162 3.83385 6.70674 4.33726C6.17937 4.83362 5.86876 5.50601 5.70253 6.66972C5.53188 7.86431 5.52979 9.44046 5.52979 11.6666V18.8787C5.52979 19.878 5.53023 20.5851 5.56697 21.1421C5.60319 21.6913 5.67201 22.0337 5.78086 22.3084C6.18517 23.3286 7.04912 24.1532 8.17018 24.5467C8.83207 24.7791 9.69395 24.7916 11.8669 24.7916C12.2409 24.7916 12.5939 24.7915 12.9278 24.7908C14.5426 24.7343 15.8344 23.4074 15.8344 21.7788C15.8344 21.6071 15.8269 21.4226 15.8173 21.2154L15.8137 21.1386C15.8052 20.9579 15.7959 20.7611 15.7919 20.565C15.7827 20.1216 15.7967 19.6041 15.9305 19.1046C16.1912 18.1316 16.9512 17.3717 17.9242 17.111C18.4237 16.9771 18.9411 16.9631 19.3846 16.9723C19.5807 16.9764 19.7773 16.9856 19.9581 16.9941L20.0349 16.9977C20.2421 17.0073 20.4267 17.0149 20.5983 17.0149C22.2628 17.0149 23.6122 15.6655 23.6122 14.001C23.6122 13.9876 23.6125 13.9742 23.6131 13.9609C23.6131 13.9037 23.6131 13.846 23.6131 13.7878V10.8181C23.6131 9.00645 23.6117 7.72406 23.4955 6.73638C23.3817 5.76925 23.1676 5.19214 22.8143 4.74797C22.5837 4.45802 22.3089 4.1989 21.9972 3.97935C21.5105 3.63644 20.8742 3.42896 19.8277 3.31989C18.7673 3.20937 17.3941 3.20825 15.473 3.20825H14.5715C12.2108 3.20825 10.5231 3.2099 9.24066 3.37219ZM23.5499 17.7406C22.7384 18.382 21.7131 18.7649 20.5983 18.7649C20.3816 18.7649 20.1604 18.7554 19.9538 18.7458L19.8747 18.7421C19.6919 18.7336 19.5198 18.7255 19.3482 18.7219C18.9508 18.7137 18.6328 18.7328 18.3771 18.8013C18.008 18.9002 17.7198 19.1885 17.6209 19.5575C17.5524 19.8132 17.5332 20.1313 17.5415 20.5287C17.5451 20.7002 17.5531 20.8723 17.5617 21.055L17.5654 21.1343C17.575 21.3408 17.5844 21.562 17.5844 21.7788C17.5844 22.8784 17.2118 23.8911 16.586 24.6974C17.3947 24.631 18.0063 24.5182 18.5535 24.3261C20.6852 23.5778 22.3463 22.0029 23.1276 20.0315C23.3537 19.461 23.4811 18.7855 23.5466 17.7919C23.5478 17.7749 23.5489 17.7578 23.5499 17.7406Z" fill="#1B8354"/>
</svg>
