<svg width="29" height="28" viewBox="0 0 29 28" fill="none" xmlns="http://www.w3.org/2000/svg">
<path fill-rule="evenodd" clip-rule="evenodd" d="M15.8925 17.4305C16.3359 17.6985 16.7092 17.7917 17.0242 17.7917C17.4092 17.7917 17.6892 17.6402 17.8525 17.5237C18.1559 17.3023 18.6225 16.7546 18.3659 15.6127L18.0508 14.4124L19.0659 13.3986C19.6025 12.8742 19.7892 12.2333 19.6025 11.6623C19.4275 11.0913 18.9025 10.6834 18.1675 10.5669L16.9192 10.3921L16.1958 8.94717C15.8692 8.2713 15.3209 7.87508 14.7142 7.87508C14.1075 7.87508 13.5592 8.25964 13.2209 8.94717L12.5675 10.3572L11.2609 10.5786C10.5375 10.7068 10.0125 11.103 9.82586 11.674C9.63919 12.2566 9.83751 12.8858 10.3625 13.4102L11.3542 14.3658L11.0625 15.6243C10.7942 16.8013 11.3309 17.3489 11.5759 17.5237C11.8209 17.6985 12.4975 18.0481 13.5358 17.4305L14.6675 16.708L15.8925 17.4305ZM12.6142 13.2005L11.7042 12.2799H11.6925L12.8475 12.0818C13.3492 11.9886 13.8392 11.6157 14.0609 11.1729L14.7025 9.87939L15.3442 11.1729C15.5659 11.6273 16.0675 12.0002 16.5692 12.0818L17.7242 12.2799L16.8142 13.2005C16.4408 13.5734 16.2542 14.2143 16.3709 14.7503L16.6159 15.8341L15.5659 15.2048C15.0759 14.9135 14.3758 14.9018 13.8625 15.2048L12.8125 15.8341L13.0575 14.7503C13.1742 14.226 12.9992 13.585 12.6142 13.2005Z" fill="#1B8354"/>
<path fill-rule="evenodd" clip-rule="evenodd" d="M2.75598 3.50122C2.75598 3.01797 3.14773 2.62622 3.63098 2.62622L25.7976 2.62622C26.2809 2.62622 26.6726 3.01797 26.6726 3.50122C26.6726 3.98447 26.2809 4.37622 25.7976 4.37622H24.3393L24.3393 16.3334C24.3393 17.7195 24.218 18.8158 23.6833 19.7602C23.1487 20.7046 22.271 21.3726 21.0824 22.0858L17.5294 24.2176C16.9753 24.55 16.5043 24.8326 16.0908 25.0271C15.6503 25.2342 15.2113 25.3734 14.7143 25.3734C14.2174 25.3734 13.7783 25.2342 13.3379 25.0271C12.9242 24.8326 12.4533 24.5501 11.8991 24.2175L8.34624 22.0858C7.15767 21.3726 6.27998 20.7046 5.74528 19.7602C5.21059 18.8158 5.08931 17.7195 5.08931 16.3334L5.08931 4.37622L3.63098 4.37622C3.14773 4.37622 2.75598 3.98447 2.75598 3.50122ZM6.83931 16.3334L6.83931 4.37622L22.5893 4.37622L22.5893 16.3334C22.5893 17.6643 22.4594 18.37 22.1605 18.898C21.8616 19.4259 21.3232 19.9005 20.182 20.5852L16.6651 22.6953C16.0652 23.0553 15.6702 23.2911 15.3462 23.4434C15.0402 23.5872 14.8636 23.6234 14.7143 23.6234C14.565 23.6234 14.3884 23.5872 14.0824 23.4434C13.7585 23.2911 13.3635 23.0553 12.7635 22.6953L9.24661 20.5852C8.10542 19.9005 7.56705 19.4259 7.26813 18.898C6.96922 18.37 6.83931 17.6643 6.83931 16.3334Z" fill="#1B8354"/>
</svg>
