<svg width="45" height="44" viewBox="0 0 45 44" fill="none" xmlns="http://www.w3.org/2000/svg">
<g id="elements">
<path id="Icon" fill-rule="evenodd" clip-rule="evenodd" d="M26.4548 0.700528C25.3272 0.470744 24.174 0.437003 23.0475 0.604406C21.3972 0.849646 19.9903 1.63861 18.5233 2.81107C17.0963 3.95157 15.4867 5.56125 13.4603 7.58766L8.25486 12.7931C6.22846 14.8194 4.61876 16.4291 3.47826 17.8561C2.3058 19.3231 1.51683 20.73 1.2716 22.3803C1.10419 23.5068 1.13793 24.66 1.36771 25.7876C1.79452 27.8821 3.07551 29.6453 4.96898 31.7107C5.94122 32.7711 7.47545 32.5943 8.31106 31.7587C9.42153 30.6483 11.3946 30.6177 12.7216 31.9447C14.0486 33.2717 14.018 35.2448 12.9076 36.3552C12.072 37.1908 11.8951 38.7251 12.9556 39.6973C15.021 41.5908 16.7842 42.8718 18.8787 43.2986C20.0063 43.5284 21.1595 43.5621 22.286 43.3947C23.9363 43.1494 25.3432 42.3605 26.8102 41.188C28.2372 40.0475 29.8468 38.4379 31.8731 36.4115L37.0786 31.206C39.105 29.1797 40.7147 27.57 41.8552 26.143C43.0277 24.676 43.8166 23.2691 44.0619 21.6188C44.2293 20.4923 44.1955 19.3391 43.9658 18.2115C43.5389 16.1168 42.2577 14.3534 40.3638 12.2877C39.3921 11.2278 37.8586 11.4042 37.0231 12.2396C35.9127 13.3501 33.9396 13.3807 32.6126 12.0537C31.2856 10.7266 31.3162 8.75361 32.4266 7.64314C33.2621 6.80773 33.4385 5.27418 32.3785 4.30243C30.3129 2.4086 28.5495 1.12738 26.4548 0.700528ZM23.4884 3.57182C24.2625 3.4568 25.0637 3.47871 25.8558 3.64012C26.988 3.87084 28.1265 4.54227 29.8365 6.05046C27.9498 8.45632 28.2765 11.9602 30.4913 14.175C32.706 16.3897 36.21 16.7165 38.6158 14.8298C40.124 16.5398 40.7954 17.6783 41.0262 18.8105C41.1876 19.6026 41.2095 20.4038 41.0945 21.1778C40.958 22.096 40.5157 23.0139 39.5117 24.27C38.9546 24.9671 38.2595 25.7268 37.4024 26.6139L18.0524 7.26389C18.9394 6.40675 19.6992 5.71167 20.3963 5.15455C21.6524 4.15063 22.5703 3.70827 23.4884 3.57182ZM15.9183 9.37241C15.7871 9.5035 15.6534 9.63714 15.5172 9.77334L10.4405 14.85C8.33532 16.9553 6.84557 18.4481 5.82174 19.7291C4.81782 20.9852 4.37546 21.9031 4.23901 22.8213C4.12399 23.5953 4.14589 24.3965 4.3073 25.1886C4.53802 26.3208 5.20942 27.4593 6.71756 29.1692C9.12344 27.2818 12.6279 27.6084 14.8429 29.8234C17.0579 32.0384 17.3845 35.5428 15.4971 37.9487C17.207 39.4569 18.3455 40.1283 19.4777 40.359C20.2698 40.5204 21.071 40.5423 21.845 40.4273C22.7632 40.2908 23.6811 39.8485 24.9372 38.8445C26.2182 37.8207 27.711 36.331 29.8162 34.2258L34.8929 29.149C35.0291 29.0128 35.1628 28.8792 35.2939 28.748L15.9183 9.37241Z" fill="#1B8354"/>
</g>
</svg>
