<svg width="29" height="28" viewBox="0 0 29 28" fill="none" xmlns="http://www.w3.org/2000/svg">
<path fill-rule="evenodd" clip-rule="evenodd" d="M14.5774 3.5C14.5774 3.01675 14.9691 2.625 15.4524 2.625L25.9524 2.625C26.4356 2.625 26.8274 3.01675 26.8274 3.5C26.8274 3.98325 26.4356 4.375 25.9524 4.375L25.6607 4.375L25.6607 11.654C25.6608 11.662 25.6608 11.67 25.6607 11.678V20.4167C25.6607 23.1551 23.4408 25.375 20.7024 25.375C17.9639 25.375 15.744 23.1551 15.744 20.4167L15.744 14.0014C15.744 14.0009 15.744 14.0003 15.744 13.9997L15.744 4.375H15.4524C14.9691 4.375 14.5774 3.98325 14.5774 3.5ZM17.494 12.1916V9.04167H20.119C20.6023 9.04167 20.994 8.64992 20.994 8.16667C20.994 7.68342 20.6023 7.29167 20.119 7.29167L17.494 7.29167V4.375L23.9107 4.375L23.9107 11.2267C23.4759 11.5443 23.0981 11.7922 22.7207 11.9285C22.3117 12.0761 21.931 12.0834 21.4687 11.806C20.2892 11.0983 19.1776 11.2692 18.2566 11.7297C17.9961 11.86 17.74 12.0198 17.494 12.1916ZM23.9107 13.3067V20.4167C23.9107 22.1886 22.4743 23.625 20.7024 23.625C18.9304 23.625 17.494 22.1886 17.494 20.4167L17.494 14.4162C17.5412 14.3774 17.5878 14.3389 17.6338 14.3009C18.1305 13.8908 18.5648 13.5321 19.0392 13.2949C19.5723 13.0284 20.0287 12.9829 20.5683 13.3067C21.5416 13.8906 22.481 13.8756 23.3151 13.5744C23.5196 13.5006 23.7186 13.409 23.9107 13.3067Z" fill="#1B8354"/>
<path fill-rule="evenodd" clip-rule="evenodd" d="M7.89144 11.0352C7.5529 10.7105 7.01847 10.7105 6.67993 11.0352L6.61935 11.0943C6.58233 11.1308 6.52921 11.1836 6.46228 11.2514C6.32848 11.3871 6.13919 11.5831 5.91286 11.8288C5.46114 12.3194 4.85722 13.0132 4.25127 13.8246C3.64713 14.6336 3.02863 15.5758 2.55829 16.5628C2.09168 17.5419 1.74402 18.6206 1.74402 19.6875C1.74402 21.6652 2.40399 23.128 3.50351 24.0832C4.58079 25.0191 5.97326 25.375 7.28569 25.375C8.59811 25.375 9.99058 25.0191 11.0679 24.0832C12.1674 23.128 12.8274 21.6652 12.8274 19.6875C12.8274 18.6206 12.4797 17.5419 12.0131 16.5628C11.5427 15.5758 10.9242 14.6336 10.3201 13.8246C9.71415 13.0132 9.11024 12.3194 8.65851 11.8288C8.43218 11.5831 8.24289 11.3871 8.10909 11.2514C8.04216 11.1836 7.98904 11.1308 7.95202 11.0943L7.89144 11.0352ZM7.20018 13.0143L7.28569 12.9219L7.37119 13.0143C7.79447 13.4739 8.35722 14.1209 8.91794 14.8717C9.48046 15.6249 10.0286 16.4664 10.4333 17.3156C10.8417 18.1726 11.0774 18.9825 11.0774 19.6875C11.0774 21.2536 10.5707 22.197 9.92017 22.7621C9.24746 23.3465 8.30659 23.625 7.28569 23.625C6.26478 23.625 5.32391 23.3465 4.6512 22.7621C4.00071 22.197 3.49402 21.2536 3.49402 19.6875C3.49402 18.9825 3.72969 18.1726 4.13808 17.3156C4.54274 16.4664 5.09091 15.6249 5.65343 14.8717C6.21415 14.1209 6.7769 13.4739 7.20018 13.0143Z" fill="#1B8354"/>
</svg>
