<svg width="48" height="48" viewBox="0 0 48 48" fill="none" xmlns="http://www.w3.org/2000/svg">
<path d="M23.1666 2.5H20.8334C16.9317 2.49998 13.8588 2.49995 11.4577 2.80484C8.99974 3.11695 7.0193 3.7715 5.45105 5.25263C3.87069 6.74519 3.16121 8.64935 2.8251 11.0104C2.49994 13.2946 2.49996 16.2108 2.5 19.8813V28.1186C2.49996 31.7892 2.49993 34.7054 2.8251 36.9896C3.16121 39.3506 3.87069 41.2548 5.45104 42.7474C7.01929 44.2285 8.99974 44.8831 11.4577 45.1952C13.8588 45.5 16.9317 45.5 20.8335 45.5H23.0588C23.8873 45.5 24.5588 44.8284 24.5588 44C24.5588 43.1716 23.8873 42.5 23.0588 42.5H20.9412C16.908 42.5 14.0257 42.4972 11.8356 42.2191C9.68022 41.9454 8.42364 41.4284 7.51092 40.5663C6.61029 39.7157 6.07929 38.5627 5.79515 36.5668C5.50357 34.5185 5.5 31.8161 5.5 28L5.5 20C5.5 16.1839 5.50357 13.4815 5.79515 11.4332C6.07929 9.43728 6.6103 8.28425 7.51092 7.43367C8.42365 6.57165 9.68022 6.05463 11.8356 5.78095C14.0257 5.50285 16.908 5.5 20.9412 5.5H23.0588C27.092 5.5 29.9743 5.50285 32.1644 5.78095C34.3198 6.05463 35.5764 6.57165 36.4891 7.43367C37.3897 8.28425 37.9207 9.43728 38.2048 11.4332C38.4964 13.4815 38.5 16.1839 38.5 20V21C38.5 21.8284 39.1716 22.5 40 22.5C40.8284 22.5 41.5 21.8284 41.5 21V19.8814C41.5 16.2108 41.5001 13.2946 41.1749 11.0104C40.8388 8.64936 40.1293 6.74519 38.549 5.25263C36.9807 3.7715 35.0003 3.11695 32.5423 2.80484C30.1412 2.49996 27.0683 2.49998 23.1666 2.5Z" fill="#1B8354"/>
<path d="M14 12.5C13.1716 12.5 12.5 13.1716 12.5 14C12.5 14.8284 13.1716 15.5 14 15.5H30C30.8284 15.5 31.5 14.8284 31.5 14C31.5 13.1716 30.8284 12.5 30 12.5H14Z" fill="#1B8354"/>
<path d="M12.5 24C12.5 23.1716 13.1716 22.5 14 22.5H24C24.8284 22.5 25.5 23.1716 25.5 24C25.5 24.8284 24.8284 25.5 24 25.5H14C13.1716 25.5 12.5 24.8284 12.5 24Z" fill="#1B8354"/>
<path fill-rule="evenodd" clip-rule="evenodd" d="M37.5002 26C37.5002 25.1716 36.8286 24.5 36.0002 24.5C35.1718 24.5 34.5002 25.1716 34.5002 26V27.205C32.8176 27.5086 31.311 28.3136 30.1571 29.4606L28.8113 28.5954C28.1145 28.1474 27.1864 28.3491 26.7384 29.046C26.2904 29.7428 26.4922 30.6709 27.189 31.1189L28.4647 31.939C28.0587 32.8803 27.8335 33.9148 27.8335 35C27.8335 36.0853 28.0588 37.12 28.4649 38.0614L27.1899 38.8811C26.493 39.3291 26.2913 40.2572 26.7393 40.954C27.1873 41.6509 28.1154 41.8526 28.8122 41.4046L30.1574 40.5398C31.3113 41.6866 32.8178 42.4915 34.5002 42.7949V44C34.5002 44.8284 35.1718 45.5 36.0002 45.5C36.8286 45.5 37.5002 44.8284 37.5002 44V42.7949C39.1826 42.4915 40.6891 41.6866 41.8429 40.5398L43.1882 41.4046C43.885 41.8526 44.8131 41.6509 45.2611 40.954C45.7091 40.2572 45.5073 39.3291 44.8105 38.8811L43.5355 38.0614C43.9416 37.12 44.1668 36.0853 44.1668 35C44.1668 33.9148 43.9416 32.8803 43.5357 31.939L44.8113 31.1189C45.5082 30.6709 45.7099 29.7428 45.2619 29.046C44.8139 28.3491 43.8859 28.1474 43.189 28.5954L41.8433 29.4606C40.6894 28.3136 39.1827 27.5086 37.5002 27.205V26ZM31.6856 32.2879C32.6042 30.9618 34.1844 30.0714 36.0002 30.0714C37.8159 30.0714 39.3961 30.9618 40.3148 32.2879C40.8554 33.0684 41.1668 33.9991 41.1668 35C41.1668 36.0011 40.8554 36.9318 40.3146 37.7124C39.3959 39.0384 37.8158 39.9286 36.0002 39.9286C34.1846 39.9286 32.6045 39.0384 31.6858 37.7124C31.145 36.9318 30.8335 36.0011 30.8335 35C30.8335 33.9991 31.1449 33.0684 31.6856 32.2879Z" fill="#1B8354"/>
</svg>
