<svg width="48" height="48" viewBox="0 0 48 48" fill="none" xmlns="http://www.w3.org/2000/svg">
<path fill-rule="evenodd" clip-rule="evenodd" d="M23.7857 21.5C19.711 21.5 16.5 24.9097 16.5 29C16.5 33.0903 19.711 36.5 23.7857 36.5H24.2143C28.289 36.5 31.5 33.0903 31.5 29C31.5 24.9097 28.289 21.5 24.2143 21.5H23.7857ZM19.5 29C19.5 26.4628 21.4697 24.5 23.7857 24.5H24.2143C26.5303 24.5 28.5 26.4628 28.5 29C28.5 31.5372 26.5303 33.5 24.2143 33.5H23.7857C21.4697 33.5 19.5 31.5372 19.5 29Z" fill="#1B8354"/>
<path fill-rule="evenodd" clip-rule="evenodd" d="M10.6651 4.68497C10.287 3.94787 10.578 3.04381 11.3151 2.66568C12.0522 2.28756 12.9563 2.57856 13.3344 3.31566L18.5233 13.4307C19.3024 13.1566 20.1083 12.9394 20.936 12.7839L22.5346 9.66255L19.5942 4.77338C19.1673 4.06345 19.3967 3.14182 20.1066 2.71487C20.8165 2.28792 21.7381 2.51732 22.1651 3.22725L24.1446 6.51869L25.7844 3.3166C26.162 2.57924 27.0659 2.2876 27.8033 2.66522C28.5406 3.04283 28.8322 3.9467 28.4546 4.68406L24.4489 12.506C26.2365 12.5537 27.9532 12.8858 29.5555 13.4586L34.6598 3.32551C35.0325 2.58565 35.9344 2.288 36.6742 2.66069C37.4141 3.03338 37.7117 3.93528 37.339 4.67514L32.2775 14.7233C37.1942 17.5802 40.5 22.904 40.5 29C40.5 38.1127 33.1127 45.5 24 45.5C14.8873 45.5 7.5 38.1127 7.5 29C7.5 22.8747 10.8377 17.5289 15.7936 14.6823L10.6651 4.68497ZM10.5 29C10.5 21.5442 16.5442 15.5 24 15.5C31.4558 15.5 37.5 21.5442 37.5 29C37.5 36.4558 31.4558 42.5 24 42.5C16.5442 42.5 10.5 36.4558 10.5 29Z" fill="#1B8354"/>
</svg>
