<svg width="29" height="28" viewBox="0 0 29 28" fill="none" xmlns="http://www.w3.org/2000/svg">
<path d="M4.80957 9.04175C4.32632 9.04175 3.93457 9.4335 3.93457 9.91675C3.93457 10.4 4.32632 10.7917 4.80957 10.7917L23.4762 10.7917C23.9595 10.7917 24.3512 10.4 24.3512 9.91675C24.3512 9.4335 23.9595 9.04175 23.4762 9.04175H4.80957Z" fill="#1B8354"/>
<path d="M4.80957 17.2084C4.32632 17.2084 3.93457 17.6002 3.93457 18.0834C3.93457 18.5667 4.32632 18.9584 4.80957 18.9584L23.4762 18.9584C23.9595 18.9584 24.3512 18.5667 24.3512 18.0834C24.3512 17.6002 23.9595 17.2084 23.4762 17.2084L4.80957 17.2084Z" fill="#1B8354"/>
</svg>
